<svg width="19" height="16" viewBox="0 0 19 16" fill="none" xmlns="http://www.w3.org/2000/svg">
<path d="M18.1213 2.55725C17.4523 2.84791 16.7446 3.0394 16.0203 3.12567C16.7814 2.67999 17.3538 1.97194 17.6301 1.13432C16.9105 1.5551 16.1246 1.85034 15.3059 2.0074C14.9611 1.6461 14.5465 1.35869 14.0873 1.16261C13.628 0.966538 13.1337 0.865905 12.6343 0.866828C10.6125 0.866828 8.97628 2.47923 8.97628 4.46686C8.97485 4.74334 9.00653 5.01899 9.07065 5.28792C7.62086 5.21996 6.20122 4.85012 4.90255 4.20206C3.60388 3.55401 2.45479 2.64201 1.52878 1.52442C1.20391 2.07209 1.0321 2.69695 1.03131 3.33373C1.03131 4.58203 1.68259 5.68545 2.666 6.3319C2.08336 6.31807 1.51265 6.16386 1.00233 5.88236V5.92694C1.00233 7.67309 2.2655 9.12573 3.93735 9.45639C3.62296 9.5402 3.29899 9.58266 2.97362 9.5827C2.74275 9.58311 2.5124 9.56071 2.28594 9.51583C2.75071 10.9462 4.10342 11.9864 5.70579 12.0162C4.40375 13.0196 2.80518 13.562 1.16134 13.558C0.869557 13.5575 0.578043 13.5402 0.288269 13.506C1.96055 14.5738 3.90445 15.1386 5.88857 15.1332C12.6265 15.1332 16.3075 9.64586 16.3075 4.88668C16.3075 4.73064 16.3034 4.5746 16.296 4.42228C17.0105 3.91406 17.6286 3.2825 18.1213 2.55725V2.55725Z" fill="#2F2F2F"/>
</svg>
