<svg width="18" height="16" viewBox="0 0 18 16" fill="none" xmlns="http://www.w3.org/2000/svg">
<path fill-rule="evenodd" clip-rule="evenodd" d="M17.2883 8.04814C17.2883 3.62264 13.5619 0.0343018 8.9662 0.0343018C4.37049 0.0343018 0.644135 3.62264 0.644135 8.04814C0.644135 12.0479 3.68689 15.3633 7.66588 15.965V10.3654H5.5523V8.04814H7.66588V6.28259C7.66588 4.27448 8.90862 3.16435 10.8093 3.16435C11.7199 3.16435 12.6725 3.32105 12.6725 3.32105V5.29339H11.6226C10.5894 5.29339 10.2662 5.91088 10.2662 6.54555V8.04814H12.574L12.2055 10.3654H10.2665V15.9657C14.2455 15.3644 17.2883 12.049 17.2883 8.04814V8.04814Z" fill="#2F2F2F"/>
</svg>
