<svg width="17" height="18" viewBox="0 0 17 18" fill="none" xmlns="http://www.w3.org/2000/svg">
<path d="M11.7895 2.32173C12.7083 2.32437 13.5888 2.67704 14.2385 3.30272C14.8883 3.92839 15.2545 4.77623 15.2572 5.66107V12.339C15.2545 13.2239 14.8883 14.0717 14.2385 14.6974C13.5888 15.3231 12.7083 15.6757 11.7895 15.6784H4.85466C3.9358 15.6757 3.05535 15.3231 2.40561 14.6974C1.75587 14.0717 1.38963 13.2239 1.38689 12.339V5.66107C1.38963 4.77623 1.75587 3.92839 2.40561 3.30272C3.05535 2.67704 3.9358 2.32437 4.85466 2.32173H11.7895V2.32173ZM11.7895 0.986206H4.85466C2.18454 0.986206 0 3.08984 0 5.66107V12.339C0 14.9103 2.18454 17.0139 4.85466 17.0139H11.7895C14.4596 17.0139 16.6441 14.9103 16.6441 12.339V5.66107C16.6441 3.08984 14.4596 0.986206 11.7895 0.986206V0.986206Z" fill="#2F2F2F"/>
<path d="M12.8297 5.66105C12.624 5.66105 12.4229 5.6023 12.2518 5.49223C12.0807 5.38216 11.9474 5.22571 11.8687 5.04267C11.7899 4.85963 11.7693 4.65821 11.8095 4.4639C11.8496 4.26958 11.9487 4.09109 12.0942 3.95099C12.2396 3.8109 12.425 3.71549 12.6268 3.67684C12.8286 3.63819 13.0377 3.65803 13.2278 3.73385C13.4179 3.80966 13.5804 3.93806 13.6947 4.10279C13.809 4.26753 13.87 4.4612 13.87 4.65932C13.8703 4.79095 13.8436 4.92134 13.7914 5.043C13.7392 5.16467 13.6626 5.27521 13.566 5.36829C13.4693 5.46136 13.3545 5.53514 13.2282 5.58538C13.1018 5.63562 12.9664 5.66134 12.8297 5.66105V5.66105ZM8.32208 6.32864C8.87075 6.32864 9.4071 6.48531 9.86331 6.77885C10.3195 7.07239 10.6751 7.4896 10.8851 7.97774C11.095 8.46587 11.15 9.003 11.0429 9.5212C10.9359 10.0394 10.6717 10.5154 10.2837 10.889C9.89572 11.2626 9.40142 11.517 8.86328 11.6201C8.32515 11.7232 7.76736 11.6703 7.26046 11.4681C6.75355 11.2659 6.32028 10.9235 6.01546 10.4842C5.71063 10.0449 5.54793 9.52839 5.54793 9.00004C5.54872 8.29177 5.84124 7.61273 6.36133 7.11191C6.88141 6.61109 7.58657 6.32939 8.32208 6.32864V6.32864ZM8.32208 4.99311C7.4991 4.99311 6.69461 5.22812 6.01033 5.6684C5.32605 6.10869 4.79272 6.73448 4.47778 7.46665C4.16284 8.19882 4.08044 9.00448 4.241 9.78175C4.40155 10.559 4.79785 11.273 5.37978 11.8334C5.96171 12.3937 6.70314 12.7754 7.5103 12.93C8.31746 13.0846 9.1541 13.0052 9.91443 12.7019C10.6748 12.3987 11.3246 11.8851 11.7818 11.2262C12.2391 10.5672 12.4831 9.79253 12.4831 9.00004C12.4831 7.93733 12.0447 6.91816 11.2644 6.16671C10.484 5.41527 9.42565 4.99311 8.32208 4.99311V4.99311Z" fill="#2F2F2F"/>
</svg>
