<svg width="29" height="28" viewBox="0 0 29 28" fill="none" xmlns="http://www.w3.org/2000/svg">
<path d="M0.680023 6.8978C0.68988 6.95312 0.697859 7.00843 0.701145 7.06421C0.742919 7.78008 1.28411 13.4919 8.08818 20.4464C8.08818 20.4464 13.9657 26.4361 20.1516 27.6955C20.1784 27.701 20.2047 27.707 20.2314 27.7144C20.606 27.8163 23.7902 28.6211 25.4316 26.975L27.7701 24.6785C27.7912 24.6577 27.8132 24.6375 27.8358 24.6181C28.069 24.4176 29.6931 22.9171 28.0686 21.3218C26.4244 19.707 24.3516 17.7382 24.1169 17.5151C24.1056 17.5045 24.0948 17.4939 24.084 17.4829C23.9568 17.3529 22.7487 16.1839 21.3335 17.2519C21.2927 17.2828 21.2542 17.3174 21.2176 17.3533L18.928 19.6079C18.4149 20.0942 17.6001 20.0878 17.0946 19.5936L9.27242 11.9412C8.74719 11.4272 8.7608 10.5878 9.30246 10.0904L11.133 8.41068C11.133 8.41068 13.1387 6.58711 10.9847 4.61742L7.78731 1.47735C7.7676 1.45799 7.74882 1.43817 7.73005 1.41743C7.52352 1.18879 5.99101 -0.376636 4.19283 1.3658C4.13792 1.41881 4.0783 1.46675 4.01494 1.50916C3.40475 1.92034 0.197974 4.21777 0.680023 6.8978Z" fill="white"/>
</svg>
