<svg width="158" height="30" viewBox="0 0 158 30" fill="none" xmlns="http://www.w3.org/2000/svg">
<path d="M0.275 26V1.325H6.75V26H0.275ZM11.315 26V1.325H16.075L28.57 16.83H27.555V1.325H33.54V26H28.78L16.355 10.495H17.37V26H11.315ZM38.0777 26V1.325H44.5527V26H38.0777ZM72.4237 26V6.54H64.9337V1.325H86.3887V6.54H78.8987V26H72.4237ZM89.108 26V1.325H106.818V6.26H95.303V10.985H105.978V15.955H95.303V21.03H106.818V26H89.108ZM122.655 26.385C119.972 26.385 117.65 25.86 115.69 24.81C113.754 23.76 112.249 22.2783 111.175 20.365C110.125 18.4517 109.6 16.2117 109.6 13.645C109.6 11.0783 110.125 8.85 111.175 6.96C112.249 5.04667 113.754 3.565 115.69 2.515C117.65 1.465 119.972 0.939999 122.655 0.939999C124.359 0.939999 125.91 1.17333 127.31 1.64C128.71 2.08333 129.889 2.725 130.845 3.565L128.92 8.64C127.847 7.87 126.855 7.33333 125.945 7.03C125.059 6.70333 124.044 6.54 122.9 6.54C120.8 6.54 119.179 7.15833 118.035 8.395C116.915 9.60833 116.355 11.3583 116.355 13.645C116.355 15.955 116.915 17.7283 118.035 18.965C119.179 20.1783 120.8 20.785 122.9 20.785C124.044 20.785 125.059 20.6333 125.945 20.33C126.855 20.0033 127.847 19.455 128.92 18.685L130.845 23.76C129.889 24.6 128.71 25.2533 127.31 25.72C125.91 26.1633 124.359 26.385 122.655 26.385ZM134.225 26V1.325H140.7V10.845H150.64V1.325H157.115V26H150.64V16.13H140.7V26H134.225Z" fill="#2F2F2F"/>
<path d="M47.4378 29.535V26H63.9228V29.535H47.4378Z" fill="#5571FF"/>
</svg>
