<svg width="121" height="25" viewBox="0 0 121 25" fill="none" xmlns="http://www.w3.org/2000/svg">
<path d="M11.6352 3.24907C11.9345 2.32776 13.2379 2.32776 13.5373 3.24907L15.0753 7.98249C15.2091 8.39451 15.5931 8.67347 16.0263 8.67347H21.0033C21.9721 8.67347 22.3748 9.91309 21.5911 10.4825L17.5646 13.4079C17.2141 13.6625 17.0675 14.1139 17.2014 14.5259L18.7393 19.2594C19.0387 20.1807 17.9842 20.9468 17.2005 20.3774L13.174 17.452C12.8235 17.1973 12.3489 17.1973 11.9984 17.452L7.97196 20.3774C7.18825 20.9468 6.13377 20.1807 6.43312 19.2594L7.9711 14.5259C8.10498 14.1139 7.95832 13.6625 7.60783 13.4079L3.58135 10.4825C2.79763 9.91309 3.20041 8.67347 4.16913 8.67347H9.14614C9.57936 8.67347 9.96332 8.39451 10.0972 7.98249L11.6352 3.24907Z" fill="#FFA722"/>
<path d="M59.5456 3.3677C59.8385 2.43301 61.1613 2.43301 61.4542 3.3677L62.8969 7.97245C63.0276 8.38957 63.414 8.67347 63.8512 8.67347H68.5951C69.555 8.67347 69.9636 9.89452 69.1969 10.4721L65.2971 13.4105C64.9593 13.665 64.8182 14.1045 64.9446 14.5081L66.4193 19.2149C66.71 20.1426 65.6398 20.8976 64.8633 20.3125L61.1017 17.4783C60.7454 17.2099 60.2544 17.2099 59.8981 17.4783L56.1365 20.3125C55.36 20.8976 54.2898 20.1426 54.5805 19.2149L56.0552 14.5081C56.1816 14.1045 56.0405 13.665 55.7027 13.4105L51.8029 10.4721C51.0362 9.89452 51.4448 8.67347 52.4047 8.67347H57.1486C57.5858 8.67347 57.9722 8.38957 58.1029 7.97246L59.5456 3.3677Z" fill="#FFA722"/>
<path d="M108.414 3.55809L109.952 8.2915C110.219 9.11555 110.987 9.67347 111.854 9.67347H116.831L112.804 12.5989C112.103 13.1082 111.81 14.0109 112.078 14.835L113.616 19.5684L109.589 16.643C108.888 16.1337 107.939 16.1337 107.238 16.643L103.212 19.5684L104.749 14.8349C105.017 14.0109 104.724 13.1082 104.023 12.5989L99.9965 9.67347L104.973 9.67347C105.84 9.67347 106.608 9.11555 106.876 8.29151L108.414 3.55809Z" stroke="#FFA722" stroke-width="2"/>
<path d="M35.8078 3.24907C36.1072 2.32776 37.4106 2.32776 37.7099 3.24907L39.2479 7.98249C39.3818 8.39451 39.7658 8.67347 40.199 8.67347H45.176C46.1447 8.67347 46.5475 9.91309 45.7638 10.4825L41.7373 13.4079C41.3868 13.6625 41.2401 14.1139 41.374 14.5259L42.912 19.2594C43.2114 20.1807 42.1569 20.9468 41.3732 20.3774L37.3467 17.452C36.9962 17.1973 36.5216 17.1973 36.1711 17.452L32.1446 20.3774C31.3609 20.9468 30.3064 20.1807 30.6058 19.2594L32.1438 14.5259C32.2776 14.1139 32.131 13.6625 31.7805 13.4079L27.754 10.4825C26.9703 9.91309 27.3731 8.67347 28.3418 8.67347H33.3188C33.752 8.67347 34.136 8.39451 34.2699 7.98249L35.8078 3.24907Z" fill="#FFA722"/>
<path d="M83.2899 3.24907C83.5892 2.32776 84.8926 2.32776 85.192 3.24907L86.7299 7.98249C86.8638 8.39451 87.2478 8.67347 87.681 8.67347H92.658C93.6267 8.67347 94.0295 9.91309 93.2458 10.4825L89.2193 13.4079C88.8688 13.6625 88.7222 14.1139 88.856 14.5259L90.394 19.2594C90.6934 20.1807 89.6389 20.9468 88.8552 20.3774L84.8287 17.452C84.4782 17.1973 84.0036 17.1973 83.6531 17.452L79.6266 20.3774C78.8429 20.9468 77.7884 20.1807 78.0878 19.2594L79.6258 14.5259C79.7597 14.1139 79.613 13.6625 79.2625 13.4079L75.236 10.4825C74.4523 9.91309 74.8551 8.67347 75.8238 8.67347H80.8008C81.234 8.67347 81.618 8.39451 81.7519 7.98249L83.2899 3.24907Z" fill="#FFA722"/>
<mask id="mask0_1_582" style="mask-type:alpha" maskUnits="userSpaceOnUse" x="98" y="2" width="20" height="19">
<path d="M107.454 2.92705C107.754 2.00574 109.057 2.00574 109.356 2.92705L110.896 7.66636C111.03 8.07838 111.414 8.35734 111.847 8.35734H116.83C117.799 8.35734 118.202 9.59696 117.418 10.1664L113.387 13.0954C113.036 13.3501 112.89 13.8014 113.023 14.2134L114.563 18.9528C114.863 19.8741 113.808 20.6402 113.025 20.0708L108.993 17.1417C108.643 16.8871 108.168 16.8871 107.817 17.1417L103.786 20.0708C103.002 20.6402 101.948 19.8741 102.247 18.9528L103.787 14.2134C103.921 13.8014 103.774 13.3501 103.424 13.0954L99.3922 10.1664C98.6085 9.59696 99.0113 8.35734 99.98 8.35734H104.963C105.396 8.35734 105.78 8.07838 105.914 7.66636L107.454 2.92705Z" fill="#FFA722"/>
</mask>
<g mask="url(#mask0_1_582)">
<rect x="98.681" y="0.474609" width="9.48617" height="21.8182" rx="1" fill="#FFA722"/>
</g>
</svg>
