<svg width="1441" height="888" viewBox="0 0 1441 888" fill="none" xmlns="http://www.w3.org/2000/svg">
<rect width="1440" height="854" fill="url(#paint0_linear_386_179)"/>
<path d="M802.77 298.789L834.178 257.542" stroke="#1BBDE2" stroke-width="2" stroke-miterlimit="10"/>
<path d="M732 379.224L763.409 338" stroke="#1BBDE2" stroke-width="2" stroke-miterlimit="10"/>
<path d="M653 134.247L684.385 93" stroke="#1BBDE2" stroke-width="2" stroke-miterlimit="10"/>
<path d="M763 176.812L827.638 92" stroke="#1E6DE0" stroke-width="2" stroke-miterlimit="10"/>
<g opacity="0.6">
<path d="M631.529 336.571H625.573V329H631.529V336.571ZM631.529 354.643H625.573V362.214H631.529V354.643ZM642.373 335.976L638.173 331.762L632.834 337.095L637.034 341.31L642.373 335.976ZM624.292 354.119L620.068 349.905L614.729 355.262L618.929 359.476L624.292 354.119ZM638.149 359.476L642.349 355.262L637.01 349.905L632.81 354.119L638.149 359.476ZM620.068 341.333L624.292 337.095L618.953 331.762L614.753 335.976L620.068 341.333ZM645.102 348.595V342.619H637.556V348.595H645.102ZM619.546 348.595V342.619H612V348.595H619.546Z" fill="url(#paint1_linear_386_179)"/>
<path d="M628.563 332.786C624.814 332.786 621.445 334.405 619.119 336.977C619.095 337 619.072 337.024 619.048 337.048C618.811 337.31 618.597 337.572 618.407 337.834C616.746 340 615.773 342.691 615.773 345.619C615.773 346.905 615.963 348.119 616.319 349.286C616.343 349.381 616.367 349.477 616.39 349.572C616.651 350.405 617.007 351.191 617.434 351.953C617.577 352.167 617.695 352.381 617.838 352.596C618.004 352.858 618.194 353.143 618.384 353.381C618.597 353.643 618.811 353.905 619.024 354.167C619.048 354.191 619.072 354.215 619.095 354.239C619.855 355.072 620.733 355.81 621.706 356.429C621.872 356.524 622.038 356.643 622.228 356.739C624.102 357.81 626.238 358.429 628.54 358.429C635.587 358.429 641.329 352.667 641.329 345.596C641.329 338.548 635.611 332.786 628.563 332.786ZM636.702 346.024C636.702 346.072 636.702 346.119 636.702 346.167C636.702 346.262 636.702 346.358 636.679 346.429C636.679 346.477 636.655 346.548 636.655 346.596C636.655 346.667 636.631 346.762 636.631 346.834C636.631 346.881 636.607 346.953 636.607 347C636.584 347.072 636.584 347.143 636.56 347.215C636.536 347.286 636.536 347.334 636.512 347.405C636.489 347.477 636.489 347.548 636.465 347.619C636.441 347.691 636.441 347.739 636.418 347.81C636.394 347.881 636.37 347.953 636.37 348C636.346 348.048 636.323 348.119 636.299 348.167C636.275 348.239 636.251 348.286 636.228 348.358C636.204 348.429 636.18 348.477 636.156 348.548C636.133 348.596 636.109 348.667 636.085 348.715C636.062 348.786 636.038 348.834 636.014 348.905C635.99 348.953 635.967 349.024 635.943 349.072C635.919 349.143 635.872 349.191 635.848 349.262C635.824 349.31 635.801 349.358 635.777 349.405C635.729 349.477 635.706 349.548 635.658 349.619C635.634 349.667 635.611 349.691 635.587 349.739C635.54 349.81 635.516 349.881 635.468 349.953C635.445 349.977 635.421 350.024 635.373 350.072C635.35 350.143 635.302 350.191 635.255 350.262C635.231 350.31 635.207 350.334 635.16 350.381C635.112 350.453 635.065 350.524 635.018 350.572C634.994 350.619 634.97 350.643 634.946 350.667C634.899 350.739 634.828 350.81 634.78 350.881C634.756 350.905 634.733 350.929 634.709 350.953C634.662 351.024 634.59 351.096 634.519 351.167C634.495 351.191 634.495 351.215 634.472 351.239C634.401 351.31 634.329 351.381 634.258 351.453C634.234 351.453 634.234 351.477 634.211 351.477C634.14 351.548 634.045 351.619 633.973 351.715C632.668 352.881 630.984 353.619 629.156 353.762C628.967 353.786 628.753 353.786 628.563 353.786C624.079 353.786 620.401 350.119 620.401 345.596C620.401 341.072 624.055 337.405 628.563 337.405C628.753 337.405 628.967 337.405 629.156 337.429C630.984 337.596 632.668 338.334 633.973 339.5C634.045 339.572 634.14 339.643 634.211 339.715C634.234 339.739 634.234 339.739 634.258 339.762C634.329 339.834 634.401 339.905 634.472 339.977C634.495 340 634.519 340.024 634.519 340.048C634.59 340.119 634.662 340.191 634.709 340.262C634.733 340.286 634.756 340.31 634.78 340.334C634.828 340.405 634.899 340.477 634.946 340.548C634.97 340.572 634.994 340.619 635.018 340.643C635.065 340.715 635.112 340.786 635.16 340.834C635.207 340.881 635.231 340.929 635.255 340.953C635.302 341.024 635.35 341.096 635.373 341.143C635.397 341.191 635.421 341.239 635.445 341.262C635.492 341.334 635.516 341.381 635.563 341.453C635.611 341.524 635.634 341.572 635.658 341.619C635.706 341.667 635.729 341.739 635.777 341.81C635.801 341.858 635.824 341.905 635.848 341.953C635.872 342.024 635.919 342.072 635.943 342.143C635.967 342.191 635.99 342.262 636.014 342.31C636.038 342.381 636.062 342.429 636.085 342.5C636.109 342.548 636.133 342.619 636.156 342.667C636.18 342.739 636.204 342.786 636.228 342.858C636.251 342.929 636.275 342.977 636.299 343.048C636.323 343.119 636.346 343.167 636.37 343.239C636.394 343.31 636.418 343.358 636.418 343.429C636.441 343.5 636.441 343.548 636.465 343.619C636.489 343.691 636.489 343.762 636.512 343.834C636.536 343.905 636.536 343.953 636.56 344.024C636.584 344.096 636.584 344.167 636.607 344.239C636.607 344.286 636.631 344.358 636.631 344.405C636.631 344.477 636.655 344.572 636.655 344.643C636.655 344.691 636.679 344.762 636.679 344.81C636.679 344.905 636.702 345 636.702 345.072C636.702 345.119 636.702 345.167 636.702 345.215C636.702 345.358 636.702 345.477 636.702 345.619C636.702 345.762 636.702 345.881 636.702 346.024Z" fill="url(#paint2_linear_386_179)"/>
</g>
<path d="M706.542 561.452H697.549V550H706.542V561.452ZM706.542 588.81H697.549V600.262H706.542V588.81ZM722.939 560.571L716.58 554.19L708.512 562.286L714.871 568.667L722.939 560.571ZM695.58 588L689.22 581.619L681.153 589.714L687.512 596.095L695.58 588ZM716.556 596.095L722.915 589.714L714.847 581.619L708.488 588L716.556 596.095ZM689.22 568.667L695.58 562.286L687.512 554.19L681.153 560.571L689.22 568.667ZM727.068 579.643V570.619H715.654V579.643H727.068ZM688.414 579.643V570.619H677V579.643H688.414Z" fill="url(#paint3_linear_386_179)"/>
<path d="M702.034 555.738C696.387 555.738 691.309 558.191 687.75 562.072C687.702 562.119 687.678 562.167 687.631 562.191C687.299 562.572 686.966 562.976 686.658 563.381C684.166 566.643 682.695 570.714 682.695 575.143C682.695 577.072 682.98 578.929 683.502 580.691C683.55 580.834 683.597 580.976 683.644 581.119C684.048 582.381 684.594 583.572 685.234 584.714C685.424 585.048 685.614 585.381 685.828 585.691C686.089 586.095 686.373 586.5 686.682 586.881C686.99 587.286 687.322 587.691 687.655 588.072C687.702 588.119 687.726 588.167 687.773 588.191C688.936 589.476 690.265 590.572 691.712 591.5C691.973 591.667 692.234 591.81 692.495 591.976C695.319 593.595 698.57 594.524 702.034 594.524C712.689 594.524 721.373 585.834 721.373 575.119C721.373 564.429 712.712 555.738 702.034 555.738ZM714.35 575.762C714.35 575.834 714.35 575.905 714.326 575.976C714.326 576.119 714.302 576.238 714.302 576.381C714.302 576.453 714.278 576.548 714.278 576.619C714.255 576.738 714.255 576.857 714.231 576.976C714.207 577.072 714.207 577.143 714.183 577.238C714.16 577.357 714.136 577.453 714.136 577.572C714.112 577.667 714.089 577.762 714.065 577.834C714.041 577.929 714.017 578.048 713.994 578.143C713.97 578.238 713.946 578.334 713.922 578.429C713.899 578.524 713.875 578.619 713.828 578.714C713.804 578.81 713.756 578.905 713.733 579C713.709 579.095 713.661 579.191 713.638 579.286C713.614 579.381 713.566 579.476 713.543 579.572C713.519 579.667 713.472 579.738 713.448 579.834C713.4 579.929 713.377 580.024 713.329 580.119C713.282 580.191 713.258 580.286 713.211 580.357C713.163 580.453 713.116 580.548 713.068 580.643C713.021 580.714 712.997 580.81 712.95 580.881C712.902 580.976 712.855 581.072 712.783 581.167C712.736 581.238 712.712 581.31 712.665 581.381C712.617 581.476 712.546 581.572 712.499 581.667C712.451 581.738 712.428 581.786 712.38 581.857C712.309 581.953 712.238 582.048 712.19 582.143C712.143 582.191 712.119 582.262 712.072 582.31C712 582.405 711.929 582.5 711.858 582.619C711.811 582.667 711.787 582.714 711.739 582.762C711.668 582.857 711.573 582.976 711.502 583.072C711.478 583.119 711.431 583.143 711.407 583.191C711.312 583.286 711.217 583.405 711.122 583.5C711.099 583.524 711.075 583.572 711.028 583.595C710.933 583.714 710.814 583.81 710.719 583.929C710.695 583.953 710.672 583.976 710.672 583.976C710.553 584.095 710.434 584.214 710.316 584.31C708.346 586.072 705.807 587.214 703.031 587.405C702.722 587.429 702.438 587.453 702.129 587.453C695.343 587.453 689.814 581.905 689.814 575.095C689.814 568.286 695.343 562.738 702.129 562.738C702.438 562.738 702.722 562.762 703.031 562.786C705.807 563 708.346 564.119 710.316 565.881C710.434 566 710.553 566.095 710.672 566.214C710.695 566.238 710.719 566.262 710.743 566.262C710.861 566.357 710.956 566.476 711.051 566.595C711.075 566.619 711.122 566.667 711.146 566.691C711.241 566.786 711.336 566.905 711.431 567C711.455 567.048 711.502 567.072 711.526 567.119C711.621 567.214 711.692 567.334 711.763 567.429C711.811 567.476 711.834 567.524 711.882 567.572C711.953 567.667 712.024 567.762 712.095 567.881C712.143 567.929 712.167 568 712.214 568.048C712.285 568.143 712.356 568.238 712.404 568.334C712.451 568.405 712.499 568.453 712.522 568.524C712.594 568.619 712.641 568.714 712.689 568.81C712.736 568.881 712.76 568.953 712.807 569.024C712.855 569.119 712.902 569.214 712.973 569.31C713.021 569.381 713.044 569.453 713.092 569.548C713.139 569.643 713.187 569.738 713.234 569.834C713.282 569.905 713.305 570 713.353 570.072C713.4 570.167 713.424 570.262 713.472 570.357C713.519 570.453 713.543 570.524 713.567 570.619C713.614 570.714 713.638 570.81 713.661 570.905C713.685 571 713.733 571.095 713.756 571.191C713.78 571.286 713.828 571.381 713.851 571.476C713.875 571.572 713.899 571.667 713.946 571.762C713.97 571.857 713.994 571.953 714.017 572.048C714.041 572.143 714.065 572.262 714.089 572.357C714.112 572.453 714.136 572.548 714.16 572.619C714.183 572.738 714.207 572.834 714.207 572.953C714.231 573.048 714.231 573.119 714.255 573.214C714.278 573.334 714.278 573.453 714.302 573.572C714.302 573.643 714.326 573.738 714.326 573.81C714.35 573.953 714.35 574.072 714.35 574.214C714.35 574.286 714.35 574.357 714.373 574.429C714.373 574.643 714.397 574.834 714.397 575.048C714.397 575.262 714.373 575.548 714.35 575.762Z" fill="url(#paint4_linear_386_179)"/>
<g opacity="0.5">
<path d="M1301.94 259.877C1299.65 259.877 1297.34 259.162 1295.37 257.681C1290.54 254.046 1289.56 247.185 1293.2 242.35L1362.34 150.37C1365.98 145.535 1372.84 144.565 1377.67 148.199C1382.51 151.834 1383.48 158.695 1379.84 163.529L1310.7 255.51C1308.55 258.37 1305.27 259.877 1301.94 259.877Z" fill="#1E6DE0"/>
</g>
<path d="M1364.08 511.86L1388.68 535.112L1413.27 558.446L1381.82 569.12L1350.28 579.876L1357.14 545.868L1364.08 511.86Z" stroke="#EDEDE9" stroke-miterlimit="10"/>
<path opacity="0.4" d="M28.2461 146L65 171.876L23 181L28.2461 146Z" fill="#AAF0F3"/>
<g opacity="0.4">
<path d="M100.786 218.241L96.4922 218.384L97.4527 247.592L101.747 247.45L100.786 218.241Z" fill="#AAC9F3"/>
</g>
<path d="M0 887.463V624.332V681.223C0 681.223 338.804 947.815 869.162 776.65L1324.74 624.869L1441 586V888L0 887.463Z" fill="white"/>
<defs>
<linearGradient id="paint0_linear_386_179" x1="-2.69776e-05" y1="32.3818" x2="2316.84" y2="1495.09" gradientUnits="userSpaceOnUse">
<stop stop-color="#276EB9"/>
<stop offset="0.96511" stop-color="#00D09C"/>
</linearGradient>
<linearGradient id="paint1_linear_386_179" x1="628.554" y1="362.221" x2="628.554" y2="329" gradientUnits="userSpaceOnUse">
<stop stop-color="#61B94B"/>
<stop offset="0.3515" stop-color="#64BB4E"/>
<stop offset="0.5959" stop-color="#6CC157"/>
<stop offset="0.8071" stop-color="#7ACA66"/>
<stop offset="1" stop-color="#8DD87C"/>
</linearGradient>
<linearGradient id="paint2_linear_386_179" x1="628.555" y1="358.438" x2="628.555" y2="332.784" gradientUnits="userSpaceOnUse">
<stop stop-color="#61B94B"/>
<stop offset="1" stop-color="#8DD87C"/>
</linearGradient>
<linearGradient id="paint3_linear_386_179" x1="702.046" y1="550.013" x2="702.046" y2="600.251" gradientUnits="userSpaceOnUse">
<stop stop-color="#92C7FF"/>
<stop offset="0.0938" stop-color="#86BDFC"/>
<stop offset="0.2486" stop-color="#7AB3F9"/>
<stop offset="0.4614" stop-color="#73ADF7"/>
<stop offset="1" stop-color="#71ABF7"/>
</linearGradient>
<linearGradient id="paint4_linear_386_179" x1="702.046" y1="555.736" x2="702.046" y2="594.529" gradientUnits="userSpaceOnUse">
<stop stop-color="#92C7FF"/>
<stop offset="1" stop-color="#71ABF7"/>
</linearGradient>
</defs>
</svg>
