<svg width="110" height="22" viewBox="0 0 110 22" fill="none" xmlns="http://www.w3.org/2000/svg">
<path d="M80.3623 0.0834195C78.3152 0.264538 76.1687 1.17013 74.5526 2.5285C73.0855 3.76341 72.1574 5.03123 71.4363 6.78478C70.0771 10.1107 70.4915 13.8813 72.5634 16.9438C73.1021 17.7341 74.5608 19.1913 75.3233 19.6852C76.1438 20.2204 76.8896 20.6156 77.5445 20.8626L78.108 21.0683L78.0417 20.2286C77.7516 16.4828 78.4229 13.0168 79.8567 10.9176C80.5115 9.95433 81.6966 8.85939 82.9397 8.06083C83.2464 7.86325 83.4785 7.69036 83.4536 7.6739C83.4038 7.61627 82.6414 7.90441 81.8624 8.26665C79.7076 9.26279 78.3069 10.7611 77.4864 12.9263C77.2377 13.585 76.8234 15.0174 76.6908 15.676C76.5747 16.2441 76.5664 16.2441 76.0361 15.2314C74.4613 12.2101 74.942 9.27103 77.3621 7.03999C78.4146 6.06853 80.1717 5.377 82.0778 5.17117C83.2713 5.03946 85.4592 5.12178 86.4455 5.33583C87.15 5.49225 88.0451 5.80509 88.0451 5.89565C88.0451 5.92034 87.9207 6.16732 87.7715 6.44724C87.1748 7.53394 86.8682 8.62064 86.5118 10.8599C86.2548 12.4406 86.1223 13.0004 85.8322 13.7578C85.2271 15.322 83.4121 16.738 81.2905 17.2896C80.9756 17.3801 80.3208 17.4707 79.8484 17.5036L78.9865 17.553L79.0363 18.3105C79.0942 19.142 79.2682 20.0722 79.5169 20.9119L79.6827 21.4636L80.586 21.5624C83.0061 21.8258 85.8737 21.0355 87.8793 19.5618C90.1004 17.9235 91.5094 15.7748 92.1558 13.0416C92.3547 12.2101 92.3796 9.6415 92.1973 8.80176C91.2856 4.48787 88.1445 1.26068 83.926 0.281003C83.3874 0.157513 81.8043 -0.0153713 81.3734 0.00109436C81.2407 0.0093272 80.7849 0.0422569 80.3623 0.0834195Z" fill="#7810CB"/>
<path d="M94.8477 10.5636V20.8214H96.2566H97.6655L97.6821 12.029L97.7069 3.24477L99.8617 3.22008C101.047 3.21185 102.307 3.23654 102.663 3.2777C104.246 3.46705 105.398 4.50436 105.821 6.13442C105.986 6.76834 105.986 7.2129 105.829 7.87974C105.605 8.81826 105.133 9.49333 104.337 10.0038C103.583 10.4813 103.26 10.5306 100.923 10.5306H98.8258V11.2551V11.9795L100.011 13.3791C100.657 14.153 102.323 16.1453 103.707 17.8001L106.227 20.8214H108.083C109.094 20.8214 109.931 20.805 109.931 20.7885C109.931 20.772 108.498 19.0596 106.741 16.985L103.55 13.2145L104.147 13.0663C106.724 12.3995 108.423 10.4648 108.779 7.79742C108.987 6.17559 108.473 4.21623 107.478 2.86607C107.031 2.25686 106.103 1.45006 105.473 1.12076C105.166 0.956108 104.578 0.725595 104.171 0.593873L103.426 0.371593L99.1407 0.338661L94.8477 0.313965V10.5636Z" fill="#7810CB"/>
<path d="M0.859375 10.6128V20.8212H2.30974H3.76011V16.3756V11.93H7.82112H11.8822V10.5716V9.2132H7.82112H3.76011V6.20829V3.20338H8.35983H12.9595V1.80384V0.404297H6.90947H0.859375V10.6128Z" fill="#7810CB"/>
<path d="M39.7707 4.93234C39.2071 5.00644 38.3452 5.28634 37.9142 5.53332C37.3341 5.86263 36.2566 6.8176 36.2483 7.00697C36.2483 7.04813 36.2152 7.07282 36.1655 7.07282C36.1158 7.07282 36.0826 6.71882 36.0826 6.16723V5.26165H34.7151H33.3477V13.0415V20.8213H34.7151H36.0826V16.3839C36.0826 11.4362 36.1075 11.1562 36.6213 10.0695C36.9777 9.33679 37.7899 8.45591 38.4944 8.03603C39.3314 7.54208 40.0275 7.36096 41.0552 7.36919C41.5359 7.37743 42.025 7.41859 42.1576 7.46799L42.3813 7.56678V6.34012V5.11346L41.9918 5.03113C41.3867 4.89941 40.326 4.85825 39.7707 4.93234Z" fill="#7810CB"/>
<path d="M20.6182 5.05569C17.9909 5.45909 15.861 6.89979 14.7256 9.04851C14.0791 10.2587 13.7891 11.4771 13.7891 12.926C13.7891 17.0012 16.3003 20.1049 20.2121 20.8623C22.9139 21.381 25.8312 20.7307 27.2816 19.2899C27.5717 19.0018 27.8285 18.763 27.8451 18.763C27.8617 18.763 27.8783 19.224 27.8783 19.792V20.8211H29.2458H30.6133V13.0002V5.17918H29.2458H27.8783V6.21649V7.2538L27.3976 6.75985C25.9721 5.31914 23.2952 4.63583 20.6182 5.05569ZM23.7842 7.61604C25.9307 8.22525 27.381 9.79768 27.754 11.8887C27.9115 12.7944 27.9115 13.2225 27.754 14.0539C27.5799 14.9678 27.381 15.4617 26.8672 16.2191C25.8478 17.7504 23.7095 18.7219 21.6873 18.5654C19.4579 18.4008 17.734 17.1 16.9218 14.9678C16.6649 14.2926 16.6566 14.235 16.6483 12.959C16.6483 11.7983 16.6732 11.5759 16.8389 11.0655C17.2202 9.93763 17.8004 9.10614 18.6292 8.48869C19.6733 7.72307 20.6348 7.41845 22.0851 7.41022C22.889 7.40199 23.1791 7.43492 23.7842 7.61604Z" fill="#7810CB"/>
<path d="M44.4492 12.877V20.8216H45.8499H47.2588L47.2837 16.022C47.3168 10.7448 47.3085 10.8436 47.8556 9.74046C48.1207 9.19712 48.7672 8.48911 49.2561 8.19274C49.9606 7.75641 50.4164 7.63292 51.4192 7.58352C52.1818 7.55883 52.4718 7.57529 52.8033 7.68231C53.6072 7.95399 54.3449 8.64553 54.7262 9.50172C55.1239 10.3991 55.1405 10.7119 55.1405 15.9149V20.8216H56.5495H57.9583V16.4336C57.9583 11.9797 58.0081 10.9259 58.2402 10.2427C58.6877 8.95837 59.5496 8.09394 60.7928 7.72348C61.2653 7.57529 61.5221 7.55883 62.3343 7.58352C63.1797 7.60822 63.3537 7.64115 63.7184 7.8305C64.4726 8.21743 64.9449 8.81841 65.2765 9.78986C65.4505 10.3168 65.4588 10.432 65.4837 15.5691L65.5085 20.8216H66.9175H68.3181V15.9396C68.3181 11.988 68.2932 10.9177 68.1938 10.2838C67.7463 7.50119 66.3539 5.79704 64.0167 5.16313C63.1548 4.92439 61.3232 4.90792 60.4944 5.1302C59.0937 5.50067 58.0164 6.23337 57.3036 7.30361L57.0798 7.64115L56.7318 7.11427C55.7124 5.58299 53.8476 4.82559 51.4358 4.95732C49.8529 5.03964 48.8833 5.45127 47.9135 6.43918L47.2671 7.08956V6.01109V4.93262H45.8582H44.4492V12.877Z" fill="#7810CB"/>
</svg>
