<svg width="1440" height="547" viewBox="0 0 1440 547" fill="none" xmlns="http://www.w3.org/2000/svg">
<rect width="1440" height="547" fill="white"/>
<g opacity="0.5">
<path d="M600.188 301.315C592.698 306.076 582.908 307.485 574.22 305.078C573.251 304.81 572.186 304.418 571.749 303.562C571.084 302.278 572.148 300.815 572.338 299.406C572.89 295.322 566.692 293.557 564.734 289.901C563.955 288.456 563.898 286.762 563.765 285.157C562.567 270.8 554.583 257.87 547.873 244.923C547.397 243.978 546.884 242.961 547.093 241.927C547.302 240.892 548.557 240.001 549.527 240.518C548.804 242.961 550.401 245.797 552.948 246.617C554.108 242.444 554.754 236.951 550.762 234.811C549.413 234.08 547.778 233.955 546.219 233.883C540.06 233.598 533.863 233.919 527.779 234.846C526.753 235.007 525.65 235.15 524.757 234.668C523.977 234.24 523.559 233.402 523.027 232.706C521.525 230.834 517.552 229.817 515.442 231.44C513.104 233.259 514.891 237.218 510.385 237.753C507.838 238.057 505.386 236.844 503.162 235.649C500.767 234.383 498.333 233.063 496.584 231.066C495.976 230.352 495.425 229.55 494.588 229.068C492.992 228.123 490.957 228.64 489.075 228.622C487.194 228.604 484.912 227.32 485.407 225.626C485.559 225.109 485.977 224.681 486.3 224.217C488.657 220.829 485.54 215.978 481.415 214.747C477.289 213.517 472.841 214.747 468.716 215.96C462.538 217.797 456.36 219.616 450.162 221.453C447.824 222.148 445.372 222.844 442.958 222.434C440.886 222.077 438.719 220.936 436.837 221.792C434.27 222.951 434.688 226.536 433.149 228.783C431.666 230.923 428.51 231.618 426.99 233.741C425.222 236.202 426.267 239.466 426.096 242.426C425.735 248.115 420.735 252.449 416.344 256.408C411.953 260.367 407.505 265.504 408.626 271.121C408.968 272.851 409.843 274.474 409.976 276.222C410.071 277.667 409.672 279.093 409.253 280.502C407.961 284.925 406.687 289.33 405.394 293.753C409.71 300.922 414.5 307.842 419.69 314.459C422.256 317.722 424.974 320.968 428.529 323.286C432.084 325.605 436.608 326.889 440.791 325.855C442.654 325.391 444.402 324.464 446.341 324.285C449.022 324.018 451.664 325.213 454.364 325.106C457.519 324.981 460.238 323.144 462.766 321.378C465.294 319.613 468.051 317.794 471.187 317.704C474.343 317.615 477.727 320.183 477.061 323.072C476.909 323.697 476.586 324.339 476.681 324.963C476.89 326.336 478.791 326.818 480.236 326.622C481.7 326.443 483.258 325.926 484.589 326.532C486.395 327.371 486.604 329.76 485.996 331.562C485.178 334.005 483.449 336.074 482.289 338.392C481.129 340.711 480.654 343.653 482.308 345.686C483.163 346.739 484.456 347.398 485.502 348.272C487.27 349.735 488.315 351.786 489.171 353.854C492.839 362.647 493.638 372.438 491.604 381.658C490.71 385.742 487.935 389.059 487.06 392.822C486.091 397.067 489.684 401.811 491.813 405.271C495.045 410.532 496.946 416.506 497.364 422.57C497.516 424.977 497.478 427.51 498.656 429.668C499.55 431.273 501.033 432.521 502.268 433.912C506.964 439.298 507.553 446.771 507.952 453.708C508.941 454.939 510.994 454.939 512.477 454.279C513.978 453.619 515.176 452.478 516.621 451.747C520.271 449.91 524.719 450.873 528.825 450.427C535.897 449.678 542.113 444.185 543.329 437.604C543.672 435.785 543.672 433.859 544.508 432.182C545.763 429.65 548.804 427.938 549.203 425.174C549.356 424.086 549.07 422.944 549.317 421.856C550.116 418.45 555.686 417.38 556.161 413.902C556.389 412.244 555.306 410.71 554.621 409.158C552.568 404.557 554.298 398.743 558.575 395.801C560.172 394.695 562.054 393.981 563.689 392.911C571.559 387.793 571.388 376.682 568.061 368.264C566.768 364.983 565.096 361.666 565.343 358.152C565.495 355.852 566.483 353.658 567.624 351.625C570.513 346.489 574.505 341.905 579.277 338.232C582.394 335.842 585.987 333.684 587.755 330.295C588.839 328.227 589.143 325.872 589.998 323.697C591.557 319.737 594.789 316.634 597.317 313.157C599.96 309.679 601.842 305.22 600.188 301.315ZM554.336 386.848C554.127 388.292 552.397 389.648 551.066 388.899C551.009 385.046 550.135 381.23 549.26 377.467C548.842 375.666 548.405 373.847 547.987 372.045C547.797 371.207 547.512 370.262 546.713 369.852C546.143 369.566 545.402 369.602 544.869 369.245C544.071 368.71 544.128 367.551 543.481 366.856C542.626 365.964 541.01 366.285 539.927 365.643C538.843 365.019 538.596 363.663 538.444 362.486L536.809 349.414C536.752 348.914 536.695 348.361 536.98 347.933C537.303 347.452 537.931 347.256 538.501 347.06C540.934 346.186 542.987 344.42 544.128 342.226C544.603 341.281 544.926 340.283 545.592 339.444C547.968 336.43 551.142 337.322 551.409 340.283C551.789 344.384 550.04 343.867 547.588 345.312C545.706 346.417 542.474 348.272 541.181 350.127C539.223 352.909 540.953 353.694 542.303 356.387C543.539 358.901 542.36 362.272 544.318 364.341C545.592 365.678 547.702 365.928 549.317 366.891C551.846 368.389 552.777 371.439 552.948 374.221C553.119 377.021 552.72 379.875 553.481 382.585C553.861 384.012 554.545 385.403 554.336 386.848Z" fill="#E9EBEA"/>
<path d="M578.822 392.823C577.225 395.569 580.495 398.761 580.229 401.882C579.962 405.093 576.142 407.09 575.343 410.229C575.02 411.513 575.248 412.868 575.571 414.152C576.18 416.614 577.092 419.021 578.29 421.304C578.67 422.035 579.107 422.766 579.734 423.319C581.692 425.031 585.076 424.461 586.977 422.695C588.878 420.929 589.619 418.326 590.019 415.847C590.418 413.35 590.57 410.782 591.634 408.481C593.174 405.11 596.577 402.275 596.387 398.619C596.292 396.8 595.265 395.123 594.828 393.358C594.372 391.574 594.752 389.309 596.539 388.56C596.729 389.719 596.919 390.897 597.109 392.056C602.166 390.576 595.969 374.917 590.475 382.835C588.251 386.063 590.456 388.239 586.008 389.898C583.65 390.79 580.267 390.344 578.822 392.823Z" fill="#E9EBEA"/>
<path d="M962.951 113.716C962.818 113.181 962.361 112.771 961.924 112.397C958.883 109.775 955.499 107.51 951.849 105.709C954.149 105.531 956.525 105.317 958.559 104.282C960.613 103.266 962.247 101.215 961.943 99.0567C961.43 95.3829 955.879 93.2428 956.43 89.5689C956.697 87.9103 958.217 86.2517 957.4 84.7715C956.811 83.7549 955.423 83.4874 954.187 83.3448C947.762 82.5422 941.356 81.7218 934.911 80.9193C935.196 83.2199 934.512 85.7702 932.535 87.1613C930.539 88.5345 927.174 88.0887 926.224 85.9486C925.901 85.1995 925.882 84.3256 925.33 83.6836C924.19 82.3104 921.871 83.1129 920.103 83.7371C916.32 85.1103 912.005 85.1103 908.241 83.7193C907.518 83.4339 906.72 83.0594 906.416 82.3817C905.959 81.3652 906.72 80.2594 906.777 79.1715C906.872 77.2989 904.819 75.8544 902.823 75.676C900.846 75.5155 898.907 76.2646 897.006 76.8531C891.474 78.5295 884.897 78.7614 880.353 75.355C879.004 74.3563 877.901 73.0722 876.437 72.2162C874.384 71.0035 871.875 70.7538 869.48 70.5219C863.282 69.9334 857.085 69.3449 850.888 68.7385C850.299 68.685 849.614 68.6493 849.101 68.9704C848.303 69.5232 848.436 70.6468 848.17 71.5385C847.675 73.2684 845.584 74.178 843.683 74.3028C841.763 74.4276 839.843 73.9996 837.942 74.2136C836.536 74.3563 835.148 74.8557 833.741 74.7665C832.316 74.6951 830.757 73.7499 830.795 72.4302C829.008 73.4824 827.829 75.3728 827.772 77.3525C824.16 77.727 819.617 75.3015 820.415 71.9665C820.624 71.1105 821.157 70.3436 821.252 69.4697C821.727 64.0481 807.432 62.8354 804.2 65.1717C803.326 65.8137 802.641 66.6697 801.805 67.3474C798.288 70.2187 792.015 69.0774 789.886 65.1717C784.829 64.5831 779.696 64.6188 774.621 65.2252C772.568 61.9437 767.207 63.4952 763.785 65.5462C760.364 67.5971 755.364 69.5946 752.76 66.6876C761.409 64.8506 769.602 61.159 776.56 56.0227C777.263 55.5055 778.024 54.81 777.852 53.9717C777.757 53.4011 777.225 52.9909 776.712 52.652C773.499 50.5654 769.564 49.4597 765.648 49.5489C762.797 49.6024 759.394 50.1017 757.588 48.0329C756.466 46.7667 756.333 44.8228 754.965 43.7706C753.653 42.7718 751.771 43.0037 750.117 43.2712C746.448 43.8954 742.76 44.5196 739.073 45.1438C738.502 45.233 737.875 45.3578 737.476 45.7502C736.962 46.2852 737 47.0877 736.943 47.8189C736.62 52.3667 730.518 55.5947 726.203 53.4724C724.853 52.7947 723.713 51.7425 722.249 51.3144C720.405 50.7973 718.428 51.3858 716.603 51.9922C708.98 54.4711 701.357 56.9501 693.734 59.429C695.787 60.7309 698.449 61.159 700.844 60.5704C701.566 61.7653 699.703 62.8354 698.259 63.1207C692.442 64.2621 686.644 65.4035 680.808 66.5271C684.134 68.899 687.366 71.4136 690.446 74.0531C691.947 73.0722 693.354 75.6225 692.784 77.2633C692.232 78.904 691.187 80.9371 692.518 82.0964C690.731 81.5435 689.21 80.2951 688.335 78.7078C689.267 78.0658 690.16 77.4059 691.092 76.7639C689.058 77.1563 686.834 75.9079 686.225 74.0531C682.518 73.3754 678.983 71.8773 675.998 69.7016C675.409 71.0035 676.207 72.7334 677.652 73.2149C676.283 73.3932 674.915 73.5359 673.546 73.6964C674.002 75.6939 675.903 77.3168 678.07 77.5486C675.352 78.2085 672.291 77.6021 670.067 75.9792C672.101 73.1079 669.117 68.5602 665.467 68.9525C667.558 69.22 667.919 72.0378 666.987 73.8213C666.056 75.6225 664.421 77.2276 664.459 79.2072C664.497 81.6327 666.911 84.5575 664.896 86.1091C667.349 88.0352 671.892 84.5397 673.945 86.8046C674.572 87.518 674.648 88.4989 674.915 89.3906C675.713 92.0657 678.831 93.9205 681.739 93.4389C680.066 95.9357 676.074 93.4746 674.249 91.067C672.443 88.6594 668.356 86.2696 666.759 88.8199C666.246 89.6581 666.341 90.6746 666.341 91.6198C666.246 98.5574 657.559 104.068 650.658 101.554C653.281 98.5039 659.46 99.7166 661.475 96.2924C662.292 94.8835 662.064 93.1714 661.817 91.602C660.999 86.4479 660.201 81.3116 659.384 76.1575C659.859 73.7856 660.049 71.3601 659.935 68.9525C657.045 69.8977 652.388 69.7729 652.483 66.9016C650.031 70.7181 647.559 74.5346 645.107 78.3512C643.605 80.6518 642.484 84.2543 645.031 85.467C646.742 84.8072 648.738 86.1626 649.213 87.8568C649.708 89.5332 649.08 91.2988 648.263 92.8682C644.575 83.2913 625.907 87.6963 621.041 78.6008C618.817 79.4034 620.851 82.6314 623.094 83.3983C625.356 84.1651 628.455 85.5205 627.618 87.625C626.991 89.2836 624.558 89.2836 622.695 89.1587C617.315 88.802 611.802 89.9613 607.088 92.4581C606.669 90.6746 606.232 88.909 605.833 87.1613C601.917 89.7651 597.963 92.3689 594.047 94.9905C592.127 96.2567 590.112 97.5586 587.774 97.7905C585.454 98.0045 582.774 96.7026 582.47 94.5268C582.166 92.3511 585.55 90.4428 587.051 92.1192C587.698 88.1243 581.881 84.7893 578.383 87.1613C580.702 90.8351 580.759 95.6861 578.516 99.4134C577.679 100.804 576.406 102.106 574.733 102.356C573.06 102.588 571.121 101.233 571.482 99.6809C569.353 101.447 568.156 104.139 568.308 106.797C564.848 107.849 560.723 106.601 558.575 103.818C558.841 105.37 559.107 106.886 559.373 108.438C556.883 110.952 551.427 109.133 551.18 105.709C551.104 104.692 551.389 103.694 551.389 102.677C551.389 99.2172 548.138 96.6491 545.173 94.5625C549.602 96.1319 554.05 97.7192 558.48 99.2886C560.97 100.18 563.631 101.09 566.236 100.608C570.057 99.9306 572.528 95.0975 569.125 92.6007C563.023 88.1243 555.989 84.7537 548.538 82.7384C546.389 82.1677 544.089 81.6862 541.979 82.3282C540.249 82.8454 537.93 83.8798 536.999 82.4174C538.728 82.6492 540.591 82.025 541.77 80.7945C538.158 80.0454 534.508 79.5639 530.82 79.3856C526.562 82.9346 523.673 87.946 524.908 93.0109C526.809 100.787 537.569 107.314 533.634 114.376C537.341 113.592 541.219 112.825 544.888 113.699C546.865 114.145 548.785 115.25 550.077 116.713C550.058 116.641 550.077 116.552 550.096 116.481C551.199 116.142 552.377 115.785 553.499 116.071C554.621 116.356 555.533 117.587 554.963 118.55C554.583 119.227 553.575 119.78 553.936 120.476C554.164 120.904 554.792 120.975 555.267 121.118C556.636 121.51 557.396 123.169 556.769 124.364C554.811 124.257 552.853 124.167 550.876 124.078C550.21 125.416 549.317 126.7 548.69 128.037C546.047 133.637 547.967 140.058 548.195 146.175C548.29 149.314 547.53 152.809 545.876 155.52C546.275 155.449 546.674 155.359 547.074 155.306C554.468 154.129 562.928 155.877 567.452 161.494C571.977 167.112 570.456 176.761 563.517 179.4C560.875 180.399 557.795 180.363 555.381 181.79C554.393 182.343 553.67 183.341 553.328 184.394C557.814 182.004 562.434 179.721 567.509 178.829C566.388 181.076 564.183 182.789 561.635 183.377C562.491 183.894 562.206 185.232 561.35 185.749C560.495 186.266 559.392 186.177 558.404 185.981C557.415 185.785 556.369 185.553 555.4 185.785C554.545 185.981 553.86 186.605 553.518 187.372C553.347 187.711 553.271 188.085 553.271 188.46C553.271 188.727 553.328 188.959 553.404 189.209C555.989 187.176 560.095 187.122 562.738 189.102C563.745 189.869 564.544 190.867 565.627 191.545C566.825 192.294 568.384 192.633 569.296 193.703C570.19 194.773 569.562 196.931 568.156 196.646C568.099 197.323 568.859 197.805 569.543 197.93C570.247 198.055 571.007 198.001 571.634 198.304C573.098 199.018 572.832 201.229 571.558 202.21C570.285 203.173 568.498 203.262 566.844 203.262C562.529 203.316 558.042 203.351 554.088 201.711C552.225 200.944 550.552 199.802 548.613 199.16C546.694 198.518 544.374 198.465 542.816 199.695C542.093 200.266 541.599 201.086 540.896 201.711C539.223 203.227 536.371 203.423 534.47 202.157C532.911 201.104 532.151 199.125 532.512 197.359C530.725 199.053 529.186 201.033 528.083 203.155C529.033 205.688 529.984 208.238 530.934 210.77C531.258 211.591 531.543 212.411 531.866 213.214C532.778 215.693 534.28 218.6 537.056 218.76C540.572 218.974 544.108 214.48 546.903 218.546C547.435 219.331 547.606 220.258 547.606 221.203C547.587 223.04 550.286 225.359 551.731 223.914C551.56 222.595 551.408 221.168 552.054 219.973C552.701 218.796 554.488 218.047 555.609 218.885C556.37 219.438 556.522 220.454 556.579 221.346C556.655 222.666 556.579 224.021 556.389 225.323C555.951 228.462 554.621 231.726 551.807 233.402C549.602 234.704 546.427 235.649 548.233 238.431C548.652 239.038 550.324 238.342 550.8 238.931C551.845 240.304 551.123 241.749 551.256 243.371C551.541 246.813 555.704 248.543 557.985 251.272C561.141 255.017 560.476 260.385 562.034 264.933C565.209 274.243 577.717 280.217 577.014 289.972C576.729 293.771 574.752 298.515 578.079 300.709C580.303 302.153 583.344 301.137 585.816 300.049C590.416 298.051 595.035 296.036 599.674 294.021C601.556 293.218 603.552 292.291 604.521 290.561C605.016 289.651 605.187 288.599 605.89 287.814C606.917 286.673 608.703 286.512 610.205 286.049C613.608 284.979 615.889 281.965 617.6 278.986C619.444 275.758 620.889 272.334 621.915 268.785C622.181 267.858 622.429 266.859 622.181 265.914C621.288 262.472 614.844 262.133 614.52 258.602C614.387 257.122 615.49 255.802 616.003 254.411C616.516 253.002 615.946 250.933 614.368 250.951C613.418 253.573 612.391 256.301 610.281 258.227C608.152 260.153 604.559 260.974 602.24 259.28C600.51 258.031 599.94 255.855 598.761 254.143C596.974 251.486 593.705 249.881 592.146 247.117C590.587 244.335 592.868 239.662 595.967 240.857C597.488 246.118 601.328 250.737 606.403 253.376C609.54 252.378 612.562 251.04 615.395 249.382C616.802 248.329 618.665 250.309 618.817 251.985C618.969 253.68 618.684 255.748 620.147 256.729C620.889 257.247 621.896 257.282 622.828 257.282C630.451 257.282 638.036 256.462 645.449 254.821C643.929 258.976 648.016 263.97 652.673 263.649C652.103 265.343 650.297 266.609 648.396 266.627C649.308 268.304 650.278 270.051 651.913 271.175C653.548 272.281 656.019 272.53 657.445 271.211C658.794 269.98 658.965 267.68 660.714 267.002C662.748 266.199 664.763 268.589 664.592 270.658C664.421 272.709 663.052 274.474 662.311 276.436C660.828 280.413 662.216 284.783 663.566 288.795C666.208 296.535 668.945 304.472 674.363 310.838C676.302 309.126 678.26 307.414 680.199 305.702C682.823 306.13 682.918 309.661 682.081 312.015C681.226 314.405 680.446 317.598 682.728 318.899C684.781 320.059 687.518 318.204 687.974 316.01C688.43 313.817 687.366 311.641 686.32 309.626C684.971 307.058 683.64 304.454 682.309 301.868C681.853 300.976 681.359 300.031 681.454 299.032C681.53 298.176 681.967 297.409 682.347 296.624C683.545 294.11 683.925 291.239 683.393 288.528C690.522 285.121 696.491 279.611 700.178 272.923C700.749 271.924 701.281 270.872 702.251 270.194C705.178 268.197 710.102 270.997 712.687 268.625C716.299 269.891 719.34 272.477 721.051 275.723C722.306 278.095 723.465 281.251 726.279 281.448C721.964 283.106 719.055 287.493 719.378 291.845C723.713 292.879 728.503 289.027 728.066 284.854C729.758 283.944 732.001 285.05 732.913 286.673C733.807 288.296 733.712 290.222 733.598 292.041C733.275 297.552 732.913 303.045 732.59 308.52C732.495 310.161 732.419 311.926 733.389 313.282C734.301 314.566 736.031 315.279 736.658 316.706C737.609 318.81 735.708 321.468 736.943 323.447C737.609 324.499 738.92 324.963 739.928 325.694C742.095 327.246 742.817 329.992 744.376 332.097C745.935 334.201 749.547 335.575 751.239 333.559C747.627 330.902 745.327 326.764 745.08 322.448C745.023 321.468 745.061 320.433 744.623 319.542C744.091 318.418 742.951 317.687 741.981 316.866C736.335 312.015 737.019 303.633 738.179 296.518C740.802 300.12 745.004 302.67 749.604 303.419C748.121 306.273 749.414 310.089 752.341 311.659C752.531 308.859 754.775 306.308 757.645 305.577C758.9 305.256 760.23 305.238 761.409 304.757C764.945 303.33 765.325 298.836 765.154 295.233C765.097 293.807 765.002 292.326 764.184 291.149C762.816 289.205 760.059 288.742 757.892 287.6C754.014 285.549 752.113 280.699 753.691 276.757C755.231 272.834 760.04 270.319 764.413 271.139C765.857 271.728 765.211 273.886 763.956 274.778C762.702 275.669 760.972 276.204 760.383 277.578C759.546 279.486 762.017 281.608 764.165 281.162C766.314 280.734 767.682 278.612 767.834 276.543C767.967 274.492 767.169 272.495 766.371 270.551C770.99 271.496 776.085 269.98 779.259 266.699C780.153 265.771 780.951 264.701 782.111 264.077C784.354 262.846 787.567 263.524 789.41 261.776C790.817 260.457 790.722 258.334 791.159 256.497C791.977 253.091 794.771 250.487 796.425 247.384C798.06 244.281 799.676 239.501 798.801 236.077C798.174 233.58 796.786 231.316 795.836 228.926C795.151 227.231 794.695 225.466 794.448 223.647C794.353 222.916 794.277 222.095 794.638 221.453C795.285 220.276 796.881 220.009 798.079 219.313C799.866 218.279 800.797 216.121 800.265 214.23C795.322 215.782 789.544 214.605 785.742 211.27C786.844 209.272 789.277 208.345 791.388 207.275C793.517 206.223 795.722 204.511 795.627 202.246C796.976 202.246 798.307 202.246 799.638 202.228C799.733 204.279 798.706 206.365 796.976 207.632C798.801 209.112 801.558 207.703 803.706 206.651C805.854 205.599 809.447 205.599 809.713 207.846C809.96 210.021 806.462 211.484 806.937 213.624C809.39 212.839 812.032 215.925 810.701 218.011C810.34 218.564 809.751 219.117 809.846 219.777C809.96 220.579 810.968 220.882 811.709 221.275C813.781 222.309 814.693 224.984 813.629 226.946C815.074 225.894 816.518 224.842 817.963 223.772C818.286 225.02 819.788 225.858 821.138 225.573C822.468 225.27 823.4 223.879 823.096 222.63C822.811 221.4 821.594 220.544 821.195 219.349C820.605 217.547 821.955 215.55 821.29 213.784C820.777 212.393 819.199 211.662 817.906 210.788C816.632 209.914 815.473 208.345 816.252 207.043C816.708 206.241 817.716 205.92 818.533 205.456C822.602 203.084 823.476 196.325 828.266 196.182C829.236 196.146 830.186 196.432 831.118 196.307C833.836 195.95 834.787 192.847 836.079 190.546C838.912 185.446 845.489 182.967 848.474 177.92C850.755 174.05 850.489 169.324 851.839 165.061C852.827 161.976 854.69 158.766 853.53 155.716C852.105 151.917 845.565 151.168 843.208 154.539C843.588 152.631 843.969 150.74 844.368 148.814C842.942 153.13 833.437 149.242 841.706 145.016C847.219 142.216 852.162 138.363 856.135 133.798C857.484 132.246 858.758 130.588 860.526 129.464C867.027 125.344 875.981 130.445 883.585 128.662C883.851 129.357 884.098 130.07 884.364 130.766C882.311 131.569 880.296 132.371 878.262 133.174C882.558 135.064 887.178 130.588 891.911 130.766C893.299 130.82 895.295 130.82 895.371 129.553C894.097 129.375 892.443 128.715 892.672 127.52C892.748 127.092 893.09 126.735 893.413 126.432C894.649 125.202 895.884 123.989 897.139 122.758C899.211 120.707 902.576 118.514 904.952 120.297C906.739 121.653 905.921 124.916 903.659 125.362C905.142 126.753 907.651 125.487 909.134 124.078C910.617 122.687 912.518 121.011 914.495 121.724C915.046 120.69 915.046 119.423 914.533 118.407C916.111 117.587 918.05 117.39 919.78 117.89C918.734 118.71 918.012 119.923 917.802 121.189C917.65 122.009 917.727 122.865 917.46 123.65C916.51 126.611 912.29 126.949 909.305 128.323C904.058 130.713 902.215 137.026 897.5 140.218C896.34 141.021 895.029 141.609 894.059 142.608C891.987 144.766 892.253 148.119 893.204 150.883C894.192 153.647 895.789 156.305 895.96 159.194C895.998 159.747 895.979 160.282 895.922 160.817C895.713 162.743 898.241 163.831 899.686 162.457C900.028 162.119 900.39 161.78 900.732 161.459C902.405 159.836 904.153 158.159 905.009 156.055C905.598 154.557 905.864 152.738 907.328 151.953C908.412 151.382 909.761 151.632 910.978 151.418C912.214 151.24 913.525 150.063 912.898 149.028C910.883 147.691 911.244 144.302 913.468 143.321C914.4 143.732 915.331 144.142 916.263 144.57C918.468 143.625 915.141 140.218 916.339 138.239C916.795 137.472 917.917 137.008 917.879 136.134C917.841 135.046 916.206 134.85 915.046 135.028C914.286 131.479 916.89 127.609 920.616 126.735C920.54 127.467 920.483 128.216 920.426 128.947C922.27 127.859 924.114 126.771 925.958 125.648C926.281 126.486 926.604 127.324 926.927 128.198C929.132 129.268 930.862 124.542 933.162 125.416C933.657 125.612 933.999 126.04 934.417 126.343C936.071 127.609 939.017 126.646 939.474 124.685C941.185 117.283 950.766 116.944 958.788 116.32C960.822 116.195 963.388 115.429 962.951 113.716ZM608.399 203.976C607.05 205.117 605.111 205.42 603.305 205.153C602.867 205.492 603.191 206.205 603.666 206.472C604.141 206.758 604.749 206.829 605.168 207.204C605.909 207.881 605.624 209.023 605.738 209.986C605.947 211.537 607.373 212.732 607.753 214.248C608.437 216.977 605.301 219.491 602.297 219.509C596.043 219.563 591.652 214.801 590.036 209.683C589.104 206.758 587.317 198.821 592.108 198.376C590.663 196.592 592.184 194.63 591.271 192.722C590.777 191.688 589.542 191.188 588.705 190.368C587.051 188.709 587.298 185.927 588.705 184.073C590.112 182.218 592.374 181.13 594.636 180.292C596.841 179.489 599.351 178.865 601.518 179.703C603.704 180.541 605.035 183.466 603.4 185.071C601.632 186.801 598.02 185.803 596.423 187.675C595.416 188.834 595.758 190.653 596.765 191.813C597.792 192.972 599.332 193.614 600.814 194.149C601.651 194.452 602.544 194.827 602.867 195.576C603.381 196.717 602.335 197.876 601.67 198.929C601.023 199.999 601.157 201.871 602.468 201.871C603.742 201.853 603.951 200.159 604.654 199.16C605.643 197.751 608.228 197.983 609.236 199.392C610.262 200.819 609.73 202.852 608.399 203.976ZM764.489 149.438C764.203 149.956 763.861 150.473 763.671 151.026C763.481 151.65 763.481 152.328 763.31 152.952C762.816 154.824 760.972 156.037 759.299 157.179C758.139 157.963 756.98 158.837 756.295 159.996C756.01 160.478 755.82 161.013 755.497 161.494C753.843 164.098 748.92 164.633 752.018 160.995C753.938 158.73 756.79 155.413 759.166 153.451C759.983 152.773 760.972 152.221 761.523 151.347C762.417 149.92 761.922 148.119 761.979 146.46C762.036 144.802 763.367 142.822 765.078 143.286C765.705 145.301 765.496 147.548 764.489 149.438ZM551.883 120.636C551.902 120.815 551.902 120.975 551.883 121.171C551.826 121.813 551.693 122.42 551.465 123.008C551.731 123.026 551.978 123.026 552.187 123.008C552.568 122.206 552.32 121.439 551.883 120.636ZM538.9 160.21C542.055 159.996 544.412 158.124 545.99 155.538C542.987 156.215 540.04 157.589 538.9 160.21Z" fill="#E9EBEA"/>
<path d="M563.612 179.436C560.97 180.434 557.89 180.399 555.476 181.825C554.488 182.378 553.765 183.377 553.423 184.429C553.024 184.625 552.625 184.857 552.226 185.053C545.211 188.799 547.834 180.559 541.276 180.613C534.87 180.666 536.714 190.725 533.862 189.833C533.14 191.367 534.318 193.186 533.805 194.791C533.615 195.344 533.254 195.843 532.988 196.36C532.817 196.681 532.702 197.038 532.645 197.395C530.858 199.089 529.319 201.069 528.216 203.191C528.14 202.959 528.045 202.745 527.969 202.513C526.41 201.069 523.54 202.602 523.046 204.6C522.551 206.597 523.483 208.648 524.11 210.61C524.737 212.572 524.965 214.979 523.388 216.424C522.57 217.191 521.24 217.726 522.418 219.474C522.836 220.116 523.673 220.365 524.471 220.258C526.163 220.026 527.608 222.969 525.954 223.058C522.893 223.397 520.65 220.383 519.681 217.637C518.73 214.89 518.065 211.698 515.499 210.111C514.244 209.326 512.514 208.951 511.906 207.667C510.879 205.492 513.864 202.959 512.761 200.819C511.678 198.732 508.047 199.499 506.184 197.948C504.606 196.628 504.815 194.078 503.294 192.722C502.515 192.027 501.431 191.759 500.443 191.402C497.287 190.261 494.683 187.889 493.352 184.982C491.546 185.285 491.812 187.818 492.668 189.352C495.995 195.183 501.279 200.016 507.591 202.995C505.537 203.958 504.53 206.151 503.694 208.167C502.42 211.163 501.146 214.177 499.892 217.191C497.972 216.977 495.957 216.709 494.398 215.621C492.858 214.533 492.022 212.304 493.162 210.842C495.272 212.768 499.359 212.072 500.633 209.593C501.888 207.079 499.911 203.69 496.983 203.369C498.219 200.088 494.284 197.216 490.824 195.986C487.364 194.755 483.125 193.186 482.707 189.744C481.129 188.424 478.582 189.084 476.871 190.243C475.16 191.42 473.734 193.025 471.719 193.667C469.723 194.309 466.872 193.239 467.005 191.242C465.978 192.08 464.952 192.918 463.906 193.757C466.244 194.381 464.914 197.912 462.765 198.946C460.598 199.981 457.652 200.623 457.12 202.87C456.91 203.762 457.196 204.689 457.177 205.634C457.158 207.043 456.454 208.363 455.789 209.629C454.097 212.732 451.911 216.192 448.261 216.834C446.113 217.209 442.843 217.423 443.147 219.438C440.049 216.905 435.734 215.746 431.684 216.353C431.932 214.569 432.179 212.804 432.407 211.038C431.019 210.842 429.593 210.646 428.206 210.467C430.373 207.667 431.152 203.94 430.278 200.569C429.802 198.679 429.213 196.022 431.152 195.362C430.107 194.488 429.346 193.311 428.966 192.045C431.875 190.85 435.258 190.725 438.3 191.67C439.612 192.08 440.866 192.687 442.197 193.061C445.961 194.113 450.485 192.936 452.633 189.887C454.8 186.819 453.888 182.039 450.447 180.274C448.641 179.347 446.436 179.275 444.668 178.276C442.919 177.278 442.007 174.531 443.775 173.55C445.219 175.619 448.546 176.261 450.732 174.906C449.706 173.247 449.25 171.303 449.459 169.395C451.074 168.771 453.146 170.198 452.956 171.838C455.808 171.892 458.602 170.055 459.515 167.522C459.857 166.649 459.971 165.685 460.636 164.972C461.492 164.027 462.994 163.884 464.248 163.438C467.347 162.35 469.172 158.801 468.164 155.877C472.156 154.147 476.605 153.362 480.977 153.594C479.437 150.919 477.84 148.047 477.992 144.998C478.144 141.948 480.787 138.809 484.018 139.095C484.513 140.878 484.475 142.768 483.942 144.552C484.893 144.748 485.824 144.944 486.775 145.14C484.722 146.728 482.65 149.813 484.779 151.293C486.471 152.47 488.904 150.954 490.976 151.365C491.927 151.543 492.744 152.149 493.675 152.345C497.877 153.326 501.964 146.835 505.518 149.171C506.716 149.956 507.191 151.543 509.244 151.311C510.366 151.168 511.354 150.509 511.906 149.563C513.084 147.637 512.704 145.426 512.932 143.303C513.141 141.467 514.073 139.416 515.993 138.934C518.084 138.399 520.099 140.022 522.266 140.236C525.916 140.628 528.767 135.938 526.562 133.191C523.806 135.171 520.27 136.152 516.791 135.884C515.765 134.208 517.913 132.371 519.776 131.586C526.239 128.893 533.577 128.055 540.534 129.25C541.789 128.162 539.983 126.45 538.462 125.755C536.942 125.077 535.231 123.24 536.542 122.241C531.961 120.511 527.931 126.539 522.969 126.771C517.894 127.003 514.947 120.636 516.829 116.213C518.73 111.79 523.426 109.097 527.836 106.725C524.927 102.427 517.305 102.089 513.978 106.101C514.396 109.383 512.989 112.807 510.328 114.965C507.591 117.176 503.104 119.209 504.036 122.491C504.853 125.38 509.758 126.771 509.092 129.696C508.503 132.389 503.789 132.425 502.667 134.975C501.869 136.83 503.408 139.112 502.458 140.896C501.488 142.697 498.751 142.768 497.021 143.981C495.842 144.802 495.177 146.121 494.094 147.049C492.991 147.976 491.014 148.333 490.216 147.156C489.436 145.996 490.463 144.588 491.033 143.321C492.763 139.594 490.273 135.439 487.858 132.068C482.973 131.693 480.445 140.361 475.901 138.595C474.628 138.096 473.867 136.883 473.221 135.724C471.434 132.603 469.609 129.428 468.925 125.933C468.259 122.437 468.906 118.532 471.51 115.981C474.989 112.575 480.825 112.379 484.684 109.383C488.999 106.03 490.064 99.8058 494.702 96.8631C497.477 95.0975 501.736 94.1523 502.059 91.0135C498.998 91.2453 495.938 91.4772 492.877 91.709C494.265 89.3014 497.591 88.053 500.348 88.8912C499.207 86.5906 502.04 84.0938 504.758 83.7371C507.476 83.3983 510.309 84.1295 512.913 83.3983C515.042 82.7919 516.734 81.3117 518.787 80.4735C520.555 79.7601 522.513 79.5817 524.433 79.4926C526.6 79.4034 528.767 79.4034 530.935 79.4926C526.676 83.0416 523.787 88.053 525.023 93.1179C526.923 100.894 537.683 107.421 533.748 114.483C537.455 113.699 541.333 112.932 545.002 113.806C546.979 114.252 548.899 115.357 550.191 116.82C550.001 118.175 551.18 119.459 551.864 120.725C551.883 120.904 551.883 121.064 551.864 121.26C551.807 121.902 551.674 122.509 551.446 123.097C548.252 122.99 540.763 121.546 544.355 126.45C545.952 124.667 546.694 125.808 548.538 125.63C549.298 125.558 550.02 124.809 549.735 124.132C550.153 124.15 550.572 124.167 550.99 124.185C550.324 125.523 549.431 126.807 548.804 128.144C546.161 133.744 548.081 140.165 548.31 146.282C548.405 149.421 547.644 152.916 545.99 155.627C546.39 155.556 546.789 155.466 547.188 155.413C554.583 154.236 563.042 155.984 567.566 161.601C572.072 167.13 570.57 176.796 563.612 179.436Z" fill="#E9EBEA"/>
<path d="M425.432 152.631C425.413 154.361 427.2 155.912 426.706 157.589C426.212 159.23 423.74 159.979 423.626 161.691C423.512 163.599 426.326 164.277 428.322 163.902C432.01 163.207 435.355 161.102 437.465 158.177C438.492 156.751 438.891 154.29 437.161 153.719C439.537 152.934 441.914 152.149 444.29 151.365C446.153 152.863 448.168 155.377 446.628 157.161C445.64 158.32 443.301 159.123 444.005 160.442C444.29 160.977 445.05 161.263 445.183 161.851C445.316 162.475 444.689 162.993 444.176 163.403C441.933 165.168 440.602 167.933 440.678 170.697C444.062 167.772 448.7 166.167 453.301 166.363C454.384 166.399 455.582 166.506 456.399 165.864C457.217 165.204 456.855 163.528 455.791 163.688C457.083 162.814 458.357 161.958 459.65 161.084C459.935 160.888 460.239 160.674 460.391 160.371C460.714 159.658 459.973 158.855 459.175 158.605C458.376 158.356 457.502 158.391 456.741 158.053C455.068 157.321 454.783 155.253 454.194 153.594C453.624 151.935 451.552 150.277 450.126 151.383C450.487 149.795 450.829 148.083 450.164 146.603C449.499 145.105 447.369 144.088 445.982 145.051C445.183 143.928 447.046 142.893 448.016 141.913C449.08 140.843 449.061 138.97 447.959 137.918C446.856 136.883 444.822 136.883 443.739 137.936C443.891 134.886 444.575 131.123 447.693 130.178C448.548 129.928 449.48 129.946 450.316 129.66C451.171 129.393 451.97 128.662 451.837 127.823C451.989 128.804 453.662 128.84 454.289 128.055C454.916 127.271 454.783 126.183 454.612 125.202C452.198 124.56 451.152 128.376 448.757 129.09C447.655 129.429 446.4 129.036 445.335 129.446C442.807 130.445 443.491 134.85 440.849 135.546C440.222 135.706 439.537 135.599 438.929 135.831C437.732 136.313 437.598 137.882 437.884 139.077C438.169 140.272 438.701 141.574 438.131 142.679C437.827 143.286 437.199 143.892 437.446 144.534C437.77 145.372 439.081 145.141 439.975 145.444C442.237 146.193 441.001 148.69 439.823 149.67C438.359 150.901 435.888 150.58 434.158 150.348C431.61 150.045 425.451 147.923 425.432 152.631Z" fill="#E9EBEA"/>
<path d="M481.965 202.246C481.661 202.014 481.357 201.764 481.053 201.532C482.003 201.318 482.65 200.391 482.707 199.464C482.764 198.536 482.346 197.645 481.794 196.896C481.129 195.986 479.988 195.112 478.886 195.487C477.46 195.95 477.441 197.823 477.916 199.16C478.392 200.498 479.057 202.05 478.202 203.191C478.734 203.066 479.323 203.227 479.703 203.601C477.65 204.85 477.156 208.791 480.198 209.023C483.239 209.255 483.828 205.599 480.768 204.921C480.806 204.743 482.003 202.264 481.965 202.246Z" fill="#E9EBEA"/>
<path d="M826.632 233.135C826.803 231.601 826.974 229.8 828.362 228.961C828.799 230.031 829.635 230.941 830.681 231.53C831.631 231.012 832.145 230.031 832.696 229.158C833.247 228.266 834.008 227.356 835.072 227.196C836.137 227.035 837.372 228.159 836.802 229.033C839.615 230.067 841.478 226.233 844.102 224.788C845.489 224.039 847.143 223.968 848.702 223.611C850.242 223.237 851.877 222.309 852.105 220.829C852.238 219.955 851.839 219.099 851.801 218.225C851.744 216.353 853.265 214.837 854.234 213.196C855.945 210.36 856.021 206.704 854.443 203.815C853.588 202.246 852.257 200.855 851.839 199.143C851.421 197.413 852.485 195.166 854.367 195.201C854.88 196.699 855.584 198.394 857.162 198.946C858.739 199.517 860.849 197.627 859.709 196.467C861.477 196.004 863.34 195.861 865.165 196.022C865.944 194.951 865.754 193.382 864.746 192.49C870.525 190.6 875.487 186.873 879.308 182.378C874.042 185.446 868.777 188.513 863.511 191.581C862.883 191.938 862.142 192.312 861.458 192.08C860.83 191.848 860.526 191.206 860.222 190.653C858.796 188.157 855.831 186.516 852.808 186.569C853.055 188.924 853.302 191.295 853.55 193.65C851.763 193.346 850.128 194.934 849.71 196.592C849.291 198.251 849.71 199.999 849.862 201.693C850.394 207.685 847.371 213.838 842.182 217.369C842.163 216.406 842.144 215.425 842.125 214.462C839.387 214.837 840.642 219.634 838.171 220.829C837.467 221.168 836.65 221.096 835.871 221.168C831.993 221.542 832.069 225.288 827.886 223.789C827.468 228.551 821.024 227.713 821.48 232.51C821.86 236.577 825.928 239.68 826.632 233.135Z" fill="#E9EBEA"/>
<path d="M860.565 157.732C860.641 158.07 860.698 158.427 860.641 158.784C860.527 159.444 859.976 159.979 859.786 160.621C859.443 161.744 860.204 162.903 861.116 163.724C862.01 164.526 863.112 165.222 863.683 166.256C864.652 167.986 863.968 170.376 865.337 171.838C864.899 172.837 863.283 172.534 862.352 171.91C861.421 171.286 860.261 170.465 859.253 170.982C858.056 172.587 858.721 174.799 859.672 176.547C860.603 178.294 861.82 180.078 861.649 182.022C861.554 182.931 860.812 184.001 859.862 183.787C859.501 183.698 859.196 183.448 858.93 183.199C857.638 182.04 856.288 180.738 856.041 179.079C855.87 177.866 856.326 176.671 856.649 175.494C857.314 173.069 857.448 170.501 857.029 168.022C856.858 166.952 856.573 165.9 856.611 164.812C856.687 162.814 857.809 160.585 856.573 158.962C856.193 158.463 855.566 157.892 855.851 157.321C856.383 156.305 858.74 154.379 859.577 153.576C860.109 154.896 860.299 156.34 860.565 157.732Z" fill="#E9EBEA"/>
<path d="M726.242 326.622C727.972 327.817 730.139 328.691 731.165 330.474C731.945 331.847 731.945 333.649 733.161 334.736C733.808 335.307 734.72 335.592 735.367 336.145C736.906 337.483 736.564 339.801 737.306 341.638C738.351 344.242 741.583 345.776 742.191 348.504C742.4 349.432 742.286 350.431 742.704 351.304C743.522 352.945 745.879 353.284 747.191 354.622C747.837 355.281 748.198 356.138 748.749 356.851C750.327 358.902 753.597 359.597 755.954 358.385C755.118 357.172 754.643 355.745 754.604 354.318C754.585 353.462 754.719 352.606 754.528 351.768C754.11 349.753 752.057 348.344 751.487 346.347C752.456 345.687 753.711 346.65 754.433 347.541C755.156 348.433 756.353 349.45 757.361 348.843C755.536 346.596 753.445 344.545 751.145 342.726C751.335 343.547 750.156 344.135 749.32 343.85C748.483 343.564 747.989 342.78 747.552 342.066C747.229 341.513 746.887 340.925 746.944 340.301C747.001 339.784 747.324 339.32 747.419 338.803C747.628 337.715 746.791 336.698 745.86 336.056C744.909 335.414 743.807 334.968 742.99 334.184C741.355 332.632 741.07 329.921 739.016 328.887C738.028 328.387 736.849 328.387 735.842 327.924C732.762 326.444 732.154 322.163 728.637 320.844C723.676 318.953 722.611 324.107 726.242 326.622Z" fill="#E9EBEA"/>
<path d="M757.132 359.062C756.39 360.025 755.668 360.988 754.927 361.952C754.775 362.166 754.604 362.38 754.604 362.647C754.604 363.36 755.706 363.467 756.448 363.378C758.843 363.075 761.276 363.182 763.633 363.717C767.587 364.609 771.351 366.678 775.4 366.428C776.009 366.392 776.636 366.303 777.244 366.392C777.91 366.481 778.499 366.785 779.145 366.945C780.628 367.355 782.282 367.123 783.574 366.339C782.491 365.358 780.78 365.429 779.259 365.322C777.738 365.215 775.952 364.573 775.761 363.146C775.704 362.772 775.799 362.362 775.685 361.987C775.457 361.185 774.488 360.792 773.613 360.739C772.739 360.685 771.845 360.881 770.99 360.721C769.545 360.453 768.424 359.205 766.998 359.009C765.534 358.813 764.907 359.865 763.728 359.918C761.314 360.008 759.394 356.084 757.132 359.062Z" fill="#E9EBEA"/>
<path d="M791.464 367.123C792.738 367.141 793.992 368.086 795.171 367.676C795.475 367.569 795.741 367.391 796.064 367.355C796.464 367.32 796.825 367.551 797.186 367.694C800.684 369.21 804.695 364.894 808.288 366.196C807.451 369.388 802.946 370.405 801.178 373.241C804.22 372.83 807.109 371.368 809.143 369.192C809.694 368.604 810.208 367.962 810.911 367.534C811.31 367.284 811.767 367.141 812.185 366.892C813.135 366.321 813.705 365.233 813.629 364.181C812.584 364.163 811.538 364.395 810.626 364.876C809.942 365.233 809.333 365.715 808.573 365.875C807.318 366.143 806.083 365.465 804.809 365.304C802.129 364.948 799.524 367.569 797.091 367.141C796.121 366.963 795.627 365.946 794.411 365.661C793.422 365.429 791.844 365.822 790.723 365.679C789.468 365.518 786.883 364.323 785.932 365.572C783.138 369.246 790.78 367.106 791.464 367.123Z" fill="#E9EBEA"/>
<path d="M790.779 370.636C791.312 370.066 792.357 370.422 792.89 370.993C793.422 371.564 793.764 372.313 794.448 372.723C795.133 373.115 796.102 373.044 796.711 372.527C797.072 372.224 797.281 371.724 797.11 371.314C796.92 370.886 796.425 370.69 795.969 370.547C795.532 370.405 795.076 370.244 794.638 370.101C793.859 369.852 793.042 369.584 792.224 369.691C791.407 369.798 790.589 370.387 790.589 371.172" fill="#E9EBEA"/>
<path d="M768.955 348.486C767.492 348.629 765.553 348.754 764.982 347.47C764.64 346.721 765.02 345.865 765.039 345.044C765.077 343.707 764.165 342.53 763.5 341.353C762.34 339.266 761.941 336.841 762.34 334.522C762.435 333.934 762.606 333.327 763.043 332.899C763.329 332.632 763.69 332.453 764.032 332.275C765.401 331.597 766.769 330.92 768.138 330.26C769.925 329.386 771.731 328.494 773.404 327.442C777.605 324.802 781.046 321.111 783.251 316.848C784.011 316.082 785.437 316.795 785.95 317.74C786.463 318.668 786.597 319.809 787.376 320.558C788.593 321.699 791.235 321.949 791.026 323.554C790.95 324.178 790.379 324.642 789.904 325.106C788.269 326.729 787.585 329.154 788.174 331.312C788.764 333.47 790.57 335.307 792.832 336.002C790.76 336.181 788.098 336.948 788.098 338.892C788.098 340.122 789.258 341.406 788.536 342.441C787.794 343.511 785.798 343.011 784.905 343.974C784.201 344.759 784.639 345.936 784.791 346.953C785.171 349.503 783.061 352.125 780.361 352.517C779.221 352.677 777.89 352.392 777.32 351.447C777.016 350.947 776.978 350.359 776.73 349.842C775.742 347.755 774.24 349.004 772.776 348.986C771.75 348.968 770.324 348.344 768.955 348.486Z" fill="#E9EBEA"/>
<path d="M809.296 333.542C809.543 333.47 809.771 333.381 810.018 333.31C809.505 332.989 808.802 333.096 808.288 333.435C807.775 333.773 807.433 334.255 807.015 334.701C805.589 336.199 803.384 337.019 801.255 336.841C799.905 336.734 798.574 336.252 797.244 336.484C795.628 336.77 794.392 338.143 793.917 339.623C793.67 340.372 793.898 341.514 794.734 341.442C795.191 340.105 796.483 339.124 797.909 338.696C799.335 338.268 800.875 338.339 802.357 338.589C803.517 338.785 804.676 339.088 805.836 338.945C806.996 338.803 808.193 338.054 808.326 336.966C808.421 336.181 807.984 335.325 808.345 334.594C808.669 333.97 809.543 333.417 809.201 332.793C808.821 332.864 809.676 333.47 809.296 333.542Z" fill="#E9EBEA"/>
<path d="M791.426 351.162C791.959 353.427 793.08 355.781 792.206 357.939C793.175 358.349 794.335 357.582 794.658 356.637C794.981 355.692 794.734 354.657 794.487 353.694C794.24 352.731 793.993 351.697 794.354 350.751C794.43 350.537 794.582 350.306 794.829 350.252C794.943 350.234 795.076 350.252 795.19 350.288C796.502 350.644 797.395 351.804 797.814 353.034C798.232 354.247 798.251 355.549 798.441 356.815C798.555 357.6 798.783 358.474 799.506 358.902C800.665 359.633 802.319 358.652 802.756 357.404C803.193 356.155 802.832 354.8 802.661 353.498C802.395 351.697 802.262 349.521 800.551 348.629C799.848 348.273 798.878 348.112 798.65 347.381C798.384 346.525 799.467 345.847 800.38 345.597C801.216 345.366 802.072 345.205 802.946 345.098C803.973 344.973 805.322 344.706 805.418 343.743C805.532 342.726 804.163 342.227 803.098 342.066C801.825 341.87 800.513 341.656 799.22 341.817C797.928 341.977 796.635 342.548 795.951 343.582C795.799 343.796 795.666 344.064 795.418 344.153C795.057 344.295 794.658 344.046 794.449 343.743C794.24 343.439 794.126 343.083 793.898 342.797C791.084 339.587 791.217 350.288 791.426 351.162Z" fill="#E9EBEA"/>
<path d="M814.617 348.914C813.191 348.593 811.69 348.629 810.302 349.004C810.055 349.075 809.751 349.2 809.732 349.449C809.713 349.717 810.036 349.877 810.302 349.931C811.652 350.27 813.134 350.127 814.37 349.539C814.18 349.021 813.458 348.754 812.944 349.004" fill="#E9EBEA"/>
<path d="M820.7 348.201C819.997 347.862 819.065 347.951 818.457 348.433C817.849 348.915 817.583 349.753 817.83 350.466C819.255 350.805 820.681 349.236 822.031 349.753C822.924 350.092 823.362 351.233 824.331 351.286C825.148 351.322 825.719 350.252 825.205 349.664C824.768 349.164 823.932 349.164 823.4 348.754C822.43 348.005 823.038 346.543 823.685 345.544C822.601 345.33 821.803 346.507 821.651 347.541C821.594 347.987 821.575 348.469 821.365 348.879C821.137 349.289 820.605 349.592 820.168 349.396" fill="#E9EBEA"/>
<path d="M814.674 341.959C814.655 342.334 814.655 342.709 814.826 343.047C814.997 343.368 815.434 343.618 815.795 343.458C816.061 343.351 816.213 343.065 816.308 342.816C816.67 341.995 817.05 341.032 816.632 340.23C816.442 339.873 816.118 339.57 815.966 339.195C815.548 338.054 817.012 337.447 817.943 337.537C817.715 336.092 816.423 337.109 816.423 335.557C816.423 335.325 819.293 334.291 816.898 333.916C813.799 333.399 814.75 340.051 814.674 341.959Z" fill="#E9EBEA"/>
<path d="M827.6 340.176C826.155 340.283 824.577 340.247 823.456 339.391C822.391 340.229 823.094 341.959 824.273 342.655C825.452 343.35 826.915 343.475 828.132 344.099C829.349 344.723 830.261 346.311 829.387 347.309C830.356 347.541 831.345 347.791 832.314 348.023C832.542 348.879 831.497 349.503 830.717 349.985C829.919 350.466 829.292 351.679 830.109 352.125C830.489 352.892 831.706 352.767 832.504 352.356C833.303 351.946 834.139 351.376 834.994 351.625C835.546 351.786 835.926 352.267 836.344 352.642C838.074 354.3 840.697 354.693 842.922 355.709C845.127 356.726 847.142 359.187 845.944 361.22C845.488 361.987 844.67 362.486 844.062 363.146C843.454 363.806 843.036 364.823 843.568 365.536C845.507 365.661 847.503 365.072 849.024 363.931C850.582 365.5 852.445 366.981 854.689 367.426C856.932 367.89 859.612 367.016 860.487 365.019C860.658 364.626 860.772 364.181 861.133 363.913C861.627 363.539 862.35 363.663 862.977 363.824C864.859 364.323 866.703 364.965 868.49 365.75C868.832 365.893 869.193 366.071 869.345 366.392C869.573 366.856 869.288 367.373 869.212 367.89C868.927 369.763 871.398 370.833 873.375 371.154C876.056 371.6 878.774 371.831 881.511 371.849C881.606 370.565 880.124 369.691 878.793 369.406C877.462 369.121 875.961 369.085 874.934 368.229C873.736 367.212 873.622 365.375 872.368 364.43C871.417 363.717 869.763 363.253 870.01 362.147C870.277 360.953 872.501 361.113 872.938 359.972C873.204 359.258 872.539 358.509 871.797 358.242C871.056 357.974 870.22 358.028 869.421 357.885C867.444 357.528 865.828 355.87 865.638 354.015C865.562 353.302 865.657 352.553 865.353 351.911C864.897 350.93 863.68 350.502 862.578 350.163C856.761 348.397 850.944 346.65 845.146 344.884C844.309 344.634 843.397 344.385 842.579 344.652C840.355 345.383 840.507 349.146 838.169 349.539C836.971 349.753 835.888 348.843 835.051 348.005C834.215 347.185 833.017 346.007 832.922 344.83C832.846 344.01 833.74 343.297 833.664 342.565C833.284 339.748 829.881 340.015 827.6 340.176Z" fill="#E9EBEA"/>
<path d="M872.806 357.368C872.977 357.6 873.281 357.707 873.585 357.796C875.999 358.42 878.68 358.171 880.904 357.083C881.626 356.744 882.33 356.298 883.128 356.227C883.66 356.173 884.193 356.28 884.725 356.227C885.257 356.173 885.827 355.888 885.922 355.406C886.018 354.925 885.637 354.372 885.941 353.98C886.265 353.569 887.025 353.73 887.386 353.338C887.785 352.91 887.31 352.268 886.873 351.875C885.086 350.288 883.337 348.576 881.417 347.131C881.246 349.396 883.014 352.018 881.113 353.962C880.01 355.085 872.235 356.53 872.806 357.368Z" fill="#E9EBEA"/>
<path d="M896.626 364.466C897.501 364.733 898.432 364.858 899.307 365.197C900.162 365.518 900.998 366.107 901.246 366.945C901.246 366.909 901.246 366.874 901.227 366.838C900.922 364.609 898.508 363.217 896.36 362.165C896.075 362.023 895.79 361.88 895.638 361.612C895.543 361.416 892.672 363.235 896.626 364.466Z" fill="#E9EBEA"/>
<path d="M921.853 407.66C921.644 406.733 921.282 405.806 920.636 405.092C919.99 404.361 918.963 403.879 917.975 404.004C917.119 405.77 918.602 407.785 920.313 408.891C921.511 409.658 922.879 410.157 924.248 410.603C922.537 410.87 922.138 408.891 921.853 407.66Z" fill="#E9EBEA"/>
<path d="M927.478 391.52C928.276 393.339 928.846 395.23 929.188 397.156C930.139 396.639 930.405 395.283 929.721 394.481C930.405 395.052 930.405 396.032 930.576 396.871C930.994 399.082 932.857 401.008 935.177 401.579C935.538 400.919 935.234 400.116 934.739 399.546C934.245 398.975 933.561 398.583 932.99 398.083C931.926 397.138 931.28 395.783 931.223 394.41C931.166 393.161 931.413 391.592 930.253 390.985C930.044 391.52 929.854 392.055 929.645 392.59C929.302 392.555 929.093 392.252 928.96 391.966C928.162 390.165 928.96 387.579 927.154 386.277C926.869 387.08 926.337 387.9 925.386 388.007C925.386 389.309 926.945 390.29 927.478 391.52Z" fill="#E9EBEA"/>
<path d="M904.228 365.037C905.559 365.572 907.27 365.376 908.277 366.339C909.266 367.302 909.057 368.925 909.893 369.995C910.293 370.494 910.882 370.833 911.319 371.314C911.756 371.796 911.984 372.563 911.547 373.026C910.996 373.633 909.874 373.258 909.456 372.581C909.038 371.903 909.076 371.065 908.981 370.28C908.886 369.495 908.525 368.639 907.726 368.372C906.966 368.122 905.958 368.514 905.407 367.944C905.236 367.748 905.16 367.498 905.065 367.266C904.285 365.34 901.681 364.395 901.225 362.451C902.251 363.235 902.898 364.502 904.228 365.037Z" fill="#E9EBEA"/>
<path d="M826.402 361.826C825.072 362.896 823.855 364.091 822.81 365.411C823.608 365.786 824.654 365.589 825.262 364.965C825.851 364.341 825.927 363.342 825.452 362.629" fill="#E9EBEA"/>
<path d="M835.246 356.601C836.025 357.154 836.747 357.939 836.766 358.866C836.785 359.794 835.816 360.739 834.884 360.436C835.074 359.116 835.245 357.796 835.436 356.476" fill="#E9EBEA"/>
<path d="M826.785 376.665C826.101 375.309 824.048 374.738 822.679 375.523C823.877 376.451 823.991 378.359 822.907 379.411C822.356 379.946 821.595 380.249 820.968 380.713C818.896 382.211 818.801 385.564 820.797 387.169C819.828 387.633 818.877 388.114 817.908 388.578C817.223 386.206 815.284 384.173 812.851 383.281C809.524 385.243 807.034 388.435 806.064 392.002C805.684 392.073 805.285 392.127 804.905 392.198C804.734 393.25 804.544 394.303 804.373 395.373C803.517 394.303 803.175 392.876 803.441 391.574C801.426 391.949 800.305 393.946 799.753 395.801C799.202 397.655 798.879 399.706 797.415 401.062C796.35 402.061 794.849 402.506 793.423 402.917C791.218 403.559 789.013 404.183 786.808 404.825C784.983 405.342 783.006 405.984 782.036 407.518C781.238 408.748 780.724 410.728 779.204 410.567C778.557 410.496 778.063 409.997 777.417 409.854C776.124 409.551 774.964 410.889 774.907 412.137C774.85 413.385 775.478 414.58 775.839 415.793C776.181 417.006 776.162 418.504 775.098 419.288C776.314 419.36 777.588 419.806 778.31 420.733C779.033 421.66 779.032 423.123 778.101 423.854C777.17 424.603 775.402 424.175 775.193 423.034C777.873 429.882 779.774 437.016 780.838 444.239C781.276 447.199 781.523 450.374 780.002 452.995C782.663 454.868 786.522 455.064 789.393 453.477C790.99 452.585 792.263 451.194 793.936 450.427C796.845 449.089 800.381 449.856 803.498 448.982C806.35 448.18 808.65 446.022 811.596 445.54C813.801 445.184 816.273 445.772 818.193 444.72C819.105 444.221 819.771 443.4 820.664 442.847C821.652 442.223 822.85 441.974 824.029 441.92C828.724 441.67 833.534 444.702 834.598 449C834.864 450.07 834.902 451.212 835.359 452.228C835.815 453.245 836.841 454.172 838.001 454.065C838.286 450.695 841.708 447.841 845.301 447.948C845.472 449.036 844.635 450.035 843.761 450.748C842.886 451.461 841.86 452.121 841.404 453.138C840.947 454.154 841.461 455.635 842.62 455.706C843.21 454.654 844.027 453.726 844.996 452.977C846.821 454.511 845.966 457.882 843.59 458.452C845.871 457.828 849.084 457.614 849.863 459.719C850.072 460.307 850.015 460.967 850.072 461.591C850.414 464.855 854.045 466.763 857.22 468.101C857.866 468.368 858.569 468.654 859.254 468.547C860.451 468.35 861.098 467.156 861.801 466.228C862.505 465.283 863.93 464.463 864.862 465.229C865.66 465.889 865.318 467.173 865.964 467.958C866.82 469.028 868.721 468.457 869.652 467.441C870.584 466.424 871.135 465.069 872.352 464.338C874.595 463 878.682 464.052 879.347 461.627C879.708 460.307 878.53 459.094 878.15 457.793C877.541 455.742 878.967 453.655 880.583 452.175C882.199 450.695 884.157 449.41 885.107 447.484C886.704 444.274 885.031 440.458 885.677 436.962C886.324 433.449 889.289 429.971 887.73 426.725C887.122 425.459 885.887 424.496 885.373 423.176C884.879 421.91 885.088 420.376 884.157 419.342C883.567 418.682 882.655 418.379 881.932 417.88C879.48 416.221 879.404 412.904 878.473 410.211C876.762 405.306 871.857 402.096 868.455 398.03C867.827 397.281 867.238 396.478 866.972 395.551C866.668 394.481 866.801 393.34 866.706 392.234C866.478 389.541 864.748 386.991 862.238 385.671C861.687 385.386 861.098 385.136 860.699 384.672C860.147 384.012 860.185 383.103 860.147 382.265C860.033 379.108 858.703 376.005 856.459 373.668C854.977 380.588 853.475 387.508 851.992 394.427C851.137 395.052 850.072 395.426 848.989 395.515C848.551 393.75 848.133 391.984 847.696 390.219C845.567 390.326 843.343 390.397 841.423 389.523C839.522 388.649 838.115 386.438 838.97 384.619C839.446 383.62 840.491 382.514 839.807 381.64C841.708 382.318 843.362 379.411 841.974 378.02C839.788 375.826 837.374 379.001 835.111 378.894C832.317 378.68 829.808 374.988 826.785 376.665Z" fill="#E9EBEA"/>
<path d="M867.18 484.526C867.161 485.044 867.142 485.668 867.617 485.917C867.807 486.024 868.035 486.042 868.244 486.06C869.841 486.167 871.875 485.971 872.408 484.544C872.845 483.403 872.008 482.083 872.465 480.96C872.617 480.585 872.883 480.264 873.13 479.943C873.719 479.105 874.062 478.07 873.776 477.107C873.491 476.144 872.446 475.36 871.4 475.556C870.83 475.663 870.355 476.019 869.784 476.162C867.978 476.608 862.808 472.988 863.245 477.054C863.378 478.32 865.26 479.319 865.944 480.371C866.781 481.584 867.237 483.046 867.18 484.526Z" fill="#E9EBEA"/>
<path d="M926.909 491.642C925.712 492.016 924.381 492.177 923.393 492.89C922.385 493.604 921.929 495.209 922.917 495.94C923.678 496.511 924.799 496.279 925.731 496.564C927.803 497.188 927.993 499.828 927.784 501.861C929.229 502.449 930.826 501.255 931.624 499.971C932.422 498.686 932.974 497.153 934.323 496.386C935.198 495.869 936.357 495.744 937.004 494.995C937.916 493.943 937.308 492.355 937.65 491.036C938.506 487.718 943.6 487.433 944.95 484.187C945.9 481.94 947.63 477.535 944.779 477.071C937.669 475.894 933.031 489.734 926.909 491.642Z" fill="#E9EBEA"/>
<path d="M949.188 479.372C949.188 479.55 949.188 479.729 949.283 479.889C949.53 480.264 950.158 480.103 950.519 479.836C952.591 478.231 951.336 474.824 952.933 472.791C953.465 472.113 954.245 471.685 954.948 471.168C957.172 469.51 958.56 466.87 958.579 464.195C957.552 464.712 956.488 465.247 955.328 465.408C954.169 465.568 952.876 465.247 952.173 464.373C951.317 463.286 951.602 461.68 950.804 460.575C949.872 459.291 947.857 459.112 946.755 457.953C945.728 456.901 945.709 455.331 945.481 453.923C945.253 452.514 944.474 450.909 942.972 450.712C939.987 453.923 945.842 457.935 946.603 460.682C947.325 463.303 945.88 464.035 944.778 466.246C943.618 468.547 942.839 470.348 945.158 472.131C946.641 473.273 947.876 471.525 949.169 473.647C949.91 474.842 949.207 478.017 949.188 479.372Z" fill="#E9EBEA"/>
<path d="M793.345 287.368C793.174 287.814 793.022 288.278 793.022 288.742C793.06 290.365 795.056 291.47 795.189 293.075C795.246 293.717 794.999 294.36 794.999 295.002C794.999 295.644 795.417 296.393 796.121 296.393C796.71 296.393 797.128 295.875 797.546 295.483C797.965 295.091 798.763 294.841 799.086 295.305C799.238 295.501 799.219 295.786 799.2 296.018C799.01 297.748 798.516 299.442 797.718 301.029C798.706 301.404 799.866 300.798 800.417 299.942C800.968 299.086 801.063 298.033 801.139 297.035C801.177 296.535 801.215 296.018 801.006 295.554C800.683 294.859 799.885 294.502 799.371 293.931C798.402 292.861 798.497 291.256 799.048 289.954C799.6 288.653 800.512 287.511 801.063 286.209C801.215 285.87 801.329 285.514 801.272 285.139C801.215 284.765 800.968 284.444 800.797 284.105C800.36 283.267 800.322 282.304 800.132 281.376C798.44 273.351 793.859 285.96 793.345 287.368Z" fill="#E9EBEA"/>
<path d="M809.714 299.87C809.904 301.368 809.239 302.92 808.003 303.883C807.718 304.097 807.414 304.293 807.243 304.596C806.654 305.613 808.022 306.576 809.011 307.272C812.09 309.465 812.471 314.28 809.752 316.866C809.505 317.116 809.22 317.348 809.049 317.651C808.897 317.954 808.878 318.293 808.859 318.632C808.84 320.148 809.125 321.682 809.714 323.091C808.117 323.84 806.102 322.609 805.494 321.022C804.886 319.435 805.228 317.687 805.532 316.028C805.646 315.404 805.722 314.726 805.361 314.209C804.753 313.371 803.289 313.549 802.528 314.263C801.768 314.994 801.521 316.028 801.217 317.009C800.913 317.99 800.475 319.006 799.525 319.506C798.803 316.117 801.768 312.479 805.418 312.212C806.216 312.158 807.072 312.229 807.794 311.891C808.517 311.552 808.935 310.553 808.345 310.036C807.642 310.054 807.376 309.18 807.433 308.538C807.49 307.896 807.604 307.093 807.053 306.701C806.482 306.309 805.627 306.719 805.247 307.289C804.867 307.86 804.753 308.556 804.372 309.126C803.802 309.982 802.662 310.464 801.597 310.286C801.54 308.787 802.49 307.289 803.916 306.63C802.643 306.201 801.331 305.524 800.837 304.347C800.342 303.17 801.217 301.511 802.548 301.618C803.023 302.777 803.498 303.937 803.992 305.096C805.038 305.702 806.501 305.096 807.11 304.097C807.718 303.098 807.661 301.868 807.49 300.726C808.84 301.386 810.418 299.585 809.847 298.247C809.524 297.481 808.783 296.946 808.022 296.856C808.878 297.623 809.581 298.729 809.714 299.87Z" fill="#E9EBEA"/>
<path d="M605.91 78.6008C606.841 77.9766 606.138 76.4785 605.054 76.1396C603.971 75.8008 602.811 76.1396 601.671 76.1575C600.53 76.1931 599.161 75.676 599.047 74.6237C599.009 74.3027 599.104 73.9995 599.218 73.6963C600.017 71.9308 602.241 71.2174 603.705 69.8798C605.986 67.7932 606.176 64.3512 608.172 62.0327C610.928 58.8226 616.156 58.6799 619.692 56.2188C620.795 55.4519 621.726 54.4532 622.886 53.7398C625.87 51.8851 629.748 52.1882 633.341 52.0991C638.036 51.9742 642.713 51.0469 647.047 49.3704C646.135 53.4545 640.926 54.9882 636.611 56.0048C633.702 56.7003 630.832 57.485 627.999 58.3767C624.387 59.5181 620.776 60.8735 617.829 63.1206C614.882 65.3678 612.639 68.6849 612.582 72.2518C612.563 74.1244 614.94 78.1727 613.628 79.6351C612.05 81.3472 607.602 79.3141 605.91 78.6008Z" fill="#E9EBEA"/>
<path d="M715.71 30.9301C714.627 31.2511 713.543 31.5899 712.441 31.9109C713.448 33.3555 715.52 34.0689 717.269 33.5695C719.113 33.0345 720.9 31.3402 722.63 32.1428C723.086 32.9275 722.06 33.6944 721.223 34.1224C720.387 34.5504 719.512 35.5491 720.197 36.1733C720.368 36.316 720.577 36.4052 720.805 36.4587C724.607 37.6001 728.922 36.637 732.553 38.1708C733.693 38.6523 734.796 39.4013 736.051 39.3478C737.305 39.2943 738.484 37.8141 737.61 36.958C737.039 36.4052 735.899 36.3873 735.671 35.6561C735.252 34.3007 738.655 33.7479 737.99 32.4995C735.537 32.5708 733.066 32.6421 730.614 32.7135C729.777 32.7313 728.751 32.66 728.39 31.9466C728.181 31.5542 728.257 31.0371 727.972 30.6804C727.629 30.2524 726.945 30.2524 726.356 30.3059C725.063 30.4307 723.751 30.5555 722.459 30.6804C725.31 30.4129 729.036 28.9861 731.888 28.3441C728.124 24.3314 717.193 24.8129 715.71 30.9301Z" fill="#E9EBEA"/>
<path d="M750.06 36.7973C750.003 35.2992 747.798 34.6393 746.353 35.2813C744.909 35.9234 744.034 37.2966 743.065 38.4915C741.886 39.9182 740.46 41.131 739.054 42.3437C742.78 41.8978 746.506 41.4342 750.231 40.9883C751.676 40.81 753.406 40.4176 753.824 39.1335C752.379 38.2062 750.688 37.6176 748.958 37.4393" fill="#E9EBEA"/>
<path d="M847.75 57.9845C848.225 57.717 848.663 57.3603 849.195 57.2176C851.324 56.6469 853.13 59.5717 855.278 59.108C856.19 58.9119 856.837 58.1272 857.711 57.824C859.745 57.0928 862.026 59.0902 863.965 57.8596C866.494 56.2546 865.41 54.8635 863.414 54.1323C861.589 53.4724 858.757 54.168 856.704 53.6151C855.183 53.2049 853.871 52.4202 852.426 51.8317C849.043 50.4763 843.663 48.1935 841.363 52.2954C839.291 55.987 843.891 60.1603 847.75 57.9845Z" fill="#E9EBEA"/>
<path d="M877.844 56.9857C876.342 55.8264 874.593 54.9526 872.73 54.4175C872.464 54.3462 872.198 54.2749 871.913 54.2749C870.924 54.3105 870.297 55.4698 870.62 56.3615C870.943 57.2353 871.913 57.806 872.882 57.9666C873.852 58.1449 874.859 58.0201 875.848 57.9487C877.939 57.806 880.03 57.9666 882.064 58.4124C882.444 57.1818 881.17 55.9513 879.821 55.7908C878.471 55.6303 877.159 56.1831 875.924 56.7182" fill="#E9EBEA"/>
<path d="M858.701 64.0837C857.541 63.5665 856.305 63.2098 855.051 63.0136C854.386 62.9066 853.397 63.1741 853.549 63.7983C853.625 64.0659 853.891 64.2264 854.157 64.3512C855.887 65.2429 857.731 65.9206 859.632 66.42C860.507 66.6518 861.723 66.6697 862.027 65.8493C862.237 65.2786 861.799 64.6901 861.305 64.3155C860.107 63.3882 858.397 63.0671 856.914 63.4773" fill="#E9EBEA"/>
<path d="M488.428 38.4917C490.044 39.3834 492.021 39.5617 493.694 40.3643C495.652 41.3095 497.097 43.1286 497.477 45.1617C497.705 46.4101 497.591 47.7833 498.332 48.8355C499.397 50.3693 501.963 50.4763 503.522 49.3706C505.081 48.2648 505.727 46.3209 505.727 44.484C505.727 43.0394 505.461 41.363 506.545 40.3643C507.02 39.9362 507.666 39.7222 508.293 39.526C509.51 39.1337 510.803 38.777 512.076 38.9732C513.35 39.1694 514.567 40.1502 514.548 41.363C514.51 42.8254 512.78 44.1808 513.464 45.4827C515.916 45.447 518.388 45.4113 520.84 45.3935C521.695 44.591 521.087 43.1286 520.08 42.5044C519.072 41.8802 517.817 41.7375 516.715 41.2738C515.612 40.8101 514.567 39.7579 514.871 38.67C515.327 37.0114 517.836 37.2254 519.661 37.2789C524.528 37.4394 529.014 33.1414 528.729 28.5937C524.414 27.9695 522.285 32.4102 518.692 33.5694C515.726 34.5325 514.11 32.9095 511.392 33.1414C508.503 33.3911 507.818 35.121 505.594 35.6204C502.134 36.4051 499.625 34.7821 496.032 34.3363C493.257 33.9796 481.09 34.4433 488.428 38.4917Z" fill="#E9EBEA"/>
<path d="M444.897 19.1593C442.16 23.6179 437.502 27.0242 432.218 28.4153C429.727 29.0751 426.952 29.3783 425.07 31.0548C423.91 32.0891 423.245 33.5159 422.618 34.9069C421.382 37.6356 420.127 40.4356 420.07 43.3961C419.994 46.3565 421.401 49.5489 424.234 50.8329C420.28 52.6699 419.88 58.8048 423.587 61.0698C422.085 64.601 415.755 62.6214 412.771 65.2073C410.451 67.2048 411.345 70.8073 412.752 73.4646C414.158 76.1219 415.926 79.0824 414.786 81.8467C410.547 80.2951 406.307 78.7435 402.049 77.1919C400.452 80.4378 405.053 84.4683 408.398 82.7384C405.186 88.16 396.631 87.09 390.605 89.6581C384.18 92.3867 380.72 99.4312 374.238 102.017C371.044 103.283 367.413 103.355 364.22 104.639C361.026 105.941 358.289 109.383 359.79 112.325C360.095 112.914 360.551 113.485 360.456 114.127C360.38 114.804 359.733 115.268 359.182 115.696C353.973 119.869 353.916 127.271 354.278 133.691C352.415 134.993 349.791 133.227 348.765 131.265C347.738 129.304 347.206 126.914 345.248 125.755C343.29 124.595 340.667 125.148 338.537 124.328C336.579 123.579 335.344 121.795 334.203 120.137C332.093 116.998 329.964 113.859 327.854 110.72C326.067 108.081 324.242 105.334 323.748 102.249C323.254 99.1637 324.432 95.5969 327.398 94.1701C329.489 93.1536 332.873 91.6198 331.371 89.9256C331.029 89.5511 330.515 89.3727 330.021 89.1944C326.181 87.9103 322.36 86.6441 318.52 85.36C320.022 81.0263 325.364 78.2263 330.078 79.3142C331.808 76.7104 327.797 73.8569 324.527 73.9104C321.258 73.9639 317.608 75.0697 314.946 73.2862C317.418 70.0582 317.285 65.4748 315.288 61.9615C313.292 58.4482 309.719 55.9157 305.841 54.3106C304.111 53.5972 302.267 53.0444 300.385 53.0087C297.4 52.973 294.53 54.2571 291.545 54.2749C287.325 54.2928 283.466 51.7246 281.033 48.4788C278.6 45.233 277.364 41.3451 276.166 37.5464C279.569 39.312 284.055 39.419 287.23 37.2967C290.405 35.1745 291.697 30.7159 289.625 27.6127C293.921 26.7032 298.237 25.8115 302.533 24.9019C303.616 24.6701 304.738 24.4382 305.67 23.8675C306.867 23.1542 307.685 21.9771 308.768 21.1211C310.859 19.4803 313.749 19.1236 316.467 18.8383C323.729 18.0893 330.991 17.3224 338.252 16.5733C339.64 16.4307 341.085 16.288 342.434 16.6268C346.008 17.5186 349.24 21.5848 352.453 19.8548C352.586 18.5351 352.167 17.1797 351.293 16.1275C355.38 14.3619 360.095 14.8969 364.6 14.9683C373.668 15.0931 382.621 13.1313 391.689 13.0065C400.585 12.8817 409.482 14.5581 417.637 17.8931C414.919 19.6587 411.801 20.9071 408.55 21.5134C410.68 21.3886 412.828 21.7274 414.786 22.5121C413.227 21.8879 406.174 27.1134 405.053 28.0586C408.893 30.8586 417.333 25.0624 421.306 23.2969C428.853 19.9083 436.514 18.0001 444.897 19.1593Z" fill="#E9EBEA"/>
<path d="M431.287 110.007C429.253 110.792 427.352 111.862 425.679 113.199C424.12 114.43 422.39 115.999 420.394 115.607C418.36 115.232 417.41 113.11 416.516 111.362C415.623 109.615 413.817 107.724 411.859 108.348C412.923 107.154 413.988 105.941 415.052 104.746C412.524 104.407 409.977 104.05 407.448 103.712C406.821 103.622 406.156 103.515 405.757 103.07C404.806 102.035 406.232 100.484 407.62 100.091C410.775 99.2173 414.254 100.555 416.611 102.677C417.6 103.569 418.854 104.71 420.128 104.211C420.964 103.872 421.326 102.963 421.877 102.303C423.227 100.698 425.736 100.484 427.903 100.715C431.572 101.108 438.872 98.5931 440.297 102.713C441.913 107.332 434.233 108.883 431.287 110.007Z" fill="#E9EBEA"/>
<path d="M115.819 78.3689C106.238 82.1141 96.2955 85.8415 85.9352 85.7167C81.4298 85.6632 76.9815 84.8785 72.5713 84.1116C62.9523 82.4173 53.2383 80.7052 44.3037 76.9957C41.9085 75.997 39.5133 74.8556 36.9089 74.7129C34.0004 74.5524 31.187 75.6581 28.5636 76.8709C20.6365 80.5626 13.3748 85.5026 7.17762 91.4415C13.6219 92.3867 19.61 95.8108 23.469 100.751C20.4274 102.142 16.3213 100.858 14.7625 98.0401C10.6754 96.9344 5.90396 99.9662 5.50476 103.943C5.10555 107.92 9.15464 111.737 13.3938 111.38C14.8956 109.508 17.2148 108.241 19.7051 107.938C20.8647 109.775 22.0433 111.63 23.2029 113.467C21.1688 115.767 17.595 116.017 14.4774 116.677C11.3598 117.337 7.86197 119.388 8.22316 122.366C8.81246 127.324 18.9637 127.734 18.5265 132.71C18.6785 131.016 39.6463 129.714 29.4951 141.003C27.8983 142.768 25.5221 144.052 23.0698 143.856C23.7542 145.675 23.6021 147.923 22.0813 149.207C20.5605 150.491 17.576 150.027 17.1007 148.154C15.4659 151.418 10.9986 152.185 7.17762 152.542C6.72138 153.986 6.26515 155.413 5.82792 156.857C5.52377 155.056 2.99547 154.004 1.34161 154.949C-0.312237 155.894 -0.464316 158.463 1.03746 159.604C2.42517 160.674 4.47823 160.406 6.24614 160.103C6.91148 159.978 7.67187 159.8 7.95702 159.229C8.12811 158.873 8.07108 158.463 8.09009 158.088C8.14712 156.198 9.91503 154.7 11.797 154.022C13.679 153.344 15.751 153.273 17.709 152.845C20.9597 152.131 23.8872 150.473 26.4726 148.511C29.305 146.371 31.8333 143.856 35.046 142.251C36.2816 141.645 37.5933 141.181 38.7719 140.486C47.4594 135.421 41.9275 126.664 54.7781 125.166C54.9682 126.842 53.7326 128.555 52.0217 129.036C56.1468 131.89 60.6521 122.901 65.4806 124.506C66.8493 124.952 67.7238 126.183 68.8834 126.967C71.0505 128.43 73.959 128.341 76.6204 128.555C87.2468 129.411 96.9228 136.794 99.9834 146.371C104.622 145.087 108.5 149.742 110.8 153.736C114.621 160.335 118.442 166.916 122.244 173.515C124.658 177.706 127.11 181.932 128.365 186.551C130.171 193.15 129.449 200.159 131.121 206.793C132.794 213.428 138.25 220.169 145.493 219.973C146.671 230.352 149.903 240.536 154.998 249.81C152.507 252.164 156.499 255.677 159.902 256.604C163.305 257.532 167.772 259.886 166.29 262.9C170.301 258.727 165.187 252.413 160.32 249.15C155.454 245.886 149.732 240.482 152.774 235.631C154.427 234.062 157.355 235.899 158.134 237.985C158.914 240.072 158.838 242.551 160.415 244.21C161.784 245.654 164.027 246.029 165.795 247.01C172.24 250.594 170.89 260.813 177.125 264.701C179.406 266.128 182.41 266.449 184.368 268.232C185.794 269.516 186.44 271.335 187.371 272.958C190.641 278.701 197.237 281.965 203.454 284.872C205.26 285.728 207.085 286.566 208.89 287.422C219.27 292.291 229.649 297.177 240.028 302.046C241.017 302.51 242.177 302.991 243.222 302.599C247.48 301.012 238.774 293.896 242.405 291.256C237.31 288.956 232.215 286.637 227.121 284.337C230.295 281.679 230.714 276.597 228.014 273.493C229.896 273.083 231.455 271.585 231.854 269.82C229.611 267.626 225.505 269.445 223.756 271.995C222.007 274.563 221.304 277.774 218.966 279.86C213.643 284.586 204.233 279.575 202.18 272.976C200.127 266.378 202.484 259.387 203.264 252.538C203.587 249.774 203.834 246.635 206.153 244.923C211.476 240.999 219.327 249.257 225.524 246.689C227.9 245.708 229.288 243.336 231.512 242.105C235.352 239.965 240.58 241.945 243.26 245.315C245.922 248.686 246.663 253.002 247.347 257.157C248.602 259.101 252.1 256.961 251.91 254.696C251.719 252.431 249.723 250.737 248.412 248.829C245.066 243.96 246.587 236.719 251.643 233.402C256.149 230.459 263.544 229.3 263.848 224.164C264.038 220.847 260.673 218.118 260.54 214.801C260.426 211.876 262.783 209.433 264.988 207.364C271.224 201.497 277.44 195.629 283.675 189.762C285.139 188.388 286.907 186.908 288.96 187.122C291.013 187.336 292.172 190.529 290.214 191.171C297.552 191.438 307.399 189.779 307.988 182.895C305.023 185.339 301.506 187.176 297.742 188.264C297.343 185 298.37 181.594 300.537 178.99C297.799 174.567 291.26 173.354 286.051 174.87C280.842 176.386 276.679 179.988 272.706 183.484C278.694 176.867 286.679 171.321 295.879 170.322C299.339 169.948 303.046 170.162 306.049 168.521C310.232 166.238 313.939 160.46 318.159 162.707C315.079 167.772 312 172.855 308.92 177.92C312.247 177.688 315.573 177.456 318.881 177.224C320.231 179.382 320.896 181.915 320.744 184.429C324.812 184.162 330.401 181.647 328.595 178.223C327.664 176.475 325.268 176.047 323.672 174.817C319.28 171.428 322.702 164.491 320.497 159.568C319.394 157.107 316.98 155.431 314.794 153.736C305.441 146.549 298.122 137.061 293.731 126.504C292.667 129.018 291.488 131.658 289.169 133.263C286.85 134.868 283.048 134.904 281.527 132.603C280.69 131.337 280.747 129.749 280.31 128.341C279.322 125.113 276.033 123.062 272.991 121.314C269.285 119.174 264.931 116.962 260.825 118.3C256.719 119.637 255.769 126.557 260.065 127.199C256.073 127.342 256.206 133.156 258.487 136.241C260.768 139.326 263.962 143.161 261.776 146.3C259.837 149.082 254.932 148.814 252.974 151.596C251.092 154.272 253.145 157.731 254.571 160.638C255.997 163.545 255.959 168.129 252.613 168.753C249.742 169.288 247.67 166.167 247.138 163.474C246.302 159.229 246.891 154.646 244.781 150.812C242.671 146.977 235.903 145.176 233.774 148.993C232.615 145.105 229.25 141.841 225.125 140.646C221.779 139.665 218.053 139.968 214.879 138.577C210.126 136.491 207.997 131.372 206.305 126.718C212.502 123.383 219.118 119.637 221.893 113.467C222.635 111.808 223.129 109.936 224.536 108.705C225.809 107.599 227.596 107.207 229.003 106.262C230.41 105.316 231.303 103.23 230.048 102.124C231.873 101.072 234.097 100.68 236.208 101.001C239.819 105.584 228.756 113.395 233.964 116.338C236.759 117.925 239.8 114.662 241.245 111.915C243.507 112.771 245.769 113.627 248.051 114.483C250.978 112.254 247.537 107.992 244.192 106.387C240.846 104.764 236.607 101.857 238.28 98.7C241.283 98.6465 244.268 98.593 247.271 98.5395C247.461 95.8465 245.56 93.1535 242.861 92.2797C244.401 90.0504 245.941 87.8211 247.48 85.5918C246.074 84.1472 243.811 83.4874 241.777 83.9689C247.842 83.1307 253.773 81.3829 259.266 78.8326C263.753 83.6479 267.992 88.6771 271.927 93.9026C272.554 94.7408 273.22 95.6682 273.182 96.6847C273.125 98.9318 270.235 99.8771 268.163 100.983C266.072 102.071 264.817 105.548 267.136 106.101C266.813 107.76 264.171 107.742 262.669 106.815C261.167 105.887 259.799 104.407 258.012 104.514C254.628 104.692 255.179 110.31 258.43 111.255C261.681 112.201 264.988 110.239 267.745 108.366C274.075 113.734 281.641 117.818 289.758 120.279C286.488 119.637 284.093 116.302 284.701 113.217C288.503 114.251 292.134 115.857 295.385 117.979C298.141 114.822 294.606 110.239 290.994 107.992C287.382 105.727 282.839 102.927 283.409 98.8783C288.161 98.7713 292.876 101.304 295.157 105.209C296.963 102.802 298.75 100.412 300.556 98.0045C298.522 91.6911 285.538 93.6172 284.169 87.1434C283.903 85.895 284.169 84.4683 283.333 83.4517C282.04 81.8823 279.436 82.6492 277.326 82.5957C269.95 82.3817 265.464 70.7716 258.658 73.4467C261.51 68.4353 253.411 62.1041 248.678 65.6353C251.282 66.5448 254.115 67.8111 255.065 70.2544C256.016 72.6977 253.24 76.0505 250.826 74.7664C248.374 73.4824 249.552 69.8442 248.203 67.5257C246.568 64.7079 241.606 65.2786 239.629 67.8824C237.633 70.4862 237.88 74.0352 238.679 77.1562C237.044 77.1205 235.39 77.0849 233.755 77.0492C233.394 72.6798 234.307 68.2391 236.341 64.2977C234.421 61.6048 230.029 64.1907 227.919 66.7589C225.695 69.4518 223.395 72.2875 222.692 75.6403C221.988 78.9932 223.452 83.0059 226.855 84.2007C229.041 84.9676 231.55 84.4861 233.736 85.2886C238.698 87.1256 236.74 95.8108 231.417 95.6147C229.763 93.0822 228.813 90.1395 228.642 87.1791C226.075 87.8924 223.68 89.1408 221.684 90.8172C219.08 84.7893 215.449 79.1358 210.982 74.1422C212.046 72.2161 213.111 70.29 214.175 68.3639C218.452 70.1117 223.927 65.8136 222.863 61.5691C219.308 60.6417 215.582 59.6965 211.97 60.4634C208.377 61.2302 205.031 64.3156 205.545 67.7397C205.849 69.7907 207.408 71.5028 207.978 73.518C208.548 75.5155 207.275 78.3333 205.089 77.9944C203.948 82.8632 214.955 82.988 215.449 87.9638C215.791 91.4593 210.753 92.8147 207.027 92.779C208.111 96.1319 207.94 99.8414 206.552 103.105C203.758 98.1828 205.279 91.4414 209.993 88.0173C207.18 83.9511 200.64 82.667 196.325 85.3243C197.941 87.6428 200.507 89.3727 203.359 90.0682C201.857 91.709 200.336 93.3497 198.834 94.9905C195.565 92.779 191.078 94.5089 187.067 94.7408C183.037 94.9548 178.152 90.7994 181.003 88.1064C178.589 86.7332 175.3 86.2695 173 87.8033C170.7 89.3548 170.51 93.2784 173.076 94.3841C167.734 95.6682 158.876 86.4479 155.017 93.5102C152.602 86.323 148.705 84.1829 141.045 83.8084C135.95 83.5587 120.875 80.0275 118.271 84.0402C117.853 83.4695 115.723 78.4046 115.819 78.3689Z" fill="#E9EBEA"/>
<path d="M129.961 59.5183C127.072 59.8036 125.456 62.8533 125.076 65.5641C124.715 68.2749 124.981 71.1819 123.555 73.5716C123.213 74.1602 122.757 74.713 122.643 75.3907C122.32 77.299 124.962 78.5117 126.977 78.2085C132.889 77.3168 136.615 69.7373 142.508 70.6825C142.565 72.1627 142.622 73.6608 142.679 75.1411C146.576 75.1767 150.454 74.6417 154.18 73.5716C155.321 74.2672 154.674 76.0684 153.477 76.6213C152.279 77.1742 150.834 76.9958 149.485 77.1028C148.135 77.2277 146.614 77.9054 146.462 79.1538C149.066 78.4404 151.766 77.727 154.427 78.2085C157.088 78.6901 159.617 80.7588 159.541 83.2913C155.777 83.1308 151.994 83.2556 148.249 83.6837C150.302 85.9843 154.047 85.7168 157.221 86.0378C160.396 86.3588 164.179 88.7486 163.057 91.5664C167.373 87.304 174.558 85.8773 180.337 88.1244C181.782 88.6951 183.151 89.462 184.691 89.7473C186.23 90.0327 188.036 89.7116 188.892 88.4811C189.747 87.2505 188.892 85.1639 187.333 85.2174C189.367 84.9499 191.135 83.434 191.61 81.5792C188.131 82.6493 183.93 80.8302 182.524 77.6557C181.25 74.7844 182.01 71.0748 179.71 68.8099C181.706 69.3806 183.683 67.1513 183.208 65.243C182.733 63.3348 180.546 62.1577 178.455 62.1042C177.087 62.0686 175.623 62.4966 174.806 63.531C173.988 64.5653 174.14 66.2774 175.338 66.9195C173.741 66.1883 172.125 65.4571 170.528 64.7259C169.882 68.4175 177.619 70.6112 175.794 73.9462C174.634 76.0684 170.699 74.7309 170.243 72.3946C169.939 70.8608 170.319 68.8099 168.817 68.1144C165.947 66.8125 163.856 73.4111 161.118 71.8952C161.29 70.415 161.461 68.9347 161.632 67.4545C158.096 67.187 154.465 68.3819 151.88 70.6647C152.203 69.2379 152.526 67.7934 152.849 66.3666C149.009 64.3692 145.207 71.4494 141.082 70.094C145.074 71.378 153.99 64.0838 146.975 60.9985C145.302 60.2495 141.786 61.4087 139.923 61.2838C136.672 61.0698 133.25 59.1794 129.961 59.5183Z" fill="#E9EBEA"/>
<path d="M147.375 44.2166C144.657 42.9325 141.349 44.3236 139.03 46.1784C136.711 48.0331 134.81 50.4229 132.053 51.6178C130.742 52.1885 129.202 52.5452 128.403 53.6509C132.985 53.5974 137.547 53.2942 142.09 52.777C141.843 54.2216 141.064 55.5949 139.923 56.5936C142.052 57.3248 143.82 54.8102 144.125 52.7057C144.22 52.0458 144.296 51.3146 144.847 50.9045C145.303 50.5834 145.911 50.5834 146.463 50.4943C148.383 50.2089 150.094 48.479 149.846 46.6777C149.618 44.8586 147.071 43.5746 145.493 44.6625" fill="#E9EBEA"/>
<path d="M161.67 56.1655C162.24 55.8801 162.544 55.2203 162.373 54.6496C159.522 54.7387 156.822 52.5273 156.518 49.87C154.902 48.9069 152.431 49.656 151.728 51.3324C151.024 53.0088 152.298 55.1489 154.18 55.4699C151.424 56.5757 148.667 57.6814 145.911 58.7871C151.177 61.4444 157.431 55.6483 163.267 56.8075C163.267 57.4674 163.267 58.1273 163.267 58.805C160.738 58.8406 158.248 59.9285 156.613 61.7298C160.967 62.0865 165.453 61.0699 169.141 58.8763C170.186 58.2521 171.213 57.5209 172.449 57.3604C173.532 57.2177 174.597 57.5387 175.68 57.6814C178.227 58.0202 181.459 56.6648 181.364 54.2572C179.653 53.7222 177.809 53.5082 176.003 53.6509C175.452 50.512 171.289 48.4968 168.228 49.87C168.285 52.0279 169.35 54.1502 171.099 55.5413C169.369 56.968 166.67 57.2177 164.674 56.1477C163.723 55.6483 162.849 54.8457 161.765 54.8457C160.586 54.8457 159.066 55.6305 158.476 54.6852" fill="#E9EBEA"/>
<path d="M164.96 40.5425C160.664 40.0609 156.235 40.7565 152.338 42.5042C154.448 43.3959 156.539 44.2877 158.649 45.1794C159.124 45.3755 159.618 45.5896 160.151 45.5896C160.607 45.5896 161.063 45.4112 161.481 45.2329C163.515 44.4125 165.53 43.5921 167.564 42.7717C167.222 42.2902 166.861 41.8087 166.519 41.3272C167.431 41.8979 168.781 41.0597 168.857 40.0431C168.914 39.0266 168.002 38.117 166.956 37.8138C165.911 37.5106 164.789 37.6712 163.724 37.9208C162.489 38.1883 161.272 38.5629 160.094 39.0266C160.702 40.2393 161.938 41.1667 163.325 41.4877C163.344 41.9692 163.363 42.4507 163.401 42.9323" fill="#E9EBEA"/>
<path d="M194.958 41.1488C194.026 41.1845 193.475 40.1501 193.418 39.2762C193.38 38.4024 193.57 37.4571 193.114 36.6903C191.973 34.8177 188.912 36.2088 186.65 35.8521C185.301 35.6559 184.198 34.7642 182.905 34.3183C181.613 33.8725 179.807 34.1221 179.446 35.3527C179.027 36.7259 180.833 37.8495 182.354 37.8673C183.875 37.903 185.453 37.3858 186.916 37.8317C187.183 37.9208 187.449 38.0457 187.639 38.2597C188.722 39.6151 184.844 40.596 185.206 42.2546C185.377 43.0749 186.46 43.3246 187.354 43.4138C188.665 43.5386 189.958 43.6813 191.27 43.8061C192.619 43.9488 194.14 44.038 195.224 43.2711C196.307 42.5042 196.345 40.5068 195.015 40.2036" fill="#E9EBEA"/>
<path d="M201.876 54.0786C202.637 53.2404 202.18 51.8494 201.211 51.2073C200.26 50.5653 199.006 50.494 197.846 50.4761C194.424 50.4583 191.003 50.8685 187.695 51.7067C186.668 51.9564 185.604 52.2596 184.577 52.0634C183.551 51.8494 182.581 50.922 182.809 49.9589C181.403 51.457 183.095 53.936 185.148 54.4532C187.201 54.9704 189.387 54.3818 191.516 54.4888C193.645 54.5958 196.078 55.9691 195.85 57.9487C195.793 58.4302 195.603 58.9296 195.793 59.3576C196.04 59.8748 196.744 60.0353 197.352 59.9996C200.184 59.8748 202.351 56.7538 201.325 54.2748C200.641 54.3818 199.918 54.0073 199.633 53.4188C200.869 52.9551 201.838 51.9029 202.142 50.6901C199.842 49.8698 197.143 50.0659 194.995 51.2073" fill="#E9EBEA"/>
<path d="M200.678 65.0645C201.856 64.2619 201.077 62.2823 199.689 61.9078C198.301 61.5155 196.819 62.211 195.678 63.0492C195.602 64.1728 195.526 65.2963 195.45 66.4199C194.062 66.1524 192.579 66.4199 191.401 67.1511C193.435 67.6683 195.108 69.2912 195.583 71.2173C193.644 72.4657 190.564 71.5918 189.69 69.5409C189.291 68.5956 189.139 67.3116 188.093 66.9906C186.629 66.5447 185.755 68.7383 186.439 70.0402C188.226 73.4822 193.701 73.2682 196.762 75.8185C197.864 76.7459 199.518 78.0478 200.449 76.9777C201.191 76.1217 200.221 74.9268 199.328 74.2134C200.411 74.3383 201.552 74.4274 202.541 73.9816C203.529 73.5357 204.194 72.3587 203.662 71.467C203.377 71.0033 202.864 70.7179 202.426 70.3969C200.811 69.1663 200.221 66.8836 201.058 65.118C200.468 64.8861 199.898 64.6543 199.309 64.4224" fill="#E9EBEA"/>
<path d="M254.246 55.9159C250.559 53.8293 245.958 53.1872 241.776 54.1681C238.754 54.8815 235.921 56.3974 232.822 56.5936C228.279 56.8968 223.926 54.2216 221.455 50.6369C224.895 48.4255 229.933 52.7592 233.564 50.8331C234.609 50.2803 235.332 49.2637 236.434 48.8C237.556 48.3363 238.849 48.5325 240.065 48.7287C245.882 49.7096 251.68 50.6726 257.497 51.6535C258.182 49.3172 256.052 46.6599 253.486 46.6064C256.528 45.465 259.569 44.3058 262.611 43.1644C264.151 42.5759 265.785 41.916 266.622 40.5784C267.458 39.2409 266.869 37.0651 265.215 36.8689C272.23 34.5861 279.016 31.697 285.48 28.2906C284.833 27.2384 284.187 26.1862 283.522 25.1161C288.027 25.5442 292.684 24.2601 296.201 21.6028C291.164 21.2104 286.031 21.6563 281.145 22.9225C289.548 23.9212 298.235 22.5837 305.858 19.1595C303.121 16.9124 298.121 19.8372 295.422 17.5544C294.604 16.8767 294.205 15.8423 293.388 15.1646C292.38 14.3443 290.935 14.2194 289.586 14.1659C275.88 13.4704 262.117 13.8449 248.487 15.2538C246.243 15.4856 243.392 16.306 243.278 18.4283C240.008 18.3035 236.738 18.1786 233.488 18.0538C231.131 21.0143 226.511 22.1735 222.899 20.6932C222.082 21.906 221.265 23.1187 220.447 24.3314C222.728 25.8117 225.58 26.4894 228.336 26.204C230.028 29.4499 235.484 30.1632 238.05 27.4703C239.191 31.1619 245.065 30.4664 248.563 28.4511C252.041 26.4359 256.528 23.8677 259.797 26.1862C255.463 29.3429 249.893 30.9658 244.418 30.6983C245.787 32.2498 247.156 33.8014 248.544 35.353C245.179 35.5492 242.194 33.5339 239.248 32.0002C236.301 30.4664 232.442 29.3785 229.724 31.2511C232.176 33.1415 234.647 35.0141 237.1 36.9046C230.332 33.5517 223.546 30.1989 216.778 26.8639C214.801 25.883 212.501 24.8843 210.391 25.6155C208.281 26.3467 207.654 29.8065 209.821 30.3594C208.148 30.6448 206.703 31.911 206.266 33.4447C210.277 33.7479 214.231 34.8001 217.824 36.5122C216.132 37.0294 214.44 37.5288 212.748 38.046C216.607 39.223 220.466 40.4001 224.325 41.5771C225.105 41.809 226.017 42.0587 226.739 41.6663C227.462 41.2918 227.728 40.4536 228.127 39.7759C229.344 37.7428 232.461 36.9581 234.59 38.153C234.096 39.2409 233.602 40.3466 233.127 41.4345C234.952 41.4523 236.777 41.4523 238.601 41.4701C238.639 42.4154 238.658 43.3427 238.697 44.2879C241.339 44.6803 244.057 44.609 246.681 44.0739C245.73 47.3911 240.578 47.6943 237.366 46.0179C234.153 44.3415 231.625 41.4701 228.089 40.5428C229.211 43.0217 231.017 45.2153 233.279 46.8739C228.564 46.1605 223.66 46.6064 219.173 48.1401C218.736 47.2484 218.299 46.3746 217.862 45.4828C214.174 46.9274 214.725 51.921 215.923 55.5057C216.284 56.5579 216.645 57.628 217.387 58.484C219.059 60.4101 222.063 60.642 224.724 60.7133C228.716 60.8203 232.727 60.9273 236.719 61.0343C242.27 61.1235 254.456 63.5668 254.246 55.9159Z" fill="#E9EBEA"/>
<path d="M210.391 51.885C211.494 51.1716 213.471 51.778 213.984 50.6188C214.364 49.7449 213.376 48.9245 212.501 48.4608C211.627 47.9971 210.581 47.2838 210.828 46.3742C210.049 46.4812 209.232 46.3207 208.566 45.9284C210.239 45.5182 211.912 45.108 213.585 44.6978C214.231 44.5373 215.03 44.0023 214.649 43.5029C214.516 43.3246 214.288 43.2532 214.06 43.1997C213.034 42.95 211.893 42.9144 210.981 42.3972C210.068 41.8622 209.555 40.5424 210.353 39.8647C209.783 39.8112 209.213 39.7755 208.642 39.722C208.623 39.294 208.585 38.866 208.566 38.438C205.601 38.3666 202.654 38.1348 199.708 37.7603C199.271 39.615 201.191 41.5946 203.206 41.3806C203.529 41.345 203.89 41.2736 204.156 41.452C204.403 41.6125 204.46 41.8978 204.593 42.1475C204.973 42.8787 206.019 43.2354 206.817 42.8965C206.589 43.4316 206.19 43.9131 205.696 44.2519C206.646 44.7335 207.711 45.0367 208.775 45.1615C207.92 45.7857 206.931 46.2315 205.867 46.4456C206.304 46.7844 206.741 47.1054 207.179 47.4443C206.057 47.4621 204.935 47.4799 203.833 47.4978C203.491 48.4787 204.517 49.4239 205.544 49.8162C206.684 50.2442 212.216 53.5436 208.889 55.0238C207.007 55.862 206.209 52.9372 206.874 51.8315C207.92 54.1143 207.597 57.3066 209.46 59.304C210.809 60.7665 212.863 61.034 214.155 59.1079C216.417 55.7729 210.943 54.7741 210.391 51.885Z" fill="#E9EBEA"/>
<path d="M243.506 309.162C242.194 312.461 246.433 316.314 249.912 314.994C250.92 314.602 251.794 313.906 252.859 313.728C255.843 313.228 257.573 316.759 258.2 319.559C258.923 322.752 259.626 326.158 258.372 329.19C256.851 332.828 252.707 335.361 252.212 339.248C251.813 342.423 254.037 345.687 252.897 348.701C252.383 350.056 251.224 351.144 250.673 352.499C249.703 354.925 250.863 357.6 252.003 359.972C255.805 367.819 259.626 375.666 263.428 383.513C264.284 385.279 265.196 387.116 266.85 388.293C268.162 389.22 269.796 389.648 271.184 390.486C273.446 391.842 274.834 394.142 276.127 396.354C278.522 400.438 280.936 404.593 281.963 409.159C283.35 415.383 282.039 421.821 280.727 428.063C278.807 437.176 276.887 446.307 274.967 455.421C272.857 465.461 270.747 475.484 268.637 485.525C270.899 484.241 272.572 482.083 273.199 479.675C274.283 486.203 272.914 493.051 269.378 498.758C269.074 496.297 268.77 493.836 268.466 491.375C265.88 496.618 264.55 502.378 264.588 508.157C264.588 509.191 264.683 510.332 265.462 511.081C266.185 511.795 267.325 511.955 268.257 512.401C270.272 513.4 271.146 516.039 270.063 517.93C271.127 518.162 272.211 518.393 273.275 518.625C274.929 519.856 271.013 521.586 271.032 523.565C271.032 524.368 271.735 525.01 272.382 525.545C275.404 528.042 278.427 530.556 281.468 533.053C283.579 533.642 285.765 534.23 287.932 533.909C290.099 533.588 292.247 532.09 292.437 530.039C292.722 527.221 289.586 525.331 287.571 523.227C284.434 519.963 283.674 515.165 284.453 510.832C285.232 506.498 287.399 502.503 289.51 498.597C288.141 498.116 286.772 497.634 285.384 497.135C285.479 494.246 288.635 492.445 290.612 490.233C294.224 486.203 293.825 479.55 289.757 475.93C291.258 474.931 292.76 473.933 294.281 472.952C295.517 474.807 296.752 476.661 297.988 478.516C301.068 476.198 302.227 471.864 300.687 468.44C307.683 470.116 315.591 464.748 316.066 457.971C314.336 457.918 312.968 456.045 313.538 454.511C314.108 452.977 316.408 452.3 317.815 453.245C317.036 455.118 319.336 457.168 321.465 456.919C323.594 456.669 325.191 454.886 325.894 452.977C326.617 451.087 326.674 449.036 327.073 447.056C327.719 443.882 329.24 440.868 331.464 438.407C333.308 436.356 335.684 434.608 336.768 432.129C337.566 430.31 337.566 428.295 337.908 426.351C339.011 420.02 343.973 414.42 350.417 412.244C350.683 415.08 355.454 414.491 357.679 412.565C361.024 409.694 363.268 405.735 363.952 401.543C364.541 397.87 364.028 393.893 365.872 390.593C366.651 389.202 367.849 387.989 368.305 386.474C368.685 385.172 368.495 383.798 368.571 382.443C368.97 375.202 377.24 369.478 376.289 362.29C375.662 357.618 371.328 354.265 367.336 351.429C361.214 347.096 354.713 342.601 347.109 341.71C342.281 341.139 337.072 342.031 332.738 339.98C334.677 339.873 336.045 337.982 336.141 336.163C336.236 334.344 335.399 332.614 334.582 330.973C334.03 329.868 333.479 328.744 332.928 327.638C330.685 323.126 326.997 317.83 321.75 318.543C320.191 318.757 318.48 319.488 317.15 318.686C315.933 317.954 315.8 316.367 315.135 315.154C312.549 310.428 302.721 312.354 301.239 307.218C300.858 305.881 301.182 304.258 300.155 303.259C299.319 302.456 297.969 302.439 296.771 302.474C291.334 302.67 285.917 302.849 280.48 303.045C280.29 305.042 278.902 306.915 276.963 307.753C277.248 308.93 277.533 310.107 277.819 311.267C277.381 313.353 273.636 313.103 272.667 311.177C271.697 309.251 272.629 306.986 273.788 305.149C274.929 303.312 276.336 301.458 276.317 299.318C273.845 298.212 271.355 300.619 269.568 302.563C267.781 304.507 264.303 306.202 262.668 304.133C262.877 306.255 263.086 308.36 263.295 310.482C259.797 313.353 253.486 312.087 251.528 308.146C250.178 309.715 248.677 311.374 246.604 311.926C244.532 312.479 241.814 311.249 241.833 309.233C242.898 313.603 247.498 316.956 252.269 316.849" fill="#E9EBEA"/>
<path d="M238.563 267.341C240.217 268.91 242.783 266.556 245.121 266.271C247.384 266.003 249.228 267.786 250.919 269.213C252.611 270.64 255.254 271.835 257.022 270.479C257.858 273.779 262.763 275.42 265.652 273.386C265.386 274.546 267.021 275.348 268.275 275.134C269.53 274.92 270.633 274.189 271.906 274.1C273.731 273.975 275.499 275.491 275.518 277.221C275.556 277.845 274.625 278.077 273.959 277.916C273.313 277.756 272.591 277.435 272.02 277.774C271.621 278.006 271.469 278.469 271.184 278.826C270.157 280.128 268.028 279.628 266.393 279.111C264.759 278.576 262.458 278.434 261.831 279.932C266.945 280.877 272.267 280.805 277.343 279.718C276.925 280.092 277.229 280.823 277.761 281.037C278.294 281.251 278.902 281.126 279.453 281.002C281.62 280.52 283.787 280.021 285.954 279.539C287.266 280.288 288.996 280.288 290.308 279.557C290.213 280.11 290.137 280.681 290.042 281.234C292.589 282.268 295.878 281.269 297.303 279.04C293.691 278.487 290.099 277.916 286.487 277.363C283.901 276.953 281.24 276.543 278.978 275.295C276.754 274.064 274.986 272.067 272.515 271.318C269.074 270.265 265.139 271.906 261.793 270.622C258.561 269.374 256.527 265.593 253.03 265.539C251.889 265.522 250.691 265.914 249.665 265.468C247.041 264.344 247.384 262.008 244 263.221C243.392 263.471 239.133 267.876 238.563 267.341Z" fill="#E9EBEA"/>
<path d="M528.236 203.191C526.582 206.365 525.84 209.914 526.487 213.392C527.608 219.384 532.551 224.913 531.163 230.87C528.996 230.335 526.848 229.817 524.681 229.3" fill="#E9EBEA"/>
<path d="M551.466 123.008C551.333 123.383 551.162 123.739 551.009 124.096Z" fill="#E9EBEA"/>
<path d="M551.883 120.636C551.845 119.209 551.199 117.854 550.21 116.731Z" fill="#E9EBEA"/>
</g>
</svg>
