<svg width="545" height="295" viewBox="0 0 545 295" fill="none" xmlns="http://www.w3.org/2000/svg">
<g clip-path="url(#clip0_386_182)">
<rect width="545" height="295" rx="12" fill="#37609B"/>
<path opacity="0.1" d="M372.5 235C427.215 206.916 436.5 53.5 264.5 -5H318.5H675.5C682 74.8333 695 236.8 695 246C695 257.5 671.976 442.466 618 395.5C579.5 362 203 322 372.5 235Z" fill="#D9D9D9"/>
<g opacity="0.1">
<path d="M204 42C161.542 42 127 76.5423 127 119C127 161.458 161.542 196 204 196C246.458 196 281 161.458 281 119C281 76.5423 246.458 42 204 42ZM204 187.676C185.137 187.676 168.026 180.03 155.603 167.676C150.618 162.72 146.418 157.032 143.15 150.809C138.156 141.293 135.324 130.472 135.324 119C135.324 81.1321 166.132 50.3244 204 50.3244C221.962 50.3244 238.332 57.2587 250.582 68.5872C256.934 74.4601 262.178 81.513 265.96 89.3962C270.263 98.3653 272.676 108.406 272.676 119C272.676 156.868 241.868 187.676 204 187.676Z" fill="#AAB1C1"/>
<path d="M178.852 110.156C183.449 110.156 187.176 106.429 187.176 101.831C187.176 97.2338 183.449 93.5068 178.852 93.5068C174.254 93.5068 170.527 97.2338 170.527 101.831C170.527 106.429 174.254 110.156 178.852 110.156Z" fill="#AAB1C1"/>
<path d="M230.363 110.156C234.961 110.156 238.688 106.429 238.688 101.831C238.688 97.2338 234.961 93.5068 230.363 93.5068C225.766 93.5068 222.039 97.2338 222.039 101.831C222.039 106.429 225.766 110.156 230.363 110.156Z" fill="#AAB1C1"/>
<path d="M203.851 161.661C219.955 161.661 235.389 153.425 244.226 139.751L237.234 135.232C229.119 147.789 214.276 154.797 199.414 153.082C187.831 151.747 177.12 145.073 170.761 135.232L163.77 139.751C171.464 151.659 184.433 159.734 198.46 161.352C200.26 161.559 202.058 161.661 203.851 161.661Z" fill="#AAB1C1"/>
</g>
</g>
<defs>
<clipPath id="clip0_386_182">
<rect width="545" height="295" rx="12" fill="white"/>
</clipPath>
</defs>
</svg>
