<svg width="271" height="40" viewBox="0 0 271 40" fill="none" xmlns="http://www.w3.org/2000/svg">
<path d="M1.90134 17.9565L17.7134 0.961887C18.2839 0.34874 19.0847 0.00197332 19.9222 0.00544274L257.012 0.987624C258.664 0.994467 260 2.3356 260 3.9876V37C260 38.6569 258.657 40 257 40H19.9148C19.0816 40 18.286 39.6535 17.7184 39.0435L1.90134 22.0435C0.829813 20.8919 0.829814 19.1081 1.90134 17.9565Z" fill="#37669F"/>
<path d="M269.876 20.1891C270.429 20.5883 270.429 21.4117 269.876 21.8109L260.585 28.5162C259.924 28.9935 259 28.521 259 27.7053L259 14.2947C259 13.479 259.924 13.0065 260.585 13.4838L269.876 20.1891Z" fill="#37669F"/>
</svg>
