<svg width="728" height="325" viewBox="0 0 728 325" fill="none" xmlns="http://www.w3.org/2000/svg">
<path d="M671.872 139.005H621.644C613.564 139.005 605.814 135.795 600.101 130.081C594.387 124.367 591.178 116.618 591.178 108.538V55.7182C591.178 41.0862 585.365 27.0535 575.019 16.7071C564.672 6.36067 550.64 0.548117 536.008 0.548117H461.16C446.528 0.548117 432.495 6.36067 422.149 16.7071C411.802 27.0535 405.99 41.0862 405.99 55.7182V108.538C405.99 116.618 402.78 124.367 397.067 130.081C391.353 135.795 383.604 139.005 375.524 139.005H350.717C346.716 139.006 342.754 138.218 339.057 136.687C335.36 135.156 332.001 132.912 329.172 130.082C326.342 127.253 324.098 123.894 322.567 120.198C321.035 116.501 320.247 112.539 320.247 108.538V55.1701C320.248 47.9251 318.821 40.751 316.048 34.0575C313.276 27.364 309.212 21.2821 304.089 16.159C298.966 11.036 292.885 6.97218 286.191 4.19961C279.498 1.42704 272.323 -1.9984e-09 265.079 0H190.231C175.599 0 161.566 5.81255 151.22 16.1589C140.873 26.5053 135.061 40.5381 135.061 55.1701V108.538C135.061 116.618 131.851 124.368 126.137 130.082C120.423 135.795 112.674 139.005 104.593 139.005H55.1688C47.9238 139.005 40.7498 140.432 34.0563 143.205C27.3628 145.977 21.281 150.041 16.1581 155.164C11.0352 160.287 6.97149 166.369 4.19908 173.063C1.42666 179.756 -0.00017015 186.93 1.52188e-08 194.175V269.023C1.11833e-08 283.655 5.81236 297.687 16.1585 308.034C26.5046 318.38 40.537 324.193 55.1688 324.193H130.016C144.648 324.193 158.681 318.38 169.028 308.034C179.374 297.688 185.187 283.655 185.187 269.023V215.654C185.187 207.574 188.397 199.825 194.111 194.111C199.824 188.398 207.574 185.188 215.654 185.188H239.78C247.86 185.188 255.609 188.398 261.323 194.111C267.036 199.825 270.246 207.574 270.246 215.654V269.023C270.246 283.655 276.059 297.687 286.405 308.034C296.752 318.38 310.784 324.193 325.416 324.193H400.264C414.896 324.193 428.929 318.38 439.275 308.034C449.621 297.688 455.434 283.655 455.434 269.023V216.202C455.435 208.123 458.646 200.375 464.359 194.662C470.073 188.95 477.822 185.741 485.901 185.741H511.388C515.389 185.741 519.351 186.529 523.047 188.06C526.744 189.591 530.102 191.835 532.932 194.664C535.761 197.493 538.005 200.852 539.536 204.548C541.067 208.245 541.855 212.206 541.855 216.207V269.028C541.857 283.659 547.67 297.69 558.016 308.035C568.362 318.381 582.393 324.193 597.024 324.193H671.872C686.504 324.193 700.537 318.38 710.883 308.034C721.229 297.688 727.042 283.655 727.042 269.023V194.175C727.042 179.543 721.229 165.511 710.883 155.164C700.537 144.818 686.504 139.005 671.872 139.005Z" fill="#E8EDFA"/>
<path d="M136 164H52C36.536 164 24 176.536 24 192V276C24 291.464 36.536 304 52 304H136C151.464 304 164 291.464 164 276V192C164 176.536 151.464 164 136 164Z" fill="url(#paint0_linear_386_926)"/>
<path d="M413 170H329C313.536 170 301 182.536 301 198V282C301 297.464 313.536 310 329 310H413C428.464 310 441 297.464 441 282V198C441 182.536 428.464 170 413 170Z" fill="#037FD9"/>
<path d="M684 170H600C584.536 170 572 182.536 572 198V282C572 297.464 584.536 310 600 310H684C699.464 310 712 297.464 712 282V198C712 182.536 699.464 170 684 170Z" fill="url(#paint1_linear_386_926)"/>
<path d="M268 14H184C168.536 14 156 26.536 156 42V126C156 141.464 168.536 154 184 154H268C283.464 154 296 141.464 296 126V42C296 26.536 283.464 14 268 14Z" fill="url(#paint2_linear_386_926)"/>
<path d="M539 11H455C439.536 11 427 23.536 427 39V123C427 138.464 439.536 151 455 151H539C554.464 151 567 138.464 567 123V39C567 23.536 554.464 11 539 11Z" fill="url(#paint3_linear_386_926)"/>
<path d="M131.199 172H56.8007C43.1036 172 32 183.104 32 196.801V271.199C32 284.896 43.1036 296 56.8007 296H131.199C144.896 296 156 284.896 156 271.199V196.801C156 183.104 144.896 172 131.199 172Z" fill="url(#paint4_linear_386_926)"/>
<path d="M408.2 178H333.8C320.103 178 309 189.104 309 202.801V277.199C309 290.896 320.103 302 333.8 302H408.2C421.897 302 433 290.896 433 277.199V202.801C433 189.104 421.897 178 408.2 178Z" fill="url(#paint5_linear_386_926)"/>
<path d="M679.199 178H604.801C591.104 178 580 189.104 580 202.801V277.199C580 290.896 591.104 302 604.801 302H679.199C692.896 302 704 290.896 704 277.199V202.801C704 189.104 692.896 178 679.199 178Z" fill="url(#paint6_linear_386_926)"/>
<path d="M263.199 22H188.801C175.104 22 164 33.1036 164 46.8007V121.199C164 134.896 175.104 146 188.801 146H263.199C276.896 146 288 134.896 288 121.199V46.8007C288 33.1036 276.896 22 263.199 22Z" fill="url(#paint7_linear_386_926)"/>
<path d="M534.199 19H459.801C446.104 19 435 30.1036 435 43.8007V118.199C435 131.896 446.104 143 459.801 143H534.199C547.896 143 559 131.896 559 118.199V43.8007C559 30.1036 547.896 19 534.199 19Z" fill="url(#paint8_linear_386_926)"/>
<path d="M159.872 170.74L154.995 165.861C154.449 165.318 154.071 164.629 153.906 163.877C153.741 163.125 153.795 162.341 154.063 161.619C154.331 160.897 154.8 160.267 155.415 159.805C156.031 159.342 156.766 159.066 157.534 159.009L160.774 158.764L168.085 158.212C168.662 158.168 169.242 158.249 169.786 158.45C170.329 158.651 170.823 158.968 171.232 159.377C171.642 159.787 171.958 160.28 172.159 160.824C172.36 161.367 172.441 161.947 172.397 162.525L171.845 169.836L171.6 173.075C171.543 173.843 171.267 174.578 170.805 175.194C170.342 175.809 169.712 176.279 168.99 176.546C168.268 176.814 167.484 176.868 166.732 176.703C165.98 176.538 165.291 176.16 164.748 175.615L159.872 170.74Z" fill="#D7D3D4"/>
<path d="M428.748 170.74L423.87 165.861C423.324 165.318 422.946 164.629 422.781 163.877C422.616 163.125 422.67 162.341 422.938 161.619C423.206 160.897 423.676 160.267 424.291 159.804C424.907 159.342 425.643 159.066 426.411 159.009L429.65 158.764L436.961 158.212C437.538 158.168 438.119 158.249 438.662 158.45C439.205 158.651 439.699 158.968 440.108 159.377C440.518 159.787 440.834 160.28 441.035 160.824C441.236 161.367 441.317 161.947 441.273 162.525L440.72 169.836L440.475 173.075C440.418 173.843 440.142 174.578 439.68 175.194C439.217 175.809 438.587 176.279 437.865 176.546C437.143 176.814 436.359 176.868 435.607 176.703C434.855 176.538 434.166 176.16 433.623 175.615L428.748 170.74Z" fill="#D7D3D4"/>
<path d="M287.878 159.379L292.756 154.501C293.299 153.955 293.988 153.577 294.74 153.412C295.492 153.246 296.276 153.301 296.999 153.568C297.721 153.836 298.351 154.306 298.814 154.921C299.277 155.537 299.553 156.273 299.609 157.041L299.854 160.28L300.406 167.591C300.45 168.169 300.369 168.749 300.168 169.292C299.967 169.836 299.651 170.329 299.241 170.739C298.832 171.148 298.338 171.465 297.795 171.666C297.252 171.867 296.671 171.948 296.094 171.903L288.783 171.351L285.543 171.107C284.775 171.05 284.04 170.774 283.424 170.312C282.808 169.849 282.339 169.219 282.071 168.497C281.803 167.775 281.749 166.991 281.914 166.239C282.079 165.487 282.457 164.798 283.002 164.254L287.878 159.379Z" fill="#D7D3D4"/>
<path d="M559.815 159.379L564.693 154.502C565.237 153.956 565.925 153.578 566.677 153.413C567.43 153.248 568.213 153.302 568.935 153.57C569.657 153.837 570.287 154.307 570.75 154.922C571.213 155.538 571.489 156.273 571.545 157.041L571.79 160.281L572.342 167.591C572.386 168.169 572.305 168.749 572.104 169.293C571.903 169.836 571.587 170.329 571.177 170.739C570.768 171.149 570.274 171.465 569.731 171.666C569.188 171.867 568.607 171.948 568.03 171.904L560.719 171.352L557.48 171.107C556.712 171.05 555.976 170.774 555.361 170.311C554.745 169.849 554.276 169.219 554.008 168.497C553.741 167.775 553.686 166.991 553.851 166.239C554.017 165.487 554.394 164.798 554.94 164.255L559.815 159.379Z" fill="#D7D3D4"/>
<path d="M47.3594 260H45.5V248.578H51.9531V250.156H47.3594V253.719H51.6562V255.289H47.3594V260ZM55.6797 251.352V260H53.8438V251.352H55.6797ZM54.7734 248.039C55.0547 248.039 55.2969 248.115 55.5 248.266C55.7083 248.417 55.8125 248.677 55.8125 249.047C55.8125 249.411 55.7083 249.672 55.5 249.828C55.2969 249.979 55.0547 250.055 54.7734 250.055C54.4818 250.055 54.2344 249.979 54.0312 249.828C53.8333 249.672 53.7344 249.411 53.7344 249.047C53.7344 248.677 53.8333 248.417 54.0312 248.266C54.2344 248.115 54.4818 248.039 54.7734 248.039ZM60.1562 260H58.3125V247.844H60.1562V260ZM64.625 260H62.7812V247.844H64.625V260ZM74.625 258.672C74.8646 258.672 75.1016 258.651 75.3359 258.609C75.5703 258.562 75.7839 258.508 75.9766 258.445V259.836C75.7734 259.924 75.5104 260 75.1875 260.062C74.8646 260.125 74.5286 260.156 74.1797 260.156C73.6901 260.156 73.25 260.076 72.8594 259.914C72.4688 259.747 72.1589 259.464 71.9297 259.062C71.7005 258.661 71.5859 258.107 71.5859 257.398V252.75H70.4062V251.93L71.6719 251.281L72.2734 249.43H73.4297V251.352H75.9062V252.75H73.4297V257.375C73.4297 257.812 73.5391 258.138 73.7578 258.352C73.9766 258.565 74.2656 258.672 74.625 258.672ZM79.5703 247.844V250.898C79.5703 251.216 79.5599 251.526 79.5391 251.828C79.5234 252.13 79.5052 252.365 79.4844 252.531H79.5859C79.7682 252.229 79.9922 251.982 80.2578 251.789C80.5234 251.591 80.8203 251.443 81.1484 251.344C81.4818 251.245 81.8359 251.195 82.2109 251.195C82.8724 251.195 83.4349 251.307 83.8984 251.531C84.362 251.75 84.7161 252.091 84.9609 252.555C85.2109 253.018 85.3359 253.62 85.3359 254.359V260H83.5V254.703C83.5 254.031 83.362 253.529 83.0859 253.195C82.8099 252.857 82.3828 252.688 81.8047 252.688C81.2474 252.688 80.8047 252.805 80.4766 253.039C80.1536 253.268 79.9219 253.609 79.7812 254.062C79.6406 254.51 79.5703 255.057 79.5703 255.703V260H77.7344V247.844H79.5703ZM91.3516 251.188C92.1224 251.188 92.7839 251.346 93.3359 251.664C93.888 251.982 94.3125 252.432 94.6094 253.016C94.9062 253.599 95.0547 254.297 95.0547 255.109V256.094H89.2812C89.3021 256.932 89.526 257.578 89.9531 258.031C90.3854 258.484 90.9896 258.711 91.7656 258.711C92.3177 258.711 92.8125 258.659 93.25 258.555C93.6927 258.445 94.1484 258.286 94.6172 258.078V259.57C94.1849 259.773 93.7448 259.922 93.2969 260.016C92.849 260.109 92.3125 260.156 91.6875 260.156C90.8385 260.156 90.0911 259.992 89.4453 259.664C88.8047 259.331 88.3021 258.836 87.9375 258.18C87.5781 257.523 87.3984 256.708 87.3984 255.734C87.3984 254.766 87.5625 253.943 87.8906 253.266C88.2188 252.589 88.6797 252.073 89.2734 251.719C89.8672 251.365 90.5599 251.188 91.3516 251.188ZM91.3516 252.57C90.7734 252.57 90.3047 252.758 89.9453 253.133C89.5911 253.508 89.3828 254.057 89.3203 254.781H93.2578C93.2526 254.349 93.1797 253.966 93.0391 253.633C92.9036 253.299 92.6953 253.039 92.4141 252.852C92.138 252.664 91.7839 252.57 91.3516 252.57ZM103.328 260H101.469V248.578H107.922V250.156H103.328V253.719H107.625V255.289H103.328V260ZM117.469 255.656C117.469 256.375 117.375 257.013 117.188 257.57C117 258.128 116.727 258.599 116.367 258.984C116.008 259.365 115.576 259.656 115.07 259.859C114.565 260.057 113.995 260.156 113.359 260.156C112.766 260.156 112.221 260.057 111.727 259.859C111.232 259.656 110.802 259.365 110.438 258.984C110.078 258.599 109.799 258.128 109.602 257.57C109.404 257.013 109.305 256.375 109.305 255.656C109.305 254.703 109.469 253.896 109.797 253.234C110.13 252.568 110.604 252.06 111.219 251.711C111.833 251.362 112.565 251.188 113.414 251.188C114.211 251.188 114.914 251.362 115.523 251.711C116.133 252.06 116.609 252.568 116.953 253.234C117.297 253.901 117.469 254.708 117.469 255.656ZM111.195 255.656C111.195 256.286 111.271 256.826 111.422 257.273C111.578 257.721 111.818 258.065 112.141 258.305C112.464 258.539 112.88 258.656 113.391 258.656C113.901 258.656 114.318 258.539 114.641 258.305C114.964 258.065 115.201 257.721 115.352 257.273C115.503 256.826 115.578 256.286 115.578 255.656C115.578 255.026 115.503 254.492 115.352 254.055C115.201 253.612 114.964 253.276 114.641 253.047C114.318 252.812 113.898 252.695 113.383 252.695C112.622 252.695 112.068 252.951 111.719 253.461C111.37 253.971 111.195 254.703 111.195 255.656ZM123.961 251.188C124.107 251.188 124.266 251.195 124.438 251.211C124.609 251.227 124.758 251.247 124.883 251.273L124.711 252.992C124.602 252.961 124.466 252.938 124.305 252.922C124.148 252.906 124.008 252.898 123.883 252.898C123.555 252.898 123.242 252.953 122.945 253.062C122.648 253.167 122.385 253.328 122.156 253.547C121.927 253.76 121.747 254.029 121.617 254.352C121.487 254.674 121.422 255.049 121.422 255.477V260H119.578V251.352H121.016L121.266 252.875H121.352C121.523 252.568 121.737 252.286 121.992 252.031C122.247 251.776 122.539 251.573 122.867 251.422C123.201 251.266 123.565 251.188 123.961 251.188ZM136.258 251.188C137.227 251.188 137.956 251.438 138.445 251.938C138.94 252.438 139.188 253.24 139.188 254.344V260H137.352V254.672C137.352 254.016 137.224 253.521 136.969 253.188C136.714 252.854 136.326 252.688 135.805 252.688C135.076 252.688 134.549 252.922 134.227 253.391C133.909 253.854 133.75 254.529 133.75 255.414V260H131.914V254.672C131.914 254.234 131.857 253.87 131.742 253.578C131.633 253.281 131.464 253.06 131.234 252.914C131.005 252.763 130.716 252.688 130.367 252.688C129.862 252.688 129.458 252.802 129.156 253.031C128.859 253.26 128.646 253.599 128.516 254.047C128.385 254.49 128.32 255.034 128.32 255.68V260H126.484V251.352H127.914L128.172 252.516H128.273C128.451 252.214 128.669 251.966 128.93 251.773C129.195 251.576 129.49 251.43 129.812 251.336C130.135 251.237 130.471 251.188 130.82 251.188C131.466 251.188 132.01 251.302 132.453 251.531C132.896 251.755 133.227 252.099 133.445 252.562H133.586C133.857 252.094 134.234 251.747 134.719 251.523C135.203 251.299 135.716 251.188 136.258 251.188Z" fill="black"/>
<path d="M196.148 103.797H200.414V109.531C199.815 109.729 199.195 109.883 198.555 109.992C197.914 110.102 197.195 110.156 196.398 110.156C195.237 110.156 194.253 109.927 193.445 109.469C192.643 109.005 192.034 108.336 191.617 107.461C191.201 106.581 190.992 105.521 190.992 104.281C190.992 103.089 191.224 102.055 191.688 101.18C192.151 100.299 192.826 99.6198 193.711 99.1406C194.596 98.6562 195.669 98.4141 196.93 98.4141C197.549 98.4141 198.148 98.4766 198.727 98.6016C199.31 98.7214 199.844 98.888 200.328 99.1016L199.672 100.648C199.286 100.466 198.854 100.312 198.375 100.188C197.896 100.062 197.398 100 196.883 100C196.065 100 195.359 100.177 194.766 100.531C194.177 100.885 193.724 101.385 193.406 102.031C193.089 102.672 192.93 103.43 192.93 104.305C192.93 105.154 193.057 105.898 193.312 106.539C193.568 107.18 193.966 107.68 194.508 108.039C195.055 108.393 195.76 108.57 196.625 108.57C197.057 108.57 197.424 108.547 197.727 108.5C198.029 108.453 198.307 108.401 198.562 108.344V105.398H196.148V103.797ZM206.406 101.188C207.177 101.188 207.839 101.346 208.391 101.664C208.943 101.982 209.367 102.432 209.664 103.016C209.961 103.599 210.109 104.297 210.109 105.109V106.094H204.336C204.357 106.932 204.581 107.578 205.008 108.031C205.44 108.484 206.044 108.711 206.82 108.711C207.372 108.711 207.867 108.659 208.305 108.555C208.747 108.445 209.203 108.286 209.672 108.078V109.57C209.24 109.773 208.799 109.922 208.352 110.016C207.904 110.109 207.367 110.156 206.742 110.156C205.893 110.156 205.146 109.992 204.5 109.664C203.859 109.331 203.357 108.836 202.992 108.18C202.633 107.523 202.453 106.708 202.453 105.734C202.453 104.766 202.617 103.943 202.945 103.266C203.273 102.589 203.734 102.073 204.328 101.719C204.922 101.365 205.615 101.188 206.406 101.188ZM206.406 102.57C205.828 102.57 205.359 102.758 205 103.133C204.646 103.508 204.438 104.057 204.375 104.781H208.312C208.307 104.349 208.234 103.966 208.094 103.633C207.958 103.299 207.75 103.039 207.469 102.852C207.193 102.664 206.839 102.57 206.406 102.57ZM215.398 108.672C215.638 108.672 215.875 108.651 216.109 108.609C216.344 108.562 216.557 108.508 216.75 108.445V109.836C216.547 109.924 216.284 110 215.961 110.062C215.638 110.125 215.302 110.156 214.953 110.156C214.464 110.156 214.023 110.076 213.633 109.914C213.242 109.747 212.932 109.464 212.703 109.062C212.474 108.661 212.359 108.107 212.359 107.398V102.75H211.18V101.93L212.445 101.281L213.047 99.4297H214.203V101.352H216.68V102.75H214.203V107.375C214.203 107.812 214.312 108.138 214.531 108.352C214.75 108.565 215.039 108.672 215.398 108.672ZM226.055 101.188C227.148 101.188 227.974 101.43 228.531 101.914C229.094 102.398 229.375 103.154 229.375 104.18V110H228.07L227.719 108.773H227.656C227.411 109.086 227.159 109.344 226.898 109.547C226.638 109.75 226.336 109.901 225.992 110C225.654 110.104 225.24 110.156 224.75 110.156C224.234 110.156 223.773 110.062 223.367 109.875C222.961 109.682 222.641 109.391 222.406 109C222.172 108.609 222.055 108.115 222.055 107.516C222.055 106.625 222.385 105.956 223.047 105.508C223.714 105.06 224.719 104.812 226.062 104.766L227.562 104.711V104.258C227.562 103.659 227.422 103.232 227.141 102.977C226.865 102.721 226.474 102.594 225.969 102.594C225.536 102.594 225.117 102.656 224.711 102.781C224.305 102.906 223.909 103.06 223.523 103.242L222.93 101.945C223.352 101.721 223.831 101.539 224.367 101.398C224.909 101.258 225.471 101.188 226.055 101.188ZM227.555 105.867L226.438 105.906C225.521 105.938 224.878 106.094 224.508 106.375C224.138 106.656 223.953 107.042 223.953 107.531C223.953 107.958 224.081 108.271 224.336 108.469C224.591 108.661 224.927 108.758 225.344 108.758C225.979 108.758 226.505 108.578 226.922 108.219C227.344 107.854 227.555 107.32 227.555 106.617V105.867ZM239.586 110.156C238.768 110.156 238.06 109.997 237.461 109.68C236.862 109.362 236.401 108.875 236.078 108.219C235.755 107.562 235.594 106.729 235.594 105.719C235.594 104.667 235.771 103.807 236.125 103.141C236.479 102.474 236.969 101.982 237.594 101.664C238.224 101.346 238.945 101.188 239.758 101.188C240.273 101.188 240.74 101.24 241.156 101.344C241.578 101.443 241.935 101.565 242.227 101.711L241.68 103.18C241.362 103.049 241.036 102.94 240.703 102.852C240.37 102.763 240.049 102.719 239.742 102.719C239.237 102.719 238.815 102.831 238.477 103.055C238.143 103.279 237.893 103.612 237.727 104.055C237.565 104.497 237.484 105.047 237.484 105.703C237.484 106.339 237.568 106.875 237.734 107.312C237.901 107.745 238.148 108.073 238.477 108.297C238.805 108.516 239.208 108.625 239.688 108.625C240.161 108.625 240.586 108.568 240.961 108.453C241.336 108.339 241.69 108.19 242.023 108.008V109.602C241.695 109.789 241.344 109.927 240.969 110.016C240.594 110.109 240.133 110.156 239.586 110.156ZM247.445 101.188C248.539 101.188 249.365 101.43 249.922 101.914C250.484 102.398 250.766 103.154 250.766 104.18V110H249.461L249.109 108.773H249.047C248.802 109.086 248.549 109.344 248.289 109.547C248.029 109.75 247.727 109.901 247.383 110C247.044 110.104 246.63 110.156 246.141 110.156C245.625 110.156 245.164 110.062 244.758 109.875C244.352 109.682 244.031 109.391 243.797 109C243.562 108.609 243.445 108.115 243.445 107.516C243.445 106.625 243.776 105.956 244.438 105.508C245.104 105.06 246.109 104.812 247.453 104.766L248.953 104.711V104.258C248.953 103.659 248.812 103.232 248.531 102.977C248.255 102.721 247.865 102.594 247.359 102.594C246.927 102.594 246.508 102.656 246.102 102.781C245.695 102.906 245.299 103.06 244.914 103.242L244.32 101.945C244.742 101.721 245.221 101.539 245.758 101.398C246.299 101.258 246.862 101.188 247.445 101.188ZM248.945 105.867L247.828 105.906C246.911 105.938 246.268 106.094 245.898 106.375C245.529 106.656 245.344 107.042 245.344 107.531C245.344 107.958 245.471 108.271 245.727 108.469C245.982 108.661 246.318 108.758 246.734 108.758C247.37 108.758 247.896 108.578 248.312 108.219C248.734 107.854 248.945 107.32 248.945 106.617V105.867ZM255.18 110H253.336V97.8438H255.18V110ZM259.648 110H257.805V97.8438H259.648V110ZM210.461 119.844V122.773C210.461 123.112 210.451 123.445 210.43 123.773C210.414 124.096 210.398 124.349 210.383 124.531H210.461C210.695 124.156 211.021 123.841 211.438 123.586C211.859 123.326 212.398 123.195 213.055 123.195C214.081 123.195 214.906 123.573 215.531 124.328C216.156 125.078 216.469 126.19 216.469 127.664C216.469 128.643 216.326 129.466 216.039 130.133C215.753 130.799 215.349 131.305 214.828 131.648C214.312 131.987 213.706 132.156 213.008 132.156C212.352 132.156 211.82 132.036 211.414 131.797C211.013 131.552 210.698 131.268 210.469 130.945H210.336L210 132H208.625V119.844H210.461ZM212.57 124.688C212.049 124.688 211.635 124.792 211.328 125C211.026 125.208 210.807 125.521 210.672 125.938C210.536 126.349 210.466 126.872 210.461 127.508V127.672C210.461 128.635 210.612 129.372 210.914 129.883C211.221 130.393 211.779 130.648 212.586 130.648C213.227 130.648 213.719 130.391 214.062 129.875C214.406 129.354 214.578 128.609 214.578 127.641C214.578 126.661 214.406 125.924 214.062 125.43C213.724 124.935 213.227 124.688 212.57 124.688ZM221.984 123.188C223.078 123.188 223.904 123.43 224.461 123.914C225.023 124.398 225.305 125.154 225.305 126.18V132H224L223.648 130.773H223.586C223.341 131.086 223.089 131.344 222.828 131.547C222.568 131.75 222.266 131.901 221.922 132C221.583 132.104 221.169 132.156 220.68 132.156C220.164 132.156 219.703 132.062 219.297 131.875C218.891 131.682 218.57 131.391 218.336 131C218.102 130.609 217.984 130.115 217.984 129.516C217.984 128.625 218.315 127.956 218.977 127.508C219.643 127.06 220.648 126.812 221.992 126.766L223.492 126.711V126.258C223.492 125.659 223.352 125.232 223.07 124.977C222.794 124.721 222.404 124.594 221.898 124.594C221.466 124.594 221.047 124.656 220.641 124.781C220.234 124.906 219.839 125.06 219.453 125.242L218.859 123.945C219.281 123.721 219.76 123.539 220.297 123.398C220.839 123.258 221.401 123.188 221.984 123.188ZM223.484 127.867L222.367 127.906C221.451 127.938 220.807 128.094 220.438 128.375C220.068 128.656 219.883 129.042 219.883 129.531C219.883 129.958 220.01 130.271 220.266 130.469C220.521 130.661 220.857 130.758 221.273 130.758C221.909 130.758 222.435 130.578 222.852 130.219C223.273 129.854 223.484 129.32 223.484 128.617V127.867ZM231.359 132.156C230.542 132.156 229.833 131.997 229.234 131.68C228.635 131.362 228.174 130.875 227.852 130.219C227.529 129.562 227.367 128.729 227.367 127.719C227.367 126.667 227.544 125.807 227.898 125.141C228.253 124.474 228.742 123.982 229.367 123.664C229.997 123.346 230.719 123.188 231.531 123.188C232.047 123.188 232.513 123.24 232.93 123.344C233.352 123.443 233.708 123.565 234 123.711L233.453 125.18C233.135 125.049 232.81 124.94 232.477 124.852C232.143 124.763 231.823 124.719 231.516 124.719C231.01 124.719 230.589 124.831 230.25 125.055C229.917 125.279 229.667 125.612 229.5 126.055C229.339 126.497 229.258 127.047 229.258 127.703C229.258 128.339 229.341 128.875 229.508 129.312C229.674 129.745 229.922 130.073 230.25 130.297C230.578 130.516 230.982 130.625 231.461 130.625C231.935 130.625 232.359 130.568 232.734 130.453C233.109 130.339 233.464 130.19 233.797 130.008V131.602C233.469 131.789 233.117 131.927 232.742 132.016C232.367 132.109 231.906 132.156 231.359 132.156ZM237.664 119.844V125.719C237.664 125.984 237.654 126.276 237.633 126.594C237.612 126.906 237.591 127.201 237.57 127.477H237.609C237.745 127.294 237.906 127.081 238.094 126.836C238.286 126.591 238.469 126.378 238.641 126.195L241.281 123.352H243.391L239.93 127.07L243.617 132H241.461L238.695 128.203L237.664 129.086V132H235.828V119.844H237.664Z" fill="black"/>
<path d="M342.148 252.797H346.414V258.531C345.815 258.729 345.195 258.883 344.555 258.992C343.914 259.102 343.195 259.156 342.398 259.156C341.237 259.156 340.253 258.927 339.445 258.469C338.643 258.005 338.034 257.336 337.617 256.461C337.201 255.581 336.992 254.521 336.992 253.281C336.992 252.089 337.224 251.055 337.688 250.18C338.151 249.299 338.826 248.62 339.711 248.141C340.596 247.656 341.669 247.414 342.93 247.414C343.549 247.414 344.148 247.477 344.727 247.602C345.31 247.721 345.844 247.888 346.328 248.102L345.672 249.648C345.286 249.466 344.854 249.312 344.375 249.188C343.896 249.062 343.398 249 342.883 249C342.065 249 341.359 249.177 340.766 249.531C340.177 249.885 339.724 250.385 339.406 251.031C339.089 251.672 338.93 252.43 338.93 253.305C338.93 254.154 339.057 254.898 339.312 255.539C339.568 256.18 339.966 256.68 340.508 257.039C341.055 257.393 341.76 257.57 342.625 257.57C343.057 257.57 343.424 257.547 343.727 257.5C344.029 257.453 344.307 257.401 344.562 257.344V254.398H342.148V252.797ZM352.406 250.188C353.177 250.188 353.839 250.346 354.391 250.664C354.943 250.982 355.367 251.432 355.664 252.016C355.961 252.599 356.109 253.297 356.109 254.109V255.094H350.336C350.357 255.932 350.581 256.578 351.008 257.031C351.44 257.484 352.044 257.711 352.82 257.711C353.372 257.711 353.867 257.659 354.305 257.555C354.747 257.445 355.203 257.286 355.672 257.078V258.57C355.24 258.773 354.799 258.922 354.352 259.016C353.904 259.109 353.367 259.156 352.742 259.156C351.893 259.156 351.146 258.992 350.5 258.664C349.859 258.331 349.357 257.836 348.992 257.18C348.633 256.523 348.453 255.708 348.453 254.734C348.453 253.766 348.617 252.943 348.945 252.266C349.273 251.589 349.734 251.073 350.328 250.719C350.922 250.365 351.615 250.188 352.406 250.188ZM352.406 251.57C351.828 251.57 351.359 251.758 351 252.133C350.646 252.508 350.438 253.057 350.375 253.781H354.312C354.307 253.349 354.234 252.966 354.094 252.633C353.958 252.299 353.75 252.039 353.469 251.852C353.193 251.664 352.839 251.57 352.406 251.57ZM361.398 257.672C361.638 257.672 361.875 257.651 362.109 257.609C362.344 257.562 362.557 257.508 362.75 257.445V258.836C362.547 258.924 362.284 259 361.961 259.062C361.638 259.125 361.302 259.156 360.953 259.156C360.464 259.156 360.023 259.076 359.633 258.914C359.242 258.747 358.932 258.464 358.703 258.062C358.474 257.661 358.359 257.107 358.359 256.398V251.75H357.18V250.93L358.445 250.281L359.047 248.43H360.203V250.352H362.68V251.75H360.203V256.375C360.203 256.812 360.312 257.138 360.531 257.352C360.75 257.565 361.039 257.672 361.398 257.672ZM372.055 250.188C373.148 250.188 373.974 250.43 374.531 250.914C375.094 251.398 375.375 252.154 375.375 253.18V259H374.07L373.719 257.773H373.656C373.411 258.086 373.159 258.344 372.898 258.547C372.638 258.75 372.336 258.901 371.992 259C371.654 259.104 371.24 259.156 370.75 259.156C370.234 259.156 369.773 259.062 369.367 258.875C368.961 258.682 368.641 258.391 368.406 258C368.172 257.609 368.055 257.115 368.055 256.516C368.055 255.625 368.385 254.956 369.047 254.508C369.714 254.06 370.719 253.812 372.062 253.766L373.562 253.711V253.258C373.562 252.659 373.422 252.232 373.141 251.977C372.865 251.721 372.474 251.594 371.969 251.594C371.536 251.594 371.117 251.656 370.711 251.781C370.305 251.906 369.909 252.06 369.523 252.242L368.93 250.945C369.352 250.721 369.831 250.539 370.367 250.398C370.909 250.258 371.471 250.188 372.055 250.188ZM373.555 254.867L372.438 254.906C371.521 254.938 370.878 255.094 370.508 255.375C370.138 255.656 369.953 256.042 369.953 256.531C369.953 256.958 370.081 257.271 370.336 257.469C370.591 257.661 370.927 257.758 371.344 257.758C371.979 257.758 372.505 257.578 372.922 257.219C373.344 256.854 373.555 256.32 373.555 255.617V254.867ZM385.586 259.156C384.768 259.156 384.06 258.997 383.461 258.68C382.862 258.362 382.401 257.875 382.078 257.219C381.755 256.562 381.594 255.729 381.594 254.719C381.594 253.667 381.771 252.807 382.125 252.141C382.479 251.474 382.969 250.982 383.594 250.664C384.224 250.346 384.945 250.188 385.758 250.188C386.273 250.188 386.74 250.24 387.156 250.344C387.578 250.443 387.935 250.565 388.227 250.711L387.68 252.18C387.362 252.049 387.036 251.94 386.703 251.852C386.37 251.763 386.049 251.719 385.742 251.719C385.237 251.719 384.815 251.831 384.477 252.055C384.143 252.279 383.893 252.612 383.727 253.055C383.565 253.497 383.484 254.047 383.484 254.703C383.484 255.339 383.568 255.875 383.734 256.312C383.901 256.745 384.148 257.073 384.477 257.297C384.805 257.516 385.208 257.625 385.688 257.625C386.161 257.625 386.586 257.568 386.961 257.453C387.336 257.339 387.69 257.19 388.023 257.008V258.602C387.695 258.789 387.344 258.927 386.969 259.016C386.594 259.109 386.133 259.156 385.586 259.156ZM393.445 250.188C394.539 250.188 395.365 250.43 395.922 250.914C396.484 251.398 396.766 252.154 396.766 253.18V259H395.461L395.109 257.773H395.047C394.802 258.086 394.549 258.344 394.289 258.547C394.029 258.75 393.727 258.901 393.383 259C393.044 259.104 392.63 259.156 392.141 259.156C391.625 259.156 391.164 259.062 390.758 258.875C390.352 258.682 390.031 258.391 389.797 258C389.562 257.609 389.445 257.115 389.445 256.516C389.445 255.625 389.776 254.956 390.438 254.508C391.104 254.06 392.109 253.812 393.453 253.766L394.953 253.711V253.258C394.953 252.659 394.812 252.232 394.531 251.977C394.255 251.721 393.865 251.594 393.359 251.594C392.927 251.594 392.508 251.656 392.102 251.781C391.695 251.906 391.299 252.06 390.914 252.242L390.32 250.945C390.742 250.721 391.221 250.539 391.758 250.398C392.299 250.258 392.862 250.188 393.445 250.188ZM394.945 254.867L393.828 254.906C392.911 254.938 392.268 255.094 391.898 255.375C391.529 255.656 391.344 256.042 391.344 256.531C391.344 256.958 391.471 257.271 391.727 257.469C391.982 257.661 392.318 257.758 392.734 257.758C393.37 257.758 393.896 257.578 394.312 257.219C394.734 256.854 394.945 256.32 394.945 255.617V254.867ZM401.18 259H399.336V246.844H401.18V259ZM405.648 259H403.805V246.844H405.648V259ZM356.461 268.844V271.773C356.461 272.112 356.451 272.445 356.43 272.773C356.414 273.096 356.398 273.349 356.383 273.531H356.461C356.695 273.156 357.021 272.841 357.438 272.586C357.859 272.326 358.398 272.195 359.055 272.195C360.081 272.195 360.906 272.573 361.531 273.328C362.156 274.078 362.469 275.19 362.469 276.664C362.469 277.643 362.326 278.466 362.039 279.133C361.753 279.799 361.349 280.305 360.828 280.648C360.312 280.987 359.706 281.156 359.008 281.156C358.352 281.156 357.82 281.036 357.414 280.797C357.013 280.552 356.698 280.268 356.469 279.945H356.336L356 281H354.625V268.844H356.461ZM358.57 273.688C358.049 273.688 357.635 273.792 357.328 274C357.026 274.208 356.807 274.521 356.672 274.938C356.536 275.349 356.466 275.872 356.461 276.508V276.672C356.461 277.635 356.612 278.372 356.914 278.883C357.221 279.393 357.779 279.648 358.586 279.648C359.227 279.648 359.719 279.391 360.062 278.875C360.406 278.354 360.578 277.609 360.578 276.641C360.578 275.661 360.406 274.924 360.062 274.43C359.724 273.935 359.227 273.688 358.57 273.688ZM367.984 272.188C369.078 272.188 369.904 272.43 370.461 272.914C371.023 273.398 371.305 274.154 371.305 275.18V281H370L369.648 279.773H369.586C369.341 280.086 369.089 280.344 368.828 280.547C368.568 280.75 368.266 280.901 367.922 281C367.583 281.104 367.169 281.156 366.68 281.156C366.164 281.156 365.703 281.062 365.297 280.875C364.891 280.682 364.57 280.391 364.336 280C364.102 279.609 363.984 279.115 363.984 278.516C363.984 277.625 364.315 276.956 364.977 276.508C365.643 276.06 366.648 275.812 367.992 275.766L369.492 275.711V275.258C369.492 274.659 369.352 274.232 369.07 273.977C368.794 273.721 368.404 273.594 367.898 273.594C367.466 273.594 367.047 273.656 366.641 273.781C366.234 273.906 365.839 274.06 365.453 274.242L364.859 272.945C365.281 272.721 365.76 272.539 366.297 272.398C366.839 272.258 367.401 272.188 367.984 272.188ZM369.484 276.867L368.367 276.906C367.451 276.938 366.807 277.094 366.438 277.375C366.068 277.656 365.883 278.042 365.883 278.531C365.883 278.958 366.01 279.271 366.266 279.469C366.521 279.661 366.857 279.758 367.273 279.758C367.909 279.758 368.435 279.578 368.852 279.219C369.273 278.854 369.484 278.32 369.484 277.617V276.867ZM377.359 281.156C376.542 281.156 375.833 280.997 375.234 280.68C374.635 280.362 374.174 279.875 373.852 279.219C373.529 278.562 373.367 277.729 373.367 276.719C373.367 275.667 373.544 274.807 373.898 274.141C374.253 273.474 374.742 272.982 375.367 272.664C375.997 272.346 376.719 272.188 377.531 272.188C378.047 272.188 378.513 272.24 378.93 272.344C379.352 272.443 379.708 272.565 380 272.711L379.453 274.18C379.135 274.049 378.81 273.94 378.477 273.852C378.143 273.763 377.823 273.719 377.516 273.719C377.01 273.719 376.589 273.831 376.25 274.055C375.917 274.279 375.667 274.612 375.5 275.055C375.339 275.497 375.258 276.047 375.258 276.703C375.258 277.339 375.341 277.875 375.508 278.312C375.674 278.745 375.922 279.073 376.25 279.297C376.578 279.516 376.982 279.625 377.461 279.625C377.935 279.625 378.359 279.568 378.734 279.453C379.109 279.339 379.464 279.19 379.797 279.008V280.602C379.469 280.789 379.117 280.927 378.742 281.016C378.367 281.109 377.906 281.156 377.359 281.156ZM383.664 268.844V274.719C383.664 274.984 383.654 275.276 383.633 275.594C383.612 275.906 383.591 276.201 383.57 276.477H383.609C383.745 276.294 383.906 276.081 384.094 275.836C384.286 275.591 384.469 275.378 384.641 275.195L387.281 272.352H389.391L385.93 276.07L389.617 281H387.461L384.695 277.203L383.664 278.086V281H381.828V268.844H383.664Z" fill="black"/>
<path d="M481.781 107H479.898V97.1719H476.555V95.5781H485.117V97.1719H481.781V107ZM491.062 98.1875C491.208 98.1875 491.367 98.1953 491.539 98.2109C491.711 98.2266 491.859 98.2474 491.984 98.2734L491.812 99.9922C491.703 99.9609 491.568 99.9375 491.406 99.9219C491.25 99.9062 491.109 99.8984 490.984 99.8984C490.656 99.8984 490.344 99.9531 490.047 100.062C489.75 100.167 489.487 100.328 489.258 100.547C489.029 100.76 488.849 101.029 488.719 101.352C488.589 101.674 488.523 102.049 488.523 102.477V107H486.68V98.3516H488.117L488.367 99.875H488.453C488.625 99.5677 488.839 99.2865 489.094 99.0312C489.349 98.776 489.641 98.5729 489.969 98.4219C490.302 98.2656 490.667 98.1875 491.062 98.1875ZM496.977 98.1875C498.07 98.1875 498.896 98.4297 499.453 98.9141C500.016 99.3984 500.297 100.154 500.297 101.18V107H498.992L498.641 105.773H498.578C498.333 106.086 498.081 106.344 497.82 106.547C497.56 106.75 497.258 106.901 496.914 107C496.576 107.104 496.161 107.156 495.672 107.156C495.156 107.156 494.695 107.062 494.289 106.875C493.883 106.682 493.562 106.391 493.328 106C493.094 105.609 492.977 105.115 492.977 104.516C492.977 103.625 493.307 102.956 493.969 102.508C494.635 102.06 495.641 101.812 496.984 101.766L498.484 101.711V101.258C498.484 100.659 498.344 100.232 498.062 99.9766C497.786 99.7214 497.396 99.5938 496.891 99.5938C496.458 99.5938 496.039 99.6562 495.633 99.7812C495.227 99.9062 494.831 100.06 494.445 100.242L493.852 98.9453C494.273 98.7214 494.753 98.5391 495.289 98.3984C495.831 98.2578 496.393 98.1875 496.977 98.1875ZM498.477 102.867L497.359 102.906C496.443 102.938 495.799 103.094 495.43 103.375C495.06 103.656 494.875 104.042 494.875 104.531C494.875 104.958 495.003 105.271 495.258 105.469C495.513 105.661 495.849 105.758 496.266 105.758C496.901 105.758 497.427 105.578 497.844 105.219C498.266 104.854 498.477 104.32 498.477 103.617V102.867ZM506.352 107.156C505.534 107.156 504.826 106.997 504.227 106.68C503.628 106.362 503.167 105.875 502.844 105.219C502.521 104.562 502.359 103.729 502.359 102.719C502.359 101.667 502.536 100.807 502.891 100.141C503.245 99.474 503.734 98.9818 504.359 98.6641C504.99 98.3464 505.711 98.1875 506.523 98.1875C507.039 98.1875 507.505 98.2396 507.922 98.3438C508.344 98.4427 508.701 98.5651 508.992 98.7109L508.445 100.18C508.128 100.049 507.802 99.9401 507.469 99.8516C507.135 99.763 506.815 99.7188 506.508 99.7188C506.003 99.7188 505.581 99.8307 505.242 100.055C504.909 100.279 504.659 100.612 504.492 101.055C504.331 101.497 504.25 102.047 504.25 102.703C504.25 103.339 504.333 103.875 504.5 104.312C504.667 104.745 504.914 105.073 505.242 105.297C505.57 105.516 505.974 105.625 506.453 105.625C506.927 105.625 507.352 105.568 507.727 105.453C508.102 105.339 508.456 105.19 508.789 105.008V106.602C508.461 106.789 508.109 106.927 507.734 107.016C507.359 107.109 506.898 107.156 506.352 107.156ZM512.656 94.8438V100.719C512.656 100.984 512.646 101.276 512.625 101.594C512.604 101.906 512.583 102.201 512.562 102.477H512.602C512.737 102.294 512.898 102.081 513.086 101.836C513.279 101.591 513.461 101.378 513.633 101.195L516.273 98.3516H518.383L514.922 102.07L518.609 107H516.453L513.688 103.203L512.656 104.086V107H510.82V94.8438H512.656ZM468.766 117.578C470.24 117.578 471.315 117.88 471.992 118.484C472.669 119.089 473.008 119.935 473.008 121.023C473.008 121.518 472.93 121.99 472.773 122.438C472.622 122.88 472.372 123.273 472.023 123.617C471.674 123.956 471.214 124.224 470.641 124.422C470.073 124.62 469.372 124.719 468.539 124.719H467.32V129H465.445V117.578H468.766ZM468.641 119.133H467.32V123.156H468.344C468.932 123.156 469.432 123.089 469.844 122.953C470.255 122.812 470.568 122.591 470.781 122.289C470.995 121.987 471.102 121.589 471.102 121.094C471.102 120.432 470.901 119.94 470.5 119.617C470.104 119.294 469.484 119.133 468.641 119.133ZM479.484 120.188C479.63 120.188 479.789 120.195 479.961 120.211C480.133 120.227 480.281 120.247 480.406 120.273L480.234 121.992C480.125 121.961 479.99 121.938 479.828 121.922C479.672 121.906 479.531 121.898 479.406 121.898C479.078 121.898 478.766 121.953 478.469 122.062C478.172 122.167 477.909 122.328 477.68 122.547C477.451 122.76 477.271 123.029 477.141 123.352C477.01 123.674 476.945 124.049 476.945 124.477V129H475.102V120.352H476.539L476.789 121.875H476.875C477.047 121.568 477.26 121.286 477.516 121.031C477.771 120.776 478.062 120.573 478.391 120.422C478.724 120.266 479.089 120.188 479.484 120.188ZM489.664 124.656C489.664 125.375 489.57 126.013 489.383 126.57C489.195 127.128 488.922 127.599 488.562 127.984C488.203 128.365 487.771 128.656 487.266 128.859C486.76 129.057 486.19 129.156 485.555 129.156C484.961 129.156 484.417 129.057 483.922 128.859C483.427 128.656 482.997 128.365 482.633 127.984C482.273 127.599 481.995 127.128 481.797 126.57C481.599 126.013 481.5 125.375 481.5 124.656C481.5 123.703 481.664 122.896 481.992 122.234C482.326 121.568 482.799 121.06 483.414 120.711C484.029 120.362 484.76 120.188 485.609 120.188C486.406 120.188 487.109 120.362 487.719 120.711C488.328 121.06 488.805 121.568 489.148 122.234C489.492 122.901 489.664 123.708 489.664 124.656ZM483.391 124.656C483.391 125.286 483.466 125.826 483.617 126.273C483.773 126.721 484.013 127.065 484.336 127.305C484.659 127.539 485.076 127.656 485.586 127.656C486.096 127.656 486.513 127.539 486.836 127.305C487.159 127.065 487.396 126.721 487.547 126.273C487.698 125.826 487.773 125.286 487.773 124.656C487.773 124.026 487.698 123.492 487.547 123.055C487.396 122.612 487.159 122.276 486.836 122.047C486.513 121.812 486.094 121.695 485.578 121.695C484.818 121.695 484.263 121.951 483.914 122.461C483.565 122.971 483.391 123.703 483.391 124.656ZM494.242 132.844C493.07 132.844 492.172 132.633 491.547 132.211C490.922 131.789 490.609 131.198 490.609 130.438C490.609 129.906 490.776 129.456 491.109 129.086C491.443 128.721 491.919 128.469 492.539 128.328C492.305 128.224 492.102 128.062 491.93 127.844C491.763 127.62 491.68 127.372 491.68 127.102C491.68 126.779 491.771 126.503 491.953 126.273C492.135 126.044 492.409 125.823 492.773 125.609C492.32 125.417 491.956 125.104 491.68 124.672C491.409 124.234 491.273 123.721 491.273 123.133C491.273 122.508 491.406 121.977 491.672 121.539C491.938 121.096 492.326 120.76 492.836 120.531C493.346 120.297 493.964 120.18 494.688 120.18C494.844 120.18 495.013 120.19 495.195 120.211C495.383 120.227 495.555 120.247 495.711 120.273C495.872 120.294 495.995 120.318 496.078 120.344H499.07V121.367L497.602 121.641C497.742 121.839 497.854 122.065 497.938 122.32C498.021 122.57 498.062 122.844 498.062 123.141C498.062 124.036 497.753 124.742 497.133 125.258C496.518 125.768 495.669 126.023 494.586 126.023C494.326 126.013 494.073 125.992 493.828 125.961C493.641 126.076 493.497 126.203 493.398 126.344C493.299 126.479 493.25 126.633 493.25 126.805C493.25 126.945 493.299 127.06 493.398 127.148C493.497 127.232 493.643 127.294 493.836 127.336C494.034 127.378 494.273 127.398 494.555 127.398H496.047C496.995 127.398 497.719 127.599 498.219 128C498.719 128.401 498.969 128.99 498.969 129.766C498.969 130.75 498.562 131.508 497.75 132.039C496.938 132.576 495.768 132.844 494.242 132.844ZM494.312 131.555C494.953 131.555 495.492 131.492 495.93 131.367C496.367 131.242 496.698 131.062 496.922 130.828C497.146 130.599 497.258 130.326 497.258 130.008C497.258 129.727 497.188 129.51 497.047 129.359C496.906 129.208 496.695 129.104 496.414 129.047C496.133 128.99 495.784 128.961 495.367 128.961H494.008C493.669 128.961 493.37 129.013 493.109 129.117C492.849 129.227 492.646 129.383 492.5 129.586C492.359 129.789 492.289 130.034 492.289 130.32C492.289 130.716 492.464 131.021 492.812 131.234C493.167 131.448 493.667 131.555 494.312 131.555ZM494.672 124.82C495.208 124.82 495.607 124.674 495.867 124.383C496.128 124.086 496.258 123.669 496.258 123.133C496.258 122.549 496.122 122.112 495.852 121.82C495.586 121.529 495.19 121.383 494.664 121.383C494.148 121.383 493.755 121.531 493.484 121.828C493.219 122.125 493.086 122.565 493.086 123.148C493.086 123.674 493.219 124.086 493.484 124.383C493.755 124.674 494.151 124.82 494.672 124.82ZM505.031 120.188C505.177 120.188 505.336 120.195 505.508 120.211C505.68 120.227 505.828 120.247 505.953 120.273L505.781 121.992C505.672 121.961 505.536 121.938 505.375 121.922C505.219 121.906 505.078 121.898 504.953 121.898C504.625 121.898 504.312 121.953 504.016 122.062C503.719 122.167 503.456 122.328 503.227 122.547C502.997 122.76 502.818 123.029 502.688 123.352C502.557 123.674 502.492 124.049 502.492 124.477V129H500.648V120.352H502.086L502.336 121.875H502.422C502.594 121.568 502.807 121.286 503.062 121.031C503.318 120.776 503.609 120.573 503.938 120.422C504.271 120.266 504.635 120.188 505.031 120.188ZM511 120.188C511.771 120.188 512.432 120.346 512.984 120.664C513.536 120.982 513.961 121.432 514.258 122.016C514.555 122.599 514.703 123.297 514.703 124.109V125.094H508.93C508.951 125.932 509.174 126.578 509.602 127.031C510.034 127.484 510.638 127.711 511.414 127.711C511.966 127.711 512.461 127.659 512.898 127.555C513.341 127.445 513.797 127.286 514.266 127.078V128.57C513.833 128.773 513.393 128.922 512.945 129.016C512.497 129.109 511.961 129.156 511.336 129.156C510.487 129.156 509.74 128.992 509.094 128.664C508.453 128.331 507.951 127.836 507.586 127.18C507.227 126.523 507.047 125.708 507.047 124.734C507.047 123.766 507.211 122.943 507.539 122.266C507.867 121.589 508.328 121.073 508.922 120.719C509.516 120.365 510.208 120.188 511 120.188ZM511 121.57C510.422 121.57 509.953 121.758 509.594 122.133C509.24 122.508 509.031 123.057 508.969 123.781H512.906C512.901 123.349 512.828 122.966 512.688 122.633C512.552 122.299 512.344 122.039 512.062 121.852C511.786 121.664 511.432 121.57 511 121.57ZM522.586 126.531C522.586 127.099 522.448 127.578 522.172 127.969C521.896 128.359 521.492 128.656 520.961 128.859C520.435 129.057 519.789 129.156 519.023 129.156C518.419 129.156 517.898 129.112 517.461 129.023C517.029 128.94 516.62 128.81 516.234 128.633V127.047C516.646 127.24 517.107 127.406 517.617 127.547C518.133 127.688 518.62 127.758 519.078 127.758C519.682 127.758 520.117 127.664 520.383 127.477C520.648 127.284 520.781 127.029 520.781 126.711C520.781 126.523 520.727 126.357 520.617 126.211C520.513 126.06 520.315 125.906 520.023 125.75C519.737 125.589 519.315 125.396 518.758 125.172C518.211 124.953 517.75 124.734 517.375 124.516C517 124.297 516.716 124.034 516.523 123.727C516.331 123.414 516.234 123.016 516.234 122.531C516.234 121.766 516.536 121.185 517.141 120.789C517.75 120.388 518.555 120.188 519.555 120.188C520.086 120.188 520.586 120.242 521.055 120.352C521.529 120.456 521.992 120.609 522.445 120.812L521.867 122.195C521.477 122.023 521.083 121.883 520.688 121.773C520.297 121.659 519.898 121.602 519.492 121.602C519.018 121.602 518.656 121.674 518.406 121.82C518.161 121.966 518.039 122.174 518.039 122.445C518.039 122.648 518.099 122.82 518.219 122.961C518.339 123.102 518.544 123.242 518.836 123.383C519.133 123.523 519.544 123.698 520.07 123.906C520.586 124.104 521.031 124.312 521.406 124.531C521.786 124.745 522.078 125.008 522.281 125.32C522.484 125.633 522.586 126.036 522.586 126.531ZM530.383 126.531C530.383 127.099 530.245 127.578 529.969 127.969C529.693 128.359 529.289 128.656 528.758 128.859C528.232 129.057 527.586 129.156 526.82 129.156C526.216 129.156 525.695 129.112 525.258 129.023C524.826 128.94 524.417 128.81 524.031 128.633V127.047C524.443 127.24 524.904 127.406 525.414 127.547C525.93 127.688 526.417 127.758 526.875 127.758C527.479 127.758 527.914 127.664 528.18 127.477C528.445 127.284 528.578 127.029 528.578 126.711C528.578 126.523 528.523 126.357 528.414 126.211C528.31 126.06 528.112 125.906 527.82 125.75C527.534 125.589 527.112 125.396 526.555 125.172C526.008 124.953 525.547 124.734 525.172 124.516C524.797 124.297 524.513 124.034 524.32 123.727C524.128 123.414 524.031 123.016 524.031 122.531C524.031 121.766 524.333 121.185 524.938 120.789C525.547 120.388 526.352 120.188 527.352 120.188C527.883 120.188 528.383 120.242 528.852 120.352C529.326 120.456 529.789 120.609 530.242 120.812L529.664 122.195C529.273 122.023 528.88 121.883 528.484 121.773C528.094 121.659 527.695 121.602 527.289 121.602C526.815 121.602 526.453 121.674 526.203 121.82C525.958 121.966 525.836 122.174 525.836 122.445C525.836 122.648 525.896 122.82 526.016 122.961C526.135 123.102 526.341 123.242 526.633 123.383C526.93 123.523 527.341 123.698 527.867 123.906C528.383 124.104 528.828 124.312 529.203 124.531C529.583 124.745 529.875 125.008 530.078 125.32C530.281 125.633 530.383 126.036 530.383 126.531Z" fill="black"/>
<path d="M634.031 259.797H638.297V265.531C637.698 265.729 637.078 265.883 636.438 265.992C635.797 266.102 635.078 266.156 634.281 266.156C633.12 266.156 632.135 265.927 631.328 265.469C630.526 265.005 629.917 264.336 629.5 263.461C629.083 262.581 628.875 261.521 628.875 260.281C628.875 259.089 629.107 258.055 629.57 257.18C630.034 256.299 630.708 255.62 631.594 255.141C632.479 254.656 633.552 254.414 634.812 254.414C635.432 254.414 636.031 254.477 636.609 254.602C637.193 254.721 637.727 254.888 638.211 255.102L637.555 256.648C637.169 256.466 636.737 256.312 636.258 256.188C635.779 256.062 635.281 256 634.766 256C633.948 256 633.242 256.177 632.648 256.531C632.06 256.885 631.607 257.385 631.289 258.031C630.971 258.672 630.812 259.43 630.812 260.305C630.812 261.154 630.94 261.898 631.195 262.539C631.451 263.18 631.849 263.68 632.391 264.039C632.938 264.393 633.643 264.57 634.508 264.57C634.94 264.57 635.307 264.547 635.609 264.5C635.911 264.453 636.19 264.401 636.445 264.344V261.398H634.031V259.797ZM644.289 257.188C645.06 257.188 645.721 257.346 646.273 257.664C646.826 257.982 647.25 258.432 647.547 259.016C647.844 259.599 647.992 260.297 647.992 261.109V262.094H642.219C642.24 262.932 642.464 263.578 642.891 264.031C643.323 264.484 643.927 264.711 644.703 264.711C645.255 264.711 645.75 264.659 646.188 264.555C646.63 264.445 647.086 264.286 647.555 264.078V265.57C647.122 265.773 646.682 265.922 646.234 266.016C645.786 266.109 645.25 266.156 644.625 266.156C643.776 266.156 643.029 265.992 642.383 265.664C641.742 265.331 641.24 264.836 640.875 264.18C640.516 263.523 640.336 262.708 640.336 261.734C640.336 260.766 640.5 259.943 640.828 259.266C641.156 258.589 641.617 258.073 642.211 257.719C642.805 257.365 643.497 257.188 644.289 257.188ZM644.289 258.57C643.711 258.57 643.242 258.758 642.883 259.133C642.529 259.508 642.32 260.057 642.258 260.781H646.195C646.19 260.349 646.117 259.966 645.977 259.633C645.841 259.299 645.633 259.039 645.352 258.852C645.076 258.664 644.721 258.57 644.289 258.57ZM653.281 264.672C653.521 264.672 653.758 264.651 653.992 264.609C654.227 264.562 654.44 264.508 654.633 264.445V265.836C654.43 265.924 654.167 266 653.844 266.062C653.521 266.125 653.185 266.156 652.836 266.156C652.346 266.156 651.906 266.076 651.516 265.914C651.125 265.747 650.815 265.464 650.586 265.062C650.357 264.661 650.242 264.107 650.242 263.398V258.75H649.062V257.93L650.328 257.281L650.93 255.43H652.086V257.352H654.562V258.75H652.086V263.375C652.086 263.812 652.195 264.138 652.414 264.352C652.633 264.565 652.922 264.672 653.281 264.672ZM608.523 282.18C608.523 283.466 608.284 284.542 607.805 285.406C607.326 286.266 606.63 286.914 605.719 287.352C604.807 287.784 603.708 288 602.422 288H599.25V276.578H602.766C603.948 276.578 604.969 276.792 605.828 277.219C606.688 277.641 607.352 278.268 607.82 279.102C608.289 279.93 608.523 280.956 608.523 282.18ZM606.57 282.234C606.57 281.297 606.422 280.526 606.125 279.922C605.833 279.318 605.401 278.87 604.828 278.578C604.26 278.281 603.56 278.133 602.727 278.133H601.125V286.43H602.453C603.833 286.43 604.865 286.078 605.547 285.375C606.229 284.672 606.57 283.625 606.57 282.234ZM614.242 279.188C615.013 279.188 615.674 279.346 616.227 279.664C616.779 279.982 617.203 280.432 617.5 281.016C617.797 281.599 617.945 282.297 617.945 283.109V284.094H612.172C612.193 284.932 612.417 285.578 612.844 286.031C613.276 286.484 613.88 286.711 614.656 286.711C615.208 286.711 615.703 286.659 616.141 286.555C616.583 286.445 617.039 286.286 617.508 286.078V287.57C617.076 287.773 616.635 287.922 616.188 288.016C615.74 288.109 615.203 288.156 614.578 288.156C613.729 288.156 612.982 287.992 612.336 287.664C611.695 287.331 611.193 286.836 610.828 286.18C610.469 285.523 610.289 284.708 610.289 283.734C610.289 282.766 610.453 281.943 610.781 281.266C611.109 280.589 611.57 280.073 612.164 279.719C612.758 279.365 613.451 279.188 614.242 279.188ZM614.242 280.57C613.664 280.57 613.195 280.758 612.836 281.133C612.482 281.508 612.273 282.057 612.211 282.781H616.148C616.143 282.349 616.07 281.966 615.93 281.633C615.794 281.299 615.586 281.039 615.305 280.852C615.029 280.664 614.674 280.57 614.242 280.57ZM621.859 288H620.016V275.844H621.859V288ZM626.32 279.352V288H624.484V279.352H626.32ZM625.414 276.039C625.695 276.039 625.938 276.115 626.141 276.266C626.349 276.417 626.453 276.677 626.453 277.047C626.453 277.411 626.349 277.672 626.141 277.828C625.938 277.979 625.695 278.055 625.414 278.055C625.122 278.055 624.875 277.979 624.672 277.828C624.474 277.672 624.375 277.411 624.375 277.047C624.375 276.677 624.474 276.417 624.672 276.266C624.875 276.115 625.122 276.039 625.414 276.039ZM630.93 288L627.641 279.352H629.586L631.367 284.43C631.482 284.753 631.586 285.102 631.68 285.477C631.773 285.852 631.839 286.167 631.875 286.422H631.938C631.974 286.156 632.044 285.839 632.148 285.469C632.253 285.094 632.359 284.747 632.469 284.43L634.25 279.352H636.188L632.898 288H630.93ZM640.945 279.188C641.716 279.188 642.378 279.346 642.93 279.664C643.482 279.982 643.906 280.432 644.203 281.016C644.5 281.599 644.648 282.297 644.648 283.109V284.094H638.875C638.896 284.932 639.12 285.578 639.547 286.031C639.979 286.484 640.583 286.711 641.359 286.711C641.911 286.711 642.406 286.659 642.844 286.555C643.286 286.445 643.742 286.286 644.211 286.078V287.57C643.779 287.773 643.339 287.922 642.891 288.016C642.443 288.109 641.906 288.156 641.281 288.156C640.432 288.156 639.685 287.992 639.039 287.664C638.398 287.331 637.896 286.836 637.531 286.18C637.172 285.523 636.992 284.708 636.992 283.734C636.992 282.766 637.156 281.943 637.484 281.266C637.812 280.589 638.273 280.073 638.867 279.719C639.461 279.365 640.154 279.188 640.945 279.188ZM640.945 280.57C640.367 280.57 639.898 280.758 639.539 281.133C639.185 281.508 638.977 282.057 638.914 282.781H642.852C642.846 282.349 642.773 281.966 642.633 281.633C642.497 281.299 642.289 281.039 642.008 280.852C641.732 280.664 641.378 280.57 640.945 280.57ZM651.102 279.188C651.247 279.188 651.406 279.195 651.578 279.211C651.75 279.227 651.898 279.247 652.023 279.273L651.852 280.992C651.742 280.961 651.607 280.938 651.445 280.922C651.289 280.906 651.148 280.898 651.023 280.898C650.695 280.898 650.383 280.953 650.086 281.062C649.789 281.167 649.526 281.328 649.297 281.547C649.068 281.76 648.888 282.029 648.758 282.352C648.628 282.674 648.562 283.049 648.562 283.477V288H646.719V279.352H648.156L648.406 280.875H648.492C648.664 280.568 648.878 280.286 649.133 280.031C649.388 279.776 649.68 279.573 650.008 279.422C650.341 279.266 650.706 279.188 651.102 279.188ZM657.016 279.188C658.109 279.188 658.935 279.43 659.492 279.914C660.055 280.398 660.336 281.154 660.336 282.18V288H659.031L658.68 286.773H658.617C658.372 287.086 658.12 287.344 657.859 287.547C657.599 287.75 657.297 287.901 656.953 288C656.615 288.104 656.201 288.156 655.711 288.156C655.195 288.156 654.734 288.062 654.328 287.875C653.922 287.682 653.602 287.391 653.367 287C653.133 286.609 653.016 286.115 653.016 285.516C653.016 284.625 653.346 283.956 654.008 283.508C654.674 283.06 655.68 282.812 657.023 282.766L658.523 282.711V282.258C658.523 281.659 658.383 281.232 658.102 280.977C657.826 280.721 657.435 280.594 656.93 280.594C656.497 280.594 656.078 280.656 655.672 280.781C655.266 280.906 654.87 281.06 654.484 281.242L653.891 279.945C654.312 279.721 654.792 279.539 655.328 279.398C655.87 279.258 656.432 279.188 657.016 279.188ZM658.516 283.867L657.398 283.906C656.482 283.938 655.839 284.094 655.469 284.375C655.099 284.656 654.914 285.042 654.914 285.531C654.914 285.958 655.042 286.271 655.297 286.469C655.552 286.661 655.888 286.758 656.305 286.758C656.94 286.758 657.466 286.578 657.883 286.219C658.305 285.854 658.516 285.32 658.516 284.617V283.867ZM664.742 275.844V278.773C664.742 279.112 664.732 279.445 664.711 279.773C664.695 280.096 664.68 280.349 664.664 280.531H664.742C664.977 280.156 665.302 279.841 665.719 279.586C666.141 279.326 666.68 279.195 667.336 279.195C668.362 279.195 669.188 279.573 669.812 280.328C670.438 281.078 670.75 282.19 670.75 283.664C670.75 284.643 670.607 285.466 670.32 286.133C670.034 286.799 669.63 287.305 669.109 287.648C668.594 287.987 667.987 288.156 667.289 288.156C666.633 288.156 666.102 288.036 665.695 287.797C665.294 287.552 664.979 287.268 664.75 286.945H664.617L664.281 288H662.906V275.844H664.742ZM666.852 280.688C666.331 280.688 665.917 280.792 665.609 281C665.307 281.208 665.089 281.521 664.953 281.938C664.818 282.349 664.747 282.872 664.742 283.508V283.672C664.742 284.635 664.893 285.372 665.195 285.883C665.503 286.393 666.06 286.648 666.867 286.648C667.508 286.648 668 286.391 668.344 285.875C668.688 285.354 668.859 284.609 668.859 283.641C668.859 282.661 668.688 281.924 668.344 281.43C668.005 280.935 667.508 280.688 666.852 280.688ZM674.719 288H672.875V275.844H674.719V288ZM680.789 279.188C681.56 279.188 682.221 279.346 682.773 279.664C683.326 279.982 683.75 280.432 684.047 281.016C684.344 281.599 684.492 282.297 684.492 283.109V284.094H678.719C678.74 284.932 678.964 285.578 679.391 286.031C679.823 286.484 680.427 286.711 681.203 286.711C681.755 286.711 682.25 286.659 682.688 286.555C683.13 286.445 683.586 286.286 684.055 286.078V287.57C683.622 287.773 683.182 287.922 682.734 288.016C682.286 288.109 681.75 288.156 681.125 288.156C680.276 288.156 679.529 287.992 678.883 287.664C678.242 287.331 677.74 286.836 677.375 286.18C677.016 285.523 676.836 284.708 676.836 283.734C676.836 282.766 677 281.943 677.328 281.266C677.656 280.589 678.117 280.073 678.711 279.719C679.305 279.365 679.997 279.188 680.789 279.188ZM680.789 280.57C680.211 280.57 679.742 280.758 679.383 281.133C679.029 281.508 678.82 282.057 678.758 282.781H682.695C682.69 282.349 682.617 281.966 682.477 281.633C682.341 281.299 682.133 281.039 681.852 280.852C681.576 280.664 681.221 280.57 680.789 280.57Z" fill="black"/>
<rect x="70" y="194" width="47" height="43" rx="3" fill="#4B4444"/>
<rect x="202" y="44" width="47" height="43" rx="3" fill="#4B4444"/>
<rect x="348" y="193" width="47" height="43" rx="3" fill="#4B4444"/>
<rect x="474" y="41" width="47" height="43" rx="3" fill="#4B4444"/>
<rect x="618" y="200" width="47" height="43" rx="3" fill="#4B4444"/>
<defs>
<linearGradient id="paint0_linear_386_926" x1="24" y1="234" x2="164" y2="234" gradientUnits="userSpaceOnUse">
<stop stop-color="#F6B92D"/>
<stop offset="1" stop-color="#FF9F0D"/>
</linearGradient>
<linearGradient id="paint1_linear_386_926" x1="580.26" y1="178.26" x2="703.74" y2="301.74" gradientUnits="userSpaceOnUse">
<stop stop-color="#655CC9"/>
<stop offset="0.983" stop-color="#5146AE"/>
</linearGradient>
<linearGradient id="paint2_linear_386_926" x1="156" y1="84" x2="296" y2="84" gradientUnits="userSpaceOnUse">
<stop stop-color="#0BC6AB"/>
<stop offset="1" stop-color="#0AB399"/>
</linearGradient>
<linearGradient id="paint3_linear_386_926" x1="427" y1="81" x2="567" y2="81" gradientUnits="userSpaceOnUse">
<stop stop-color="#CB369A"/>
<stop offset="0.983" stop-color="#E649A4"/>
</linearGradient>
<linearGradient id="paint4_linear_386_926" x1="93.504" y1="147.448" x2="94.372" y2="299.72" gradientUnits="userSpaceOnUse">
<stop stop-color="white"/>
<stop offset="1" stop-color="#CCCCCC"/>
</linearGradient>
<linearGradient id="paint5_linear_386_926" x1="370.504" y1="153.448" x2="371.372" y2="305.72" gradientUnits="userSpaceOnUse">
<stop stop-color="white"/>
<stop offset="1" stop-color="#CCCCCC"/>
</linearGradient>
<linearGradient id="paint6_linear_386_926" x1="641.504" y1="153.448" x2="642.372" y2="305.72" gradientUnits="userSpaceOnUse">
<stop stop-color="white"/>
<stop offset="1" stop-color="#CCCCCC"/>
</linearGradient>
<linearGradient id="paint7_linear_386_926" x1="225.504" y1="-2.552" x2="226.372" y2="149.72" gradientUnits="userSpaceOnUse">
<stop stop-color="white"/>
<stop offset="1" stop-color="#CCCCCC"/>
</linearGradient>
<linearGradient id="paint8_linear_386_926" x1="496.504" y1="-5.552" x2="497.372" y2="146.72" gradientUnits="userSpaceOnUse">
<stop stop-color="white"/>
<stop offset="1" stop-color="#CCCCCC"/>
</linearGradient>
</defs>
</svg>
