<svg width="728" height="325" viewBox="0 0 728 325" fill="none" xmlns="http://www.w3.org/2000/svg">
<path d="M671.872 139.005H621.644C613.564 139.005 605.814 135.795 600.101 130.081C594.387 124.367 591.178 116.618 591.178 108.538V55.7182C591.178 41.0862 585.365 27.0535 575.019 16.7071C564.672 6.36067 550.64 0.548117 536.008 0.548117H461.16C446.528 0.548117 432.495 6.36067 422.149 16.7071C411.802 27.0535 405.99 41.0862 405.99 55.7182V108.538C405.99 116.618 402.78 124.367 397.067 130.081C391.353 135.795 383.604 139.005 375.524 139.005H350.717C346.716 139.006 342.754 138.218 339.057 136.687C335.36 135.156 332.001 132.912 329.172 130.082C326.342 127.253 324.098 123.894 322.567 120.198C321.035 116.501 320.247 112.539 320.247 108.538V55.1701C320.248 47.9251 318.821 40.751 316.048 34.0575C313.276 27.364 309.212 21.2821 304.089 16.159C298.966 11.036 292.885 6.97218 286.191 4.19961C279.498 1.42704 272.323 -1.9984e-09 265.079 0H190.231C175.599 0 161.566 5.81255 151.22 16.1589C140.873 26.5053 135.061 40.5381 135.061 55.1701V108.538C135.061 116.618 131.851 124.368 126.137 130.082C120.423 135.795 112.674 139.005 104.593 139.005H55.1688C47.9238 139.005 40.7498 140.432 34.0563 143.205C27.3628 145.977 21.281 150.041 16.1581 155.164C11.0352 160.287 6.97149 166.369 4.19908 173.063C1.42666 179.756 -0.00017015 186.93 1.52188e-08 194.175V269.023C1.11833e-08 283.655 5.81236 297.687 16.1585 308.034C26.5046 318.38 40.537 324.193 55.1688 324.193H130.016C144.648 324.193 158.681 318.38 169.028 308.034C179.374 297.688 185.187 283.655 185.187 269.023V215.654C185.187 207.574 188.397 199.825 194.111 194.111C199.824 188.398 207.574 185.188 215.654 185.188H239.78C247.86 185.188 255.609 188.398 261.323 194.111C267.036 199.825 270.246 207.574 270.246 215.654V269.023C270.246 283.655 276.059 297.687 286.405 308.034C296.752 318.38 310.784 324.193 325.416 324.193H400.264C414.896 324.193 428.929 318.38 439.275 308.034C449.621 297.688 455.434 283.655 455.434 269.023V216.202C455.435 208.123 458.646 200.375 464.359 194.662C470.073 188.95 477.822 185.741 485.901 185.741H511.388C515.389 185.741 519.351 186.529 523.047 188.06C526.744 189.591 530.102 191.835 532.932 194.664C535.761 197.493 538.005 200.852 539.536 204.548C541.067 208.245 541.855 212.206 541.855 216.207V269.028C541.857 283.659 547.67 297.69 558.016 308.035C568.362 318.381 582.393 324.193 597.024 324.193H671.872C686.504 324.193 700.537 318.38 710.883 308.034C721.229 297.688 727.042 283.655 727.042 269.023V194.175C727.042 179.543 721.229 165.511 710.883 155.164C700.537 144.818 686.504 139.005 671.872 139.005Z" fill="#E8EDFA"/>
<path d="M136 164H52C36.536 164 24 176.536 24 192V276C24 291.464 36.536 304 52 304H136C151.464 304 164 291.464 164 276V192C164 176.536 151.464 164 136 164Z" fill="url(#paint0_linear_695_124)"/>
<path d="M413 170H329C313.536 170 301 182.536 301 198V282C301 297.464 313.536 310 329 310H413C428.464 310 441 297.464 441 282V198C441 182.536 428.464 170 413 170Z" fill="#037FD9"/>
<path d="M684 170H600C584.536 170 572 182.536 572 198V282C572 297.464 584.536 310 600 310H684C699.464 310 712 297.464 712 282V198C712 182.536 699.464 170 684 170Z" fill="url(#paint1_linear_695_124)"/>
<path d="M268 14H184C168.536 14 156 26.536 156 42V126C156 141.464 168.536 154 184 154H268C283.464 154 296 141.464 296 126V42C296 26.536 283.464 14 268 14Z" fill="url(#paint2_linear_695_124)"/>
<path d="M539 11H455C439.536 11 427 23.536 427 39V123C427 138.464 439.536 151 455 151H539C554.464 151 567 138.464 567 123V39C567 23.536 554.464 11 539 11Z" fill="url(#paint3_linear_695_124)"/>
<path d="M131.199 172H56.8007C43.1036 172 32 183.104 32 196.801V271.199C32 284.896 43.1036 296 56.8007 296H131.199C144.896 296 156 284.896 156 271.199V196.801C156 183.104 144.896 172 131.199 172Z" fill="url(#paint4_linear_695_124)"/>
<path d="M110.584 199.116H107.292C107.243 198.545 106.976 198.014 106.546 197.627C106.117 197.24 105.554 197.025 104.971 197.024C104.387 197.024 103.824 197.238 103.394 197.624C102.963 198.011 102.696 198.541 102.645 199.111H94.8366C94.792 198.537 94.5276 198 94.0962 197.608C93.6649 197.217 93.0986 196.999 92.5108 197C91.923 197.001 91.3571 197.219 90.9265 197.611C90.4959 198.003 90.2325 198.541 90.189 199.116H86.8974C85.9916 199.116 85.1231 199.47 84.4826 200.097C83.842 200.725 83.4816 201.577 83.4805 202.465V210.969C83.4805 211.158 83.5572 211.34 83.6938 211.474C83.8303 211.608 84.0156 211.683 84.2087 211.683C84.4018 211.683 84.5871 211.608 84.7237 211.474C84.8602 211.34 84.9369 211.158 84.9369 210.969V206.645H112.544V220.201C112.544 220.71 112.337 221.199 111.97 221.559C111.602 221.919 111.104 222.122 110.584 222.122H86.8974C86.6348 222.117 86.3751 222.068 86.1291 221.978C85.9479 221.922 85.7518 221.939 85.5827 222.023C85.4136 222.108 85.285 222.254 85.2244 222.43C85.1637 222.606 85.1759 222.799 85.2583 222.966C85.3407 223.134 85.4867 223.263 85.6652 223.327C86.0587 223.474 86.4762 223.549 86.8974 223.55H110.584C111.49 223.549 112.358 223.196 112.999 222.568C113.639 221.941 114 221.09 114.001 220.202V202.464C114 201.576 113.639 200.725 112.999 200.097C112.358 199.469 111.49 199.116 110.584 199.116ZM84.9369 205.217V202.465C84.9375 201.955 85.1443 201.467 85.5118 201.106C85.8794 200.746 86.3777 200.544 86.8974 200.543H90.189C90.2365 201.116 90.5016 201.65 90.9318 202.04C91.3621 202.43 91.9261 202.648 92.5121 202.65C92.7052 202.649 92.8904 202.574 93.0269 202.44C93.1634 202.306 93.2401 202.125 93.24 201.935C93.2399 201.746 93.1631 201.564 93.0264 201.431C92.8898 201.297 92.7045 201.222 92.5114 201.222C91.4263 201.181 91.6375 200.042 91.6266 199.296C91.628 199.085 91.7086 198.882 91.8531 198.725C91.9975 198.568 92.1957 198.469 92.4099 198.446C92.6241 198.423 92.8393 198.478 93.0148 198.601C93.1902 198.724 93.3135 198.905 93.3612 199.111H92.7961C92.603 199.111 92.4177 199.186 92.2812 199.32C92.1446 199.454 92.0679 199.636 92.0679 199.825C92.0679 200.015 92.1446 200.196 92.2812 200.33C92.4177 200.464 92.603 200.539 92.7961 200.539H102.645C102.691 201.112 102.955 201.648 103.386 202.038C103.816 202.429 104.38 202.648 104.966 202.65C105.16 202.65 105.345 202.574 105.481 202.44C105.618 202.307 105.695 202.125 105.695 201.936C105.695 201.746 105.618 201.565 105.481 201.431C105.345 201.297 105.16 201.222 104.966 201.222C104.732 201.221 104.507 201.13 104.341 200.967C104.175 200.805 104.082 200.584 104.082 200.354V199.296C104.084 199.085 104.166 198.882 104.31 198.726C104.455 198.57 104.654 198.472 104.868 198.449C105.082 198.427 105.297 198.483 105.472 198.605C105.647 198.728 105.77 198.91 105.818 199.116H105.251C105.058 199.116 104.873 199.191 104.736 199.325C104.6 199.459 104.523 199.64 104.523 199.829C104.523 200.019 104.6 200.2 104.736 200.334C104.873 200.468 105.058 200.543 105.251 200.543H110.584C111.104 200.544 111.602 200.746 111.97 201.106C112.337 201.467 112.544 201.955 112.544 202.465V205.217H84.9369Z" fill="#4D4D4D"/>
<path d="M107.346 210.691C107.632 210.691 107.905 210.58 108.107 210.382C108.309 210.185 108.422 209.916 108.422 209.636C108.422 209.356 108.309 209.088 108.107 208.89C107.905 208.692 107.632 208.581 107.346 208.581C107.061 208.581 106.787 208.692 106.585 208.89C106.383 209.088 106.27 209.356 106.27 209.636C106.27 209.916 106.383 210.185 106.585 210.382C106.787 210.58 107.061 210.691 107.346 210.691ZM107.346 215.44C107.632 215.44 107.905 215.329 108.107 215.131C108.309 214.933 108.422 214.665 108.422 214.385C108.422 214.105 108.309 213.836 108.107 213.639C107.905 213.441 107.632 213.329 107.346 213.329C107.061 213.329 106.787 213.441 106.585 213.639C106.383 213.836 106.27 214.105 106.27 214.385C106.27 214.665 106.383 214.933 106.585 215.131C106.787 215.329 107.061 215.44 107.346 215.44ZM107.346 220.189C107.632 220.189 107.905 220.078 108.107 219.88C108.309 219.682 108.422 219.414 108.422 219.134C108.422 218.854 108.309 218.586 108.107 218.388C107.905 218.19 107.632 218.079 107.346 218.079C107.061 218.079 106.787 218.19 106.585 218.388C106.383 218.586 106.27 218.854 106.27 219.134C106.27 219.414 106.383 219.682 106.585 219.88C106.787 220.078 107.061 220.189 107.346 220.189ZM98.7346 210.691C99.0201 210.691 99.2939 210.58 99.4957 210.382C99.6976 210.185 99.811 209.916 99.811 209.636C99.811 209.356 99.6976 209.088 99.4957 208.89C99.2939 208.692 99.0201 208.581 98.7346 208.581C98.4492 208.581 98.1754 208.692 97.9736 208.89C97.7717 209.088 97.6583 209.356 97.6583 209.636C97.6583 209.916 97.7717 210.185 97.9736 210.382C98.1754 210.58 98.4492 210.691 98.7346 210.691ZM98.7346 215.44C99.0201 215.44 99.2939 215.329 99.4957 215.131C99.6976 214.933 99.811 214.665 99.811 214.385C99.811 214.105 99.6976 213.836 99.4957 213.639C99.2939 213.441 99.0201 213.329 98.7346 213.329C98.4492 213.329 98.1754 213.441 97.9736 213.639C97.7717 213.836 97.6583 214.105 97.6583 214.385C97.6583 214.665 97.7717 214.933 97.9736 215.131C98.1754 215.329 98.4492 215.44 98.7346 215.44ZM98.7346 220.189C99.0201 220.189 99.2939 220.078 99.4957 219.88C99.6976 219.682 99.811 219.414 99.811 219.134C99.811 218.854 99.6976 218.586 99.4957 218.388C99.2939 218.19 99.0201 218.079 98.7346 218.079C98.4492 218.079 98.1754 218.19 97.9736 218.388C97.7717 218.586 97.6583 218.854 97.6583 219.134C97.6583 219.414 97.7717 219.682 97.9736 219.88C98.1754 220.078 98.4492 220.189 98.7346 220.189ZM90.1232 210.691C90.4087 210.691 90.6824 210.58 90.8843 210.382C91.0862 210.185 91.1996 209.916 91.1996 209.636C91.1996 209.356 91.0862 209.088 90.8843 208.89C90.6824 208.692 90.4087 208.581 90.1232 208.581C89.8378 208.581 89.564 208.692 89.3621 208.89C89.1603 209.088 89.0469 209.356 89.0469 209.636C89.0469 209.916 89.1603 210.185 89.3621 210.382C89.564 210.58 89.8378 210.691 90.1232 210.691ZM90.1232 215.44C90.4087 215.44 90.6824 215.329 90.8843 215.131C91.0862 214.933 91.1996 214.665 91.1996 214.385C91.1996 214.105 91.0862 213.836 90.8843 213.639C90.6824 213.441 90.4087 213.329 90.1232 213.329C89.8378 213.329 89.564 213.441 89.3621 213.639C89.1603 213.836 89.0469 214.105 89.0469 214.385C89.0469 214.665 89.1603 214.933 89.3621 215.131C89.564 215.329 89.8378 215.44 90.1232 215.44ZM90.1232 220.189C90.4087 220.189 90.6824 220.078 90.8843 219.88C91.0862 219.682 91.1996 219.414 91.1996 219.134C91.1996 218.854 91.0862 218.586 90.8843 218.388C90.6824 218.19 90.4087 218.079 90.1232 218.079C89.8378 218.079 89.564 218.19 89.3621 218.388C89.1603 218.586 89.0469 218.854 89.0469 219.134C89.0469 219.414 89.1603 219.682 89.3621 219.88C89.564 220.078 89.8378 220.189 90.1232 220.189Z" fill="#4D4D4D"/>
<path d="M98.3634 228.009L95.7825 226.491C95.3095 226.214 94.7777 226.047 94.2283 226.003C93.6789 225.959 93.1266 226.04 92.6143 226.24C92.1019 226.439 91.6432 226.751 91.2736 227.152C90.904 227.553 90.6335 228.032 90.4831 228.552C90.464 228.61 90.4317 228.663 90.3885 228.707C90.3454 228.751 90.2925 228.785 90.234 228.806C90.1743 228.827 90.1104 228.835 90.0471 228.829C89.9838 228.823 89.9227 228.803 89.8685 228.77C86.7881 226.959 84.2096 224.433 82.3603 221.415C82.3259 221.357 82.3058 221.293 82.3016 221.226C82.2974 221.159 82.3093 221.093 82.3362 221.031C82.3631 220.97 82.4044 220.916 82.4566 220.873C82.5089 220.83 82.5707 220.8 82.637 220.785C83.1229 220.639 83.5717 220.394 83.9539 220.065C84.3361 219.737 84.643 219.333 84.8544 218.88C85.0658 218.427 85.177 217.935 85.1805 217.437C85.1841 216.939 85.0799 216.446 84.8749 215.99C84.7992 215.751 83.2888 213.355 83.1366 213.081C82.6437 212.285 81.8503 211.711 80.9287 211.486C80.0071 211.26 79.032 211.4 78.2152 211.875C76.32 213.001 74.9312 214.789 74.3291 216.88C73.7271 218.97 73.9567 221.207 74.9716 223.138C77.7928 228.679 85.4728 236.718 92.1114 236.982C96.3403 237.348 103.441 231.691 98.3634 228.009ZM98.3699 232.052C97.4249 233.623 95.9005 234.778 94.1117 235.278C92.3229 235.779 90.4063 235.587 88.7579 234.741C86.1027 233.38 83.6734 231.631 81.5527 229.555C79.4314 227.476 77.6476 225.09 76.2635 222.48C75.7219 221.47 75.4383 220.346 75.4369 219.205C75.4403 217.976 75.7667 216.768 76.3847 215.698C77.0027 214.629 77.8915 213.734 78.9653 213.099C79.4505 212.817 80.0294 212.735 80.5765 212.869C81.1236 213.003 81.5947 213.343 81.8877 213.815L83.4345 216.354C83.597 216.627 83.6945 216.932 83.7198 217.247C83.7451 217.563 83.6975 217.879 83.5805 218.174C83.4635 218.468 83.2801 218.733 83.0442 218.948C82.8082 219.164 82.5256 219.324 82.2176 219.417C81.9406 219.498 81.6859 219.639 81.4726 219.83C81.2594 220.021 81.0932 220.257 80.9866 220.521C80.88 220.784 80.8358 221.067 80.8573 221.35C80.8788 221.632 80.9654 221.906 81.1106 222.151C83.0833 225.371 85.8345 228.065 89.1213 229.996C89.3628 230.136 89.6334 230.222 89.9131 230.247C90.1929 230.271 90.4747 230.234 90.7379 230.138C91.0012 230.042 91.2392 229.89 91.4345 229.692C91.6298 229.494 91.7775 229.256 91.8667 228.995C91.952 228.681 92.1101 228.39 92.3288 228.146C92.5475 227.901 92.8208 227.71 93.1275 227.586C93.4341 227.462 93.7658 227.41 94.0966 227.432C94.4274 227.455 94.7484 227.552 95.0346 227.716L97.6126 229.233C98.0876 229.514 98.4323 229.966 98.5737 230.492C98.715 231.018 98.6419 231.578 98.3699 232.052Z" fill="#4D4D4D"/>
<path d="M408.2 178H333.8C320.103 178 309 189.104 309 202.801V277.199C309 290.896 320.103 302 333.8 302H408.2C421.897 302 433 290.896 433 277.199V202.801C433 189.104 421.897 178 408.2 178Z" fill="url(#paint5_linear_695_124)"/>
<path d="M371.761 199.001C372.299 199.002 372.757 198.997 373.215 199.004C374.839 199.027 375.655 199.823 375.662 201.452C375.677 204.632 375.666 207.812 375.667 210.992C375.667 211.262 375.676 211.531 375.672 211.801C375.666 212.299 375.865 212.459 376.378 212.349C377.402 212.129 378.434 211.905 379.494 212.013C381.313 212.198 382.693 213.239 383.979 214.405C385.356 215.654 386.68 216.961 388.017 218.252C388.364 218.587 388.827 218.985 388.313 219.465C387.818 219.928 387.428 219.466 387.086 219.124C385.714 217.752 384.264 216.459 382.881 215.102C380.904 213.161 378.62 213.039 376.134 213.66C375.773 213.751 375.64 213.966 375.693 214.308C375.76 214.744 376.071 214.673 376.376 214.62C376.853 214.536 377.331 214.456 377.81 214.388C378.228 214.327 378.603 214.448 378.699 214.886C378.804 215.362 378.467 215.543 378.045 215.615C375.553 216.035 373.061 216.459 370.569 216.884C369.96 216.988 369.349 217.087 368.742 217.206C367.739 217.402 367.369 217.756 367.432 218.43C367.494 219.1 367.968 219.452 368.938 219.401C370.9 219.299 372.862 219.179 374.817 218.988C375.416 218.929 375.753 219.077 376.103 219.544C377.363 221.222 378.771 222.73 380.918 223.279C381.296 223.375 381.549 223.643 381.441 224.055C381.33 224.477 380.955 224.55 380.591 224.472C380.125 224.373 379.672 224.211 379.132 224.052C379.185 224.806 379.182 225.489 378.826 226.126C378.646 226.447 378.931 226.622 379.191 226.72C379.62 226.883 380.068 226.957 380.531 226.983C382.633 227.103 384.734 226.967 386.836 226.978C387.078 226.979 387.322 226.971 387.563 226.993C387.927 227.026 388.183 227.197 388.165 227.604C388.148 227.994 387.91 228.204 387.537 228.201C385.251 228.181 382.97 228.537 380.678 228.265C379.575 228.134 378.466 228.089 377.628 227.21C377.483 227.058 377.285 227.067 377.101 227.16C376.386 227.52 375.569 227.667 374.958 228.254C374.491 228.701 373.891 228.848 373.245 228.847C366.615 228.843 359.986 228.848 353.356 228.84C351.822 228.838 351.004 228.008 351.004 226.5C351 218.173 350.999 209.845 351 201.518C351.001 199.747 351.727 199.009 353.489 199.007C359.553 199 365.616 199.002 371.761 199.001ZM352.557 227.053C352.789 227.353 353.125 227.326 353.446 227.326C360.023 227.328 366.599 227.323 373.176 227.332C373.85 227.333 374.166 227.081 374.157 226.38C374.136 224.682 374.13 222.983 374.161 221.286C374.173 220.599 373.899 220.375 373.242 220.435C372.063 220.542 370.879 220.592 369.7 220.698C368.85 220.775 368.038 220.736 367.272 220.303C366.452 219.84 366.113 219.094 366.117 218.218C366.121 217.343 366.577 216.691 367.392 216.315C367.886 216.087 368.404 215.942 368.936 215.851C370.368 215.607 371.799 215.361 373.236 215.145C373.906 215.044 374.173 214.753 374.166 214.03C374.131 209.987 374.15 205.943 374.148 201.9C374.148 200.571 374.106 200.528 372.79 200.528C366.429 200.525 360.067 200.524 353.706 200.523C352.493 200.523 352.409 200.604 352.408 201.799C352.408 209.886 352.408 217.972 352.412 226.058C352.412 226.351 352.458 226.645 352.557 227.053ZM377.021 224.321C375.532 224.868 375.358 225.155 375.905 226.285C376.432 226.039 376.975 225.815 377.487 225.536C377.864 225.33 377.948 224.952 377.832 224.555C377.725 224.188 377.461 224.134 377.021 224.321ZM376.133 222.046C375.485 222.335 375.632 222.816 375.795 223.362C376.306 223.258 376.748 223.118 377.178 222.807C376.932 222.413 376.728 222.049 376.133 222.046Z" fill="#4D4D4D"/>
<path d="M388.785 227.313C388.925 224.85 388.806 222.454 388.843 220.059C388.859 219.013 388.968 218.901 390.011 218.891C390.28 218.888 390.549 218.89 390.818 218.894C391.4 218.904 391.716 219.169 391.715 219.783C391.709 222.314 391.712 224.844 391.713 227.375C391.714 227.939 391.445 228.222 390.874 228.216C390.497 228.211 390.12 228.202 389.744 228.22C389.146 228.249 388.836 227.97 388.785 227.313Z" fill="#4D4D4D"/>
<path d="M370.66 206.623C370.539 207.173 370.187 207.316 369.745 207.316C365.276 207.316 360.808 207.316 356.34 207.311C355.805 207.31 355.434 207.049 355.454 206.491C355.473 205.967 355.843 205.783 356.348 205.784C360.816 205.788 365.284 205.786 369.752 205.781C370.288 205.78 370.64 205.968 370.66 206.623Z" fill="#4D4D4D"/>
<path d="M360.927 212.308C359.499 212.308 358.153 212.309 356.806 212.307C356.591 212.307 356.374 212.306 356.162 212.276C355.692 212.21 355.421 211.925 355.456 211.453C355.489 211.012 355.789 210.797 356.23 210.797C360.781 210.795 365.333 210.794 369.885 210.791C370.382 210.79 370.642 211.042 370.662 211.52C370.682 211.979 370.399 212.209 369.974 212.262C369.681 212.299 369.383 212.307 369.088 212.308C366.395 212.31 363.701 212.308 360.927 212.308Z" fill="#4D4D4D"/>
<path d="M360.604 215.491C361.87 215.494 363.055 215.504 364.24 215.496C364.826 215.492 365.305 215.664 365.277 216.326C365.25 216.957 364.741 217.046 364.215 217.045C361.629 217.041 359.043 217.037 356.458 217.046C355.894 217.048 355.454 216.862 355.461 216.257C355.468 215.644 355.931 215.489 356.483 215.493C357.829 215.503 359.176 215.493 360.604 215.491Z" fill="#4D4D4D"/>
<path d="M364.26 220.536C364.894 220.549 365.314 220.772 365.266 221.389C365.22 221.972 364.765 222.068 364.257 222.066C361.644 222.057 359.031 222.057 356.417 222.064C355.899 222.065 355.465 221.937 355.457 221.345C355.449 220.737 355.86 220.522 356.427 220.524C359.014 220.531 361.6 220.532 364.26 220.536Z" fill="#4D4D4D"/>
<path d="M679.199 178H604.801C591.104 178 580 189.104 580 202.801V277.199C580 290.896 591.104 302 604.801 302H679.199C692.896 302 704 290.896 704 277.199V202.801C704 189.104 692.896 178 679.199 178Z" fill="url(#paint6_linear_695_124)"/>
<path d="M263.199 22H188.801C175.104 22 164 33.1036 164 46.8007V121.199C164 134.896 175.104 146 188.801 146H263.199C276.896 146 288 134.896 288 121.199V46.8007C288 33.1036 276.896 22 263.199 22Z" fill="url(#paint7_linear_695_124)"/>
<path d="M534.199 19H459.801C446.104 19 435 30.1036 435 43.8007V118.199C435 131.896 446.104 143 459.801 143H534.199C547.896 143 559 131.896 559 118.199V43.8007C559 30.1036 547.896 19 534.199 19Z" fill="url(#paint8_linear_695_124)"/>
<path d="M494.335 61.9527C493.118 60.6426 494.932 58.8306 496.241 60.0465L499.736 63.5413L507.678 55.5986C508.205 55.0722 509.058 55.0722 509.584 55.5986C510.111 56.1251 510.111 56.9785 509.584 57.5049L500.689 66.4005C500.162 66.9269 499.309 66.9269 498.782 66.4005L494.335 61.9527ZM495.735 47.3209C496.48 47.3209 497.083 46.7174 497.083 45.973C497.017 44.187 494.453 44.1875 494.387 45.973C494.387 46.7174 494.991 47.3209 495.735 47.3209ZM490.459 50.8465C491.203 50.8465 491.807 50.243 491.807 49.4986C491.741 47.7126 489.177 47.7131 489.111 49.4986C489.111 50.243 489.714 50.8465 490.459 50.8465ZM524.964 60.9996C524.999 81.3769 500.076 91.7001 485.693 77.2659C476.77 68.7031 476.768 53.2958 485.693 44.733C500.077 30.2993 525 40.6231 524.964 60.9996ZM522.268 60.9996C522.268 49.8014 513.158 40.691 501.96 40.691C475.055 41.712 475.062 80.2912 501.96 81.3081C513.158 81.3081 522.268 72.1977 522.268 60.9996ZM501.96 43.3868C500.171 43.4529 500.178 46.0203 501.96 46.0827C510.185 46.0827 516.876 52.7743 516.876 60.9996C516.127 80.7613 487.79 80.7567 487.043 60.9994C487.043 60.2551 486.439 59.6516 485.695 59.6516C484.95 59.6516 484.347 60.2551 484.347 60.9996C484.347 70.7112 492.248 78.6123 501.96 78.6123C525.293 77.7269 525.287 44.269 501.96 43.3868ZM486.933 56.1232C487.677 56.1232 488.281 55.5197 488.281 54.7753C488.215 52.9892 485.651 52.9897 485.585 54.7753C485.585 55.5197 486.188 56.1232 486.933 56.1232Z" fill="#4D4D4D"/>
<path d="M159.872 170.74L154.995 165.861C154.449 165.318 154.071 164.629 153.906 163.877C153.741 163.125 153.795 162.341 154.063 161.619C154.331 160.897 154.8 160.267 155.415 159.805C156.031 159.342 156.766 159.066 157.534 159.009L160.774 158.764L168.085 158.212C168.662 158.168 169.242 158.249 169.786 158.45C170.329 158.651 170.823 158.968 171.232 159.377C171.642 159.787 171.958 160.28 172.159 160.824C172.36 161.367 172.441 161.947 172.397 162.525L171.845 169.836L171.6 173.075C171.543 173.843 171.267 174.578 170.805 175.194C170.342 175.809 169.712 176.279 168.99 176.546C168.268 176.814 167.484 176.868 166.732 176.703C165.98 176.538 165.291 176.16 164.748 175.615L159.872 170.74Z" fill="#D7D3D4"/>
<path d="M428.748 170.74L423.87 165.861C423.324 165.318 422.946 164.629 422.781 163.877C422.616 163.125 422.67 162.341 422.938 161.619C423.206 160.897 423.676 160.267 424.291 159.804C424.907 159.342 425.643 159.066 426.411 159.009L429.65 158.764L436.961 158.212C437.538 158.168 438.119 158.249 438.662 158.45C439.205 158.651 439.699 158.968 440.108 159.377C440.518 159.787 440.834 160.28 441.035 160.824C441.236 161.367 441.317 161.947 441.273 162.525L440.72 169.836L440.475 173.075C440.418 173.843 440.142 174.578 439.68 175.194C439.217 175.809 438.587 176.279 437.865 176.546C437.143 176.814 436.359 176.868 435.607 176.703C434.855 176.538 434.166 176.16 433.623 175.615L428.748 170.74Z" fill="#D7D3D4"/>
<path d="M287.878 159.379L292.756 154.501C293.299 153.955 293.988 153.577 294.74 153.412C295.492 153.246 296.276 153.301 296.999 153.568C297.721 153.836 298.351 154.306 298.814 154.921C299.277 155.537 299.553 156.273 299.609 157.041L299.854 160.28L300.406 167.591C300.45 168.169 300.369 168.749 300.168 169.292C299.967 169.836 299.651 170.329 299.241 170.739C298.832 171.148 298.338 171.465 297.795 171.666C297.252 171.867 296.671 171.948 296.094 171.903L288.783 171.351L285.543 171.107C284.775 171.05 284.04 170.774 283.424 170.312C282.808 169.849 282.339 169.219 282.071 168.497C281.803 167.775 281.749 166.991 281.914 166.239C282.079 165.487 282.457 164.798 283.002 164.254L287.878 159.379Z" fill="#D7D3D4"/>
<path d="M559.815 159.379L564.693 154.502C565.237 153.956 565.925 153.578 566.677 153.413C567.43 153.248 568.213 153.302 568.935 153.57C569.657 153.837 570.287 154.307 570.75 154.922C571.213 155.538 571.489 156.273 571.545 157.041L571.79 160.281L572.342 167.591C572.386 168.169 572.305 168.749 572.104 169.293C571.903 169.836 571.587 170.329 571.177 170.739C570.768 171.149 570.274 171.465 569.731 171.666C569.188 171.867 568.607 171.948 568.03 171.904L560.719 171.352L557.48 171.107C556.712 171.05 555.976 170.774 555.361 170.311C554.745 169.849 554.276 169.219 554.008 168.497C553.741 167.775 553.686 166.991 553.851 166.239C554.017 165.487 554.394 164.798 554.94 164.255L559.815 159.379Z" fill="#D7D3D4"/>
<path d="M67.6094 256.891C67.6094 257.568 67.4427 258.151 67.1094 258.641C66.7812 259.13 66.3073 259.505 65.6875 259.766C65.0729 260.026 64.3385 260.156 63.4844 260.156C63.0677 260.156 62.6693 260.133 62.2891 260.086C61.9089 260.039 61.5495 259.971 61.2109 259.883C60.8776 259.789 60.5729 259.677 60.2969 259.547V257.781C60.7604 257.984 61.2786 258.169 61.8516 258.336C62.4245 258.497 63.0078 258.578 63.6016 258.578C64.0859 258.578 64.487 258.516 64.8047 258.391C65.1276 258.26 65.3672 258.078 65.5234 257.844C65.6797 257.604 65.7578 257.326 65.7578 257.008C65.7578 256.669 65.6667 256.383 65.4844 256.148C65.3021 255.914 65.026 255.701 64.6562 255.508C64.2917 255.31 63.8333 255.099 63.2812 254.875C62.9062 254.724 62.5469 254.552 62.2031 254.359C61.8646 254.167 61.5625 253.94 61.2969 253.68C61.0312 253.419 60.8203 253.112 60.6641 252.758C60.513 252.398 60.4375 251.977 60.4375 251.492C60.4375 250.846 60.5911 250.294 60.8984 249.836C61.2109 249.378 61.6484 249.026 62.2109 248.781C62.7786 248.536 63.4401 248.414 64.1953 248.414C64.7943 248.414 65.3568 248.477 65.8828 248.602C66.4141 248.727 66.9349 248.904 67.4453 249.133L66.8516 250.641C66.3828 250.448 65.9271 250.294 65.4844 250.18C65.0469 250.065 64.599 250.008 64.1406 250.008C63.7448 250.008 63.4089 250.068 63.1328 250.188C62.8568 250.307 62.6458 250.477 62.5 250.695C62.3594 250.909 62.2891 251.164 62.2891 251.461C62.2891 251.794 62.3698 252.076 62.5312 252.305C62.6979 252.529 62.9531 252.734 63.2969 252.922C63.6458 253.109 64.0938 253.318 64.6406 253.547C65.2708 253.807 65.8047 254.081 66.2422 254.367C66.6849 254.654 67.0234 254.997 67.2578 255.398C67.4922 255.794 67.6094 256.292 67.6094 256.891ZM73.1094 260.156C72.2917 260.156 71.5833 259.997 70.9844 259.68C70.3854 259.362 69.9245 258.875 69.6016 258.219C69.2786 257.562 69.1172 256.729 69.1172 255.719C69.1172 254.667 69.2943 253.807 69.6484 253.141C70.0026 252.474 70.4922 251.982 71.1172 251.664C71.7474 251.346 72.4688 251.188 73.2812 251.188C73.7969 251.188 74.263 251.24 74.6797 251.344C75.1016 251.443 75.4583 251.565 75.75 251.711L75.2031 253.18C74.8854 253.049 74.5599 252.94 74.2266 252.852C73.8932 252.763 73.5729 252.719 73.2656 252.719C72.7604 252.719 72.3385 252.831 72 253.055C71.6667 253.279 71.4167 253.612 71.25 254.055C71.0885 254.497 71.0078 255.047 71.0078 255.703C71.0078 256.339 71.0911 256.875 71.2578 257.312C71.4245 257.745 71.6719 258.073 72 258.297C72.3281 258.516 72.7318 258.625 73.2109 258.625C73.6849 258.625 74.1094 258.568 74.4844 258.453C74.8594 258.339 75.2135 258.19 75.5469 258.008V259.602C75.2188 259.789 74.8672 259.927 74.4922 260.016C74.1172 260.109 73.6562 260.156 73.1094 260.156ZM79.4141 247.844V250.898C79.4141 251.216 79.4036 251.526 79.3828 251.828C79.3672 252.13 79.349 252.365 79.3281 252.531H79.4297C79.612 252.229 79.8359 251.982 80.1016 251.789C80.3672 251.591 80.6641 251.443 80.9922 251.344C81.3255 251.245 81.6797 251.195 82.0547 251.195C82.7161 251.195 83.2786 251.307 83.7422 251.531C84.2057 251.75 84.5599 252.091 84.8047 252.555C85.0547 253.018 85.1797 253.62 85.1797 254.359V260H83.3438V254.703C83.3438 254.031 83.2057 253.529 82.9297 253.195C82.6536 252.857 82.2266 252.688 81.6484 252.688C81.0911 252.688 80.6484 252.805 80.3203 253.039C79.9974 253.268 79.7656 253.609 79.625 254.062C79.4844 254.51 79.4141 255.057 79.4141 255.703V260H77.5781V247.844H79.4141ZM91.1953 251.188C91.9661 251.188 92.6276 251.346 93.1797 251.664C93.7318 251.982 94.1562 252.432 94.4531 253.016C94.75 253.599 94.8984 254.297 94.8984 255.109V256.094H89.125C89.1458 256.932 89.3698 257.578 89.7969 258.031C90.2292 258.484 90.8333 258.711 91.6094 258.711C92.1615 258.711 92.6562 258.659 93.0938 258.555C93.5365 258.445 93.9922 258.286 94.4609 258.078V259.57C94.0286 259.773 93.5885 259.922 93.1406 260.016C92.6927 260.109 92.1562 260.156 91.5312 260.156C90.6823 260.156 89.9349 259.992 89.2891 259.664C88.6484 259.331 88.1458 258.836 87.7812 258.18C87.4219 257.523 87.2422 256.708 87.2422 255.734C87.2422 254.766 87.4062 253.943 87.7344 253.266C88.0625 252.589 88.5234 252.073 89.1172 251.719C89.7109 251.365 90.4036 251.188 91.1953 251.188ZM91.1953 252.57C90.6172 252.57 90.1484 252.758 89.7891 253.133C89.4349 253.508 89.2266 254.057 89.1641 254.781H93.1016C93.0964 254.349 93.0234 253.966 92.8828 253.633C92.7474 253.299 92.5391 253.039 92.2578 252.852C91.9818 252.664 91.6276 252.57 91.1953 252.57ZM99.875 260.156C98.8438 260.156 98.0156 259.781 97.3906 259.031C96.7708 258.276 96.4609 257.164 96.4609 255.695C96.4609 254.211 96.776 253.089 97.4062 252.328C98.0417 251.568 98.8776 251.188 99.9141 251.188C100.352 251.188 100.734 251.247 101.062 251.367C101.391 251.482 101.672 251.638 101.906 251.836C102.146 252.034 102.349 252.255 102.516 252.5H102.602C102.576 252.339 102.544 252.107 102.508 251.805C102.477 251.497 102.461 251.214 102.461 250.953V247.844H104.305V260H102.867L102.539 258.82H102.461C102.305 259.07 102.107 259.297 101.867 259.5C101.633 259.698 101.352 259.857 101.023 259.977C100.701 260.096 100.318 260.156 99.875 260.156ZM100.391 258.664C101.177 258.664 101.732 258.438 102.055 257.984C102.378 257.531 102.544 256.852 102.555 255.945V255.703C102.555 254.734 102.398 253.992 102.086 253.477C101.773 252.956 101.203 252.695 100.375 252.695C99.7135 252.695 99.2083 252.964 98.8594 253.5C98.5156 254.031 98.3438 254.773 98.3438 255.727C98.3438 256.68 98.5156 257.409 98.8594 257.914C99.2083 258.414 99.7188 258.664 100.391 258.664ZM114.477 251.352V260H113.031L112.781 258.836H112.68C112.497 259.133 112.266 259.38 111.984 259.578C111.703 259.771 111.391 259.914 111.047 260.008C110.703 260.107 110.341 260.156 109.961 260.156C109.31 260.156 108.753 260.047 108.289 259.828C107.831 259.604 107.479 259.26 107.234 258.797C106.99 258.333 106.867 257.734 106.867 257V251.352H108.711V256.656C108.711 257.328 108.846 257.831 109.117 258.164C109.393 258.497 109.82 258.664 110.398 258.664C110.956 258.664 111.398 258.549 111.727 258.32C112.055 258.091 112.286 257.753 112.422 257.305C112.562 256.857 112.633 256.307 112.633 255.656V251.352H114.477ZM118.953 260H117.109V247.844H118.953V260ZM125.023 251.188C125.794 251.188 126.456 251.346 127.008 251.664C127.56 251.982 127.984 252.432 128.281 253.016C128.578 253.599 128.727 254.297 128.727 255.109V256.094H122.953C122.974 256.932 123.198 257.578 123.625 258.031C124.057 258.484 124.661 258.711 125.438 258.711C125.99 258.711 126.484 258.659 126.922 258.555C127.365 258.445 127.82 258.286 128.289 258.078V259.57C127.857 259.773 127.417 259.922 126.969 260.016C126.521 260.109 125.984 260.156 125.359 260.156C124.51 260.156 123.763 259.992 123.117 259.664C122.477 259.331 121.974 258.836 121.609 258.18C121.25 257.523 121.07 256.708 121.07 255.734C121.07 254.766 121.234 253.943 121.562 253.266C121.891 252.589 122.352 252.073 122.945 251.719C123.539 251.365 124.232 251.188 125.023 251.188ZM125.023 252.57C124.445 252.57 123.977 252.758 123.617 253.133C123.263 253.508 123.055 254.057 122.992 254.781H126.93C126.924 254.349 126.852 253.966 126.711 253.633C126.576 253.299 126.367 253.039 126.086 252.852C125.81 252.664 125.456 252.57 125.023 252.57ZM79.3984 269.188C80.4922 269.188 81.3177 269.43 81.875 269.914C82.4375 270.398 82.7188 271.154 82.7188 272.18V278H81.4141L81.0625 276.773H81C80.7552 277.086 80.5026 277.344 80.2422 277.547C79.9818 277.75 79.6797 277.901 79.3359 278C78.9974 278.104 78.5833 278.156 78.0938 278.156C77.5781 278.156 77.1172 278.062 76.7109 277.875C76.3047 277.682 75.9844 277.391 75.75 277C75.5156 276.609 75.3984 276.115 75.3984 275.516C75.3984 274.625 75.7292 273.956 76.3906 273.508C77.0573 273.06 78.0625 272.812 79.4062 272.766L80.9062 272.711V272.258C80.9062 271.659 80.7656 271.232 80.4844 270.977C80.2083 270.721 79.8177 270.594 79.3125 270.594C78.8802 270.594 78.4609 270.656 78.0547 270.781C77.6484 270.906 77.2526 271.06 76.8672 271.242L76.2734 269.945C76.6953 269.721 77.1745 269.539 77.7109 269.398C78.2526 269.258 78.8151 269.188 79.3984 269.188ZM80.8984 273.867L79.7812 273.906C78.8646 273.938 78.2214 274.094 77.8516 274.375C77.4818 274.656 77.2969 275.042 77.2969 275.531C77.2969 275.958 77.4245 276.271 77.6797 276.469C77.9349 276.661 78.2708 276.758 78.6875 276.758C79.3229 276.758 79.849 276.578 80.2656 276.219C80.6875 275.854 80.8984 275.32 80.8984 274.617V273.867ZM92.9297 278.156C92.112 278.156 91.4036 277.997 90.8047 277.68C90.2057 277.362 89.7448 276.875 89.4219 276.219C89.099 275.562 88.9375 274.729 88.9375 273.719C88.9375 272.667 89.1146 271.807 89.4688 271.141C89.8229 270.474 90.3125 269.982 90.9375 269.664C91.5677 269.346 92.2891 269.188 93.1016 269.188C93.6172 269.188 94.0833 269.24 94.5 269.344C94.9219 269.443 95.2786 269.565 95.5703 269.711L95.0234 271.18C94.7057 271.049 94.3802 270.94 94.0469 270.852C93.7135 270.763 93.3932 270.719 93.0859 270.719C92.5807 270.719 92.1589 270.831 91.8203 271.055C91.487 271.279 91.237 271.612 91.0703 272.055C90.9089 272.497 90.8281 273.047 90.8281 273.703C90.8281 274.339 90.9115 274.875 91.0781 275.312C91.2448 275.745 91.4922 276.073 91.8203 276.297C92.1484 276.516 92.5521 276.625 93.0312 276.625C93.5052 276.625 93.9297 276.568 94.3047 276.453C94.6797 276.339 95.0339 276.19 95.3672 276.008V277.602C95.0391 277.789 94.6875 277.927 94.3125 278.016C93.9375 278.109 93.4766 278.156 92.9297 278.156ZM100.789 269.188C101.883 269.188 102.708 269.43 103.266 269.914C103.828 270.398 104.109 271.154 104.109 272.18V278H102.805L102.453 276.773H102.391C102.146 277.086 101.893 277.344 101.633 277.547C101.372 277.75 101.07 277.901 100.727 278C100.388 278.104 99.974 278.156 99.4844 278.156C98.9688 278.156 98.5078 278.062 98.1016 277.875C97.6953 277.682 97.375 277.391 97.1406 277C96.9062 276.609 96.7891 276.115 96.7891 275.516C96.7891 274.625 97.1198 273.956 97.7812 273.508C98.4479 273.06 99.4531 272.812 100.797 272.766L102.297 272.711V272.258C102.297 271.659 102.156 271.232 101.875 270.977C101.599 270.721 101.208 270.594 100.703 270.594C100.271 270.594 99.8516 270.656 99.4453 270.781C99.0391 270.906 98.6432 271.06 98.2578 271.242L97.6641 269.945C98.0859 269.721 98.5651 269.539 99.1016 269.398C99.6432 269.258 100.206 269.188 100.789 269.188ZM102.289 273.867L101.172 273.906C100.255 273.938 99.612 274.094 99.2422 274.375C98.8724 274.656 98.6875 275.042 98.6875 275.531C98.6875 275.958 98.8151 276.271 99.0703 276.469C99.3255 276.661 99.6615 276.758 100.078 276.758C100.714 276.758 101.24 276.578 101.656 276.219C102.078 275.854 102.289 275.32 102.289 274.617V273.867ZM108.523 278H106.68V265.844H108.523V278ZM112.992 278H111.148V265.844H112.992V278Z" fill="black"/>
<path d="M193.047 110H191.164V100.172H187.82V98.5781H196.383V100.172H193.047V110ZM201.336 101.188C202.43 101.188 203.255 101.43 203.812 101.914C204.375 102.398 204.656 103.154 204.656 104.18V110H203.352L203 108.773H202.938C202.693 109.086 202.44 109.344 202.18 109.547C201.919 109.75 201.617 109.901 201.273 110C200.935 110.104 200.521 110.156 200.031 110.156C199.516 110.156 199.055 110.062 198.648 109.875C198.242 109.682 197.922 109.391 197.688 109C197.453 108.609 197.336 108.115 197.336 107.516C197.336 106.625 197.667 105.956 198.328 105.508C198.995 105.06 200 104.812 201.344 104.766L202.844 104.711V104.258C202.844 103.659 202.703 103.232 202.422 102.977C202.146 102.721 201.755 102.594 201.25 102.594C200.818 102.594 200.398 102.656 199.992 102.781C199.586 102.906 199.19 103.06 198.805 103.242L198.211 101.945C198.633 101.721 199.112 101.539 199.648 101.398C200.19 101.258 200.753 101.188 201.336 101.188ZM202.836 105.867L201.719 105.906C200.802 105.938 200.159 106.094 199.789 106.375C199.419 106.656 199.234 107.042 199.234 107.531C199.234 107.958 199.362 108.271 199.617 108.469C199.872 108.661 200.208 108.758 200.625 108.758C201.26 108.758 201.786 108.578 202.203 108.219C202.625 107.854 202.836 107.32 202.836 106.617V105.867ZM209.07 110H207.227V97.8438H209.07V110ZM213.531 97.8438V103.719C213.531 103.984 213.521 104.276 213.5 104.594C213.479 104.906 213.458 105.201 213.438 105.477H213.477C213.612 105.294 213.773 105.081 213.961 104.836C214.154 104.591 214.336 104.378 214.508 104.195L217.148 101.352H219.258L215.797 105.07L219.484 110H217.328L214.562 106.203L213.531 107.086V110H211.695V97.8438H213.531ZM228.242 108.672C228.482 108.672 228.719 108.651 228.953 108.609C229.188 108.562 229.401 108.508 229.594 108.445V109.836C229.391 109.924 229.128 110 228.805 110.062C228.482 110.125 228.146 110.156 227.797 110.156C227.307 110.156 226.867 110.076 226.477 109.914C226.086 109.747 225.776 109.464 225.547 109.062C225.318 108.661 225.203 108.107 225.203 107.398V102.75H224.023V101.93L225.289 101.281L225.891 99.4297H227.047V101.352H229.523V102.75H227.047V107.375C227.047 107.812 227.156 108.138 227.375 108.352C227.594 108.565 227.883 108.672 228.242 108.672ZM239.008 105.656C239.008 106.375 238.914 107.013 238.727 107.57C238.539 108.128 238.266 108.599 237.906 108.984C237.547 109.365 237.115 109.656 236.609 109.859C236.104 110.057 235.534 110.156 234.898 110.156C234.305 110.156 233.76 110.057 233.266 109.859C232.771 109.656 232.341 109.365 231.977 108.984C231.617 108.599 231.339 108.128 231.141 107.57C230.943 107.013 230.844 106.375 230.844 105.656C230.844 104.703 231.008 103.896 231.336 103.234C231.669 102.568 232.143 102.06 232.758 101.711C233.372 101.362 234.104 101.188 234.953 101.188C235.75 101.188 236.453 101.362 237.062 101.711C237.672 102.06 238.148 102.568 238.492 103.234C238.836 103.901 239.008 104.708 239.008 105.656ZM232.734 105.656C232.734 106.286 232.81 106.826 232.961 107.273C233.117 107.721 233.357 108.065 233.68 108.305C234.003 108.539 234.419 108.656 234.93 108.656C235.44 108.656 235.857 108.539 236.18 108.305C236.503 108.065 236.74 107.721 236.891 107.273C237.042 106.826 237.117 106.286 237.117 105.656C237.117 105.026 237.042 104.492 236.891 104.055C236.74 103.612 236.503 103.276 236.18 103.047C235.857 102.812 235.438 102.695 234.922 102.695C234.161 102.695 233.607 102.951 233.258 103.461C232.909 103.971 232.734 104.703 232.734 105.656ZM248.664 101.188C249.758 101.188 250.583 101.43 251.141 101.914C251.703 102.398 251.984 103.154 251.984 104.18V110H250.68L250.328 108.773H250.266C250.021 109.086 249.768 109.344 249.508 109.547C249.247 109.75 248.945 109.901 248.602 110C248.263 110.104 247.849 110.156 247.359 110.156C246.844 110.156 246.383 110.062 245.977 109.875C245.57 109.682 245.25 109.391 245.016 109C244.781 108.609 244.664 108.115 244.664 107.516C244.664 106.625 244.995 105.956 245.656 105.508C246.323 105.06 247.328 104.812 248.672 104.766L250.172 104.711V104.258C250.172 103.659 250.031 103.232 249.75 102.977C249.474 102.721 249.083 102.594 248.578 102.594C248.146 102.594 247.727 102.656 247.32 102.781C246.914 102.906 246.518 103.06 246.133 103.242L245.539 101.945C245.961 101.721 246.44 101.539 246.977 101.398C247.518 101.258 248.081 101.188 248.664 101.188ZM250.164 105.867L249.047 105.906C248.13 105.938 247.487 106.094 247.117 106.375C246.747 106.656 246.562 107.042 246.562 107.531C246.562 107.958 246.69 108.271 246.945 108.469C247.201 108.661 247.536 108.758 247.953 108.758C248.589 108.758 249.115 108.578 249.531 108.219C249.953 107.854 250.164 107.32 250.164 106.617V105.867ZM259.062 101.188C260.036 101.188 260.794 101.44 261.336 101.945C261.883 102.445 262.156 103.25 262.156 104.359V110H260.32V104.703C260.32 104.031 260.182 103.529 259.906 103.195C259.63 102.857 259.203 102.688 258.625 102.688C257.786 102.688 257.203 102.945 256.875 103.461C256.552 103.977 256.391 104.724 256.391 105.703V110H254.555V101.352H255.984L256.242 102.523H256.344C256.531 102.221 256.763 101.974 257.039 101.781C257.32 101.583 257.633 101.435 257.977 101.336C258.326 101.237 258.688 101.188 259.062 101.188ZM205.031 119.188C205.802 119.188 206.464 119.346 207.016 119.664C207.568 119.982 207.992 120.432 208.289 121.016C208.586 121.599 208.734 122.297 208.734 123.109V124.094H202.961C202.982 124.932 203.206 125.578 203.633 126.031C204.065 126.484 204.669 126.711 205.445 126.711C205.997 126.711 206.492 126.659 206.93 126.555C207.372 126.445 207.828 126.286 208.297 126.078V127.57C207.865 127.773 207.424 127.922 206.977 128.016C206.529 128.109 205.992 128.156 205.367 128.156C204.518 128.156 203.771 127.992 203.125 127.664C202.484 127.331 201.982 126.836 201.617 126.18C201.258 125.523 201.078 124.708 201.078 123.734C201.078 122.766 201.242 121.943 201.57 121.266C201.898 120.589 202.359 120.073 202.953 119.719C203.547 119.365 204.24 119.188 205.031 119.188ZM205.031 120.57C204.453 120.57 203.984 120.758 203.625 121.133C203.271 121.508 203.062 122.057 203 122.781H206.938C206.932 122.349 206.859 121.966 206.719 121.633C206.583 121.299 206.375 121.039 206.094 120.852C205.818 120.664 205.464 120.57 205.031 120.57ZM212.719 123.578L209.828 119.352H211.922L213.898 122.391L215.883 119.352H217.969L215.062 123.578L218.117 128H216.016L213.898 124.758L211.773 128H209.688L212.719 123.578ZM224.055 119.188C225.081 119.188 225.904 119.562 226.523 120.312C227.148 121.062 227.461 122.177 227.461 123.656C227.461 124.635 227.315 125.461 227.023 126.133C226.737 126.799 226.333 127.305 225.812 127.648C225.297 127.987 224.695 128.156 224.008 128.156C223.57 128.156 223.19 128.099 222.867 127.984C222.544 127.87 222.268 127.721 222.039 127.539C221.81 127.352 221.617 127.148 221.461 126.93H221.352C221.378 127.138 221.401 127.37 221.422 127.625C221.448 127.875 221.461 128.104 221.461 128.312V131.836H219.617V119.352H221.117L221.375 120.547H221.461C221.622 120.302 221.818 120.076 222.047 119.867C222.281 119.659 222.562 119.495 222.891 119.375C223.224 119.25 223.612 119.188 224.055 119.188ZM223.562 120.688C223.057 120.688 222.651 120.789 222.344 120.992C222.042 121.19 221.82 121.49 221.68 121.891C221.544 122.292 221.471 122.794 221.461 123.398V123.656C221.461 124.297 221.526 124.841 221.656 125.289C221.792 125.732 222.013 126.07 222.32 126.305C222.633 126.534 223.055 126.648 223.586 126.648C224.034 126.648 224.404 126.526 224.695 126.281C224.992 126.036 225.214 125.688 225.359 125.234C225.505 124.781 225.578 124.247 225.578 123.633C225.578 122.701 225.411 121.977 225.078 121.461C224.75 120.945 224.245 120.688 223.562 120.688ZM233.031 119.188C233.802 119.188 234.464 119.346 235.016 119.664C235.568 119.982 235.992 120.432 236.289 121.016C236.586 121.599 236.734 122.297 236.734 123.109V124.094H230.961C230.982 124.932 231.206 125.578 231.633 126.031C232.065 126.484 232.669 126.711 233.445 126.711C233.997 126.711 234.492 126.659 234.93 126.555C235.372 126.445 235.828 126.286 236.297 126.078V127.57C235.865 127.773 235.424 127.922 234.977 128.016C234.529 128.109 233.992 128.156 233.367 128.156C232.518 128.156 231.771 127.992 231.125 127.664C230.484 127.331 229.982 126.836 229.617 126.18C229.258 125.523 229.078 124.708 229.078 123.734C229.078 122.766 229.242 121.943 229.57 121.266C229.898 120.589 230.359 120.073 230.953 119.719C231.547 119.365 232.24 119.188 233.031 119.188ZM233.031 120.57C232.453 120.57 231.984 120.758 231.625 121.133C231.271 121.508 231.062 122.057 231 122.781H234.938C234.932 122.349 234.859 121.966 234.719 121.633C234.583 121.299 234.375 121.039 234.094 120.852C233.818 120.664 233.464 120.57 233.031 120.57ZM243.188 119.188C243.333 119.188 243.492 119.195 243.664 119.211C243.836 119.227 243.984 119.247 244.109 119.273L243.938 120.992C243.828 120.961 243.693 120.938 243.531 120.922C243.375 120.906 243.234 120.898 243.109 120.898C242.781 120.898 242.469 120.953 242.172 121.062C241.875 121.167 241.612 121.328 241.383 121.547C241.154 121.76 240.974 122.029 240.844 122.352C240.714 122.674 240.648 123.049 240.648 123.477V128H238.805V119.352H240.242L240.492 120.875H240.578C240.75 120.568 240.964 120.286 241.219 120.031C241.474 119.776 241.766 119.573 242.094 119.422C242.427 119.266 242.792 119.188 243.188 119.188ZM248.93 126.672C249.169 126.672 249.406 126.651 249.641 126.609C249.875 126.562 250.089 126.508 250.281 126.445V127.836C250.078 127.924 249.815 128 249.492 128.062C249.169 128.125 248.833 128.156 248.484 128.156C247.995 128.156 247.555 128.076 247.164 127.914C246.773 127.747 246.464 127.464 246.234 127.062C246.005 126.661 245.891 126.107 245.891 125.398V120.75H244.711V119.93L245.977 119.281L246.578 117.43H247.734V119.352H250.211V120.75H247.734V125.375C247.734 125.812 247.844 126.138 248.062 126.352C248.281 126.565 248.57 126.672 248.93 126.672Z" fill="black"/>
<path d="M351.094 248.891C351.094 249.568 350.927 250.151 350.594 250.641C350.266 251.13 349.792 251.505 349.172 251.766C348.557 252.026 347.823 252.156 346.969 252.156C346.552 252.156 346.154 252.133 345.773 252.086C345.393 252.039 345.034 251.971 344.695 251.883C344.362 251.789 344.057 251.677 343.781 251.547V249.781C344.245 249.984 344.763 250.169 345.336 250.336C345.909 250.497 346.492 250.578 347.086 250.578C347.57 250.578 347.971 250.516 348.289 250.391C348.612 250.26 348.852 250.078 349.008 249.844C349.164 249.604 349.242 249.326 349.242 249.008C349.242 248.669 349.151 248.383 348.969 248.148C348.786 247.914 348.51 247.701 348.141 247.508C347.776 247.31 347.318 247.099 346.766 246.875C346.391 246.724 346.031 246.552 345.688 246.359C345.349 246.167 345.047 245.94 344.781 245.68C344.516 245.419 344.305 245.112 344.148 244.758C343.997 244.398 343.922 243.977 343.922 243.492C343.922 242.846 344.076 242.294 344.383 241.836C344.695 241.378 345.133 241.026 345.695 240.781C346.263 240.536 346.924 240.414 347.68 240.414C348.279 240.414 348.841 240.477 349.367 240.602C349.898 240.727 350.419 240.904 350.93 241.133L350.336 242.641C349.867 242.448 349.411 242.294 348.969 242.18C348.531 242.065 348.083 242.008 347.625 242.008C347.229 242.008 346.893 242.068 346.617 242.188C346.341 242.307 346.13 242.477 345.984 242.695C345.844 242.909 345.773 243.164 345.773 243.461C345.773 243.794 345.854 244.076 346.016 244.305C346.182 244.529 346.438 244.734 346.781 244.922C347.13 245.109 347.578 245.318 348.125 245.547C348.755 245.807 349.289 246.081 349.727 246.367C350.169 246.654 350.508 246.997 350.742 247.398C350.977 247.794 351.094 248.292 351.094 248.891ZM360.648 243.352V252H359.203L358.953 250.836H358.852C358.669 251.133 358.438 251.38 358.156 251.578C357.875 251.771 357.562 251.914 357.219 252.008C356.875 252.107 356.513 252.156 356.133 252.156C355.482 252.156 354.924 252.047 354.461 251.828C354.003 251.604 353.651 251.26 353.406 250.797C353.161 250.333 353.039 249.734 353.039 249V243.352H354.883V248.656C354.883 249.328 355.018 249.831 355.289 250.164C355.565 250.497 355.992 250.664 356.57 250.664C357.128 250.664 357.57 250.549 357.898 250.32C358.227 250.091 358.458 249.753 358.594 249.305C358.734 248.857 358.805 248.307 358.805 247.656V243.352H360.648ZM365.117 239.844V242.773C365.117 243.112 365.107 243.445 365.086 243.773C365.07 244.096 365.055 244.349 365.039 244.531H365.117C365.352 244.156 365.677 243.841 366.094 243.586C366.516 243.326 367.055 243.195 367.711 243.195C368.737 243.195 369.562 243.573 370.188 244.328C370.812 245.078 371.125 246.19 371.125 247.664C371.125 248.643 370.982 249.466 370.695 250.133C370.409 250.799 370.005 251.305 369.484 251.648C368.969 251.987 368.362 252.156 367.664 252.156C367.008 252.156 366.477 252.036 366.07 251.797C365.669 251.552 365.354 251.268 365.125 250.945H364.992L364.656 252H363.281V239.844H365.117ZM367.227 244.688C366.706 244.688 366.292 244.792 365.984 245C365.682 245.208 365.464 245.521 365.328 245.938C365.193 246.349 365.122 246.872 365.117 247.508V247.672C365.117 248.635 365.268 249.372 365.57 249.883C365.878 250.393 366.435 250.648 367.242 250.648C367.883 250.648 368.375 250.391 368.719 249.875C369.062 249.354 369.234 248.609 369.234 247.641C369.234 246.661 369.062 245.924 368.719 245.43C368.38 244.935 367.883 244.688 367.227 244.688ZM383.023 243.188C383.992 243.188 384.721 243.438 385.211 243.938C385.706 244.438 385.953 245.24 385.953 246.344V252H384.117V246.672C384.117 246.016 383.99 245.521 383.734 245.188C383.479 244.854 383.091 244.688 382.57 244.688C381.841 244.688 381.315 244.922 380.992 245.391C380.674 245.854 380.516 246.529 380.516 247.414V252H378.68V246.672C378.68 246.234 378.622 245.87 378.508 245.578C378.398 245.281 378.229 245.06 378 244.914C377.771 244.763 377.482 244.688 377.133 244.688C376.628 244.688 376.224 244.802 375.922 245.031C375.625 245.26 375.411 245.599 375.281 246.047C375.151 246.49 375.086 247.034 375.086 247.68V252H373.25V243.352H374.68L374.938 244.516H375.039C375.216 244.214 375.435 243.966 375.695 243.773C375.961 243.576 376.255 243.43 376.578 243.336C376.901 243.237 377.237 243.188 377.586 243.188C378.232 243.188 378.776 243.302 379.219 243.531C379.661 243.755 379.992 244.099 380.211 244.562H380.352C380.622 244.094 381 243.747 381.484 243.523C381.969 243.299 382.482 243.188 383.023 243.188ZM390.352 243.352V252H388.516V243.352H390.352ZM389.445 240.039C389.727 240.039 389.969 240.115 390.172 240.266C390.38 240.417 390.484 240.677 390.484 241.047C390.484 241.411 390.38 241.672 390.172 241.828C389.969 241.979 389.727 242.055 389.445 242.055C389.154 242.055 388.906 241.979 388.703 241.828C388.505 241.672 388.406 241.411 388.406 241.047C388.406 240.677 388.505 240.417 388.703 240.266C388.906 240.115 389.154 240.039 389.445 240.039ZM396.203 250.672C396.443 250.672 396.68 250.651 396.914 250.609C397.148 250.562 397.362 250.508 397.555 250.445V251.836C397.352 251.924 397.089 252 396.766 252.062C396.443 252.125 396.107 252.156 395.758 252.156C395.268 252.156 394.828 252.076 394.438 251.914C394.047 251.747 393.737 251.464 393.508 251.062C393.279 250.661 393.164 250.107 393.164 249.398V244.75H391.984V243.93L393.25 243.281L393.852 241.43H395.008V243.352H397.484V244.75H395.008V249.375C395.008 249.812 395.117 250.138 395.336 250.352C395.555 250.565 395.844 250.672 396.203 250.672ZM354.625 264.18C354.625 265.466 354.385 266.542 353.906 267.406C353.427 268.266 352.732 268.914 351.82 269.352C350.909 269.784 349.81 270 348.523 270H345.352V258.578H348.867C350.049 258.578 351.07 258.792 351.93 259.219C352.789 259.641 353.453 260.268 353.922 261.102C354.391 261.93 354.625 262.956 354.625 264.18ZM352.672 264.234C352.672 263.297 352.523 262.526 352.227 261.922C351.935 261.318 351.503 260.87 350.93 260.578C350.362 260.281 349.661 260.133 348.828 260.133H347.227V268.43H348.555C349.935 268.43 350.966 268.078 351.648 267.375C352.331 266.672 352.672 265.625 352.672 264.234ZM360.344 261.188C361.115 261.188 361.776 261.346 362.328 261.664C362.88 261.982 363.305 262.432 363.602 263.016C363.898 263.599 364.047 264.297 364.047 265.109V266.094H358.273C358.294 266.932 358.518 267.578 358.945 268.031C359.378 268.484 359.982 268.711 360.758 268.711C361.31 268.711 361.805 268.659 362.242 268.555C362.685 268.445 363.141 268.286 363.609 268.078V269.57C363.177 269.773 362.737 269.922 362.289 270.016C361.841 270.109 361.305 270.156 360.68 270.156C359.831 270.156 359.083 269.992 358.438 269.664C357.797 269.331 357.294 268.836 356.93 268.18C356.57 267.523 356.391 266.708 356.391 265.734C356.391 264.766 356.555 263.943 356.883 263.266C357.211 262.589 357.672 262.073 358.266 261.719C358.859 261.365 359.552 261.188 360.344 261.188ZM360.344 262.57C359.766 262.57 359.297 262.758 358.938 263.133C358.583 263.508 358.375 264.057 358.312 264.781H362.25C362.245 264.349 362.172 263.966 362.031 263.633C361.896 263.299 361.688 263.039 361.406 262.852C361.13 262.664 360.776 262.57 360.344 262.57ZM369.336 268.672C369.576 268.672 369.812 268.651 370.047 268.609C370.281 268.562 370.495 268.508 370.688 268.445V269.836C370.484 269.924 370.221 270 369.898 270.062C369.576 270.125 369.24 270.156 368.891 270.156C368.401 270.156 367.961 270.076 367.57 269.914C367.18 269.747 366.87 269.464 366.641 269.062C366.411 268.661 366.297 268.107 366.297 267.398V262.75H365.117V261.93L366.383 261.281L366.984 259.43H368.141V261.352H370.617V262.75H368.141V267.375C368.141 267.812 368.25 268.138 368.469 268.352C368.688 268.565 368.977 268.672 369.336 268.672ZM375.836 261.188C376.93 261.188 377.755 261.43 378.312 261.914C378.875 262.398 379.156 263.154 379.156 264.18V270H377.852L377.5 268.773H377.438C377.193 269.086 376.94 269.344 376.68 269.547C376.419 269.75 376.117 269.901 375.773 270C375.435 270.104 375.021 270.156 374.531 270.156C374.016 270.156 373.555 270.062 373.148 269.875C372.742 269.682 372.422 269.391 372.188 269C371.953 268.609 371.836 268.115 371.836 267.516C371.836 266.625 372.167 265.956 372.828 265.508C373.495 265.06 374.5 264.812 375.844 264.766L377.344 264.711V264.258C377.344 263.659 377.203 263.232 376.922 262.977C376.646 262.721 376.255 262.594 375.75 262.594C375.318 262.594 374.898 262.656 374.492 262.781C374.086 262.906 373.69 263.06 373.305 263.242L372.711 261.945C373.133 261.721 373.612 261.539 374.148 261.398C374.69 261.258 375.253 261.188 375.836 261.188ZM377.336 265.867L376.219 265.906C375.302 265.938 374.659 266.094 374.289 266.375C373.919 266.656 373.734 267.042 373.734 267.531C373.734 267.958 373.862 268.271 374.117 268.469C374.372 268.661 374.708 268.758 375.125 268.758C375.76 268.758 376.286 268.578 376.703 268.219C377.125 267.854 377.336 267.32 377.336 266.617V265.867ZM383.562 261.352V270H381.727V261.352H383.562ZM382.656 258.039C382.938 258.039 383.18 258.115 383.383 258.266C383.591 258.417 383.695 258.677 383.695 259.047C383.695 259.411 383.591 259.672 383.383 259.828C383.18 259.979 382.938 260.055 382.656 260.055C382.365 260.055 382.117 259.979 381.914 259.828C381.716 259.672 381.617 259.411 381.617 259.047C381.617 258.677 381.716 258.417 381.914 258.266C382.117 258.115 382.365 258.039 382.656 258.039ZM388.039 270H386.195V257.844H388.039V270ZM396.477 267.531C396.477 268.099 396.339 268.578 396.062 268.969C395.786 269.359 395.383 269.656 394.852 269.859C394.326 270.057 393.68 270.156 392.914 270.156C392.31 270.156 391.789 270.112 391.352 270.023C390.919 269.94 390.51 269.81 390.125 269.633V268.047C390.536 268.24 390.997 268.406 391.508 268.547C392.023 268.688 392.51 268.758 392.969 268.758C393.573 268.758 394.008 268.664 394.273 268.477C394.539 268.284 394.672 268.029 394.672 267.711C394.672 267.523 394.617 267.357 394.508 267.211C394.404 267.06 394.206 266.906 393.914 266.75C393.628 266.589 393.206 266.396 392.648 266.172C392.102 265.953 391.641 265.734 391.266 265.516C390.891 265.297 390.607 265.034 390.414 264.727C390.221 264.414 390.125 264.016 390.125 263.531C390.125 262.766 390.427 262.185 391.031 261.789C391.641 261.388 392.445 261.188 393.445 261.188C393.977 261.188 394.477 261.242 394.945 261.352C395.419 261.456 395.883 261.609 396.336 261.812L395.758 263.195C395.367 263.023 394.974 262.883 394.578 262.773C394.188 262.659 393.789 262.602 393.383 262.602C392.909 262.602 392.547 262.674 392.297 262.82C392.052 262.966 391.93 263.174 391.93 263.445C391.93 263.648 391.99 263.82 392.109 263.961C392.229 264.102 392.435 264.242 392.727 264.383C393.023 264.523 393.435 264.698 393.961 264.906C394.477 265.104 394.922 265.312 395.297 265.531C395.677 265.745 395.969 266.008 396.172 266.32C396.375 266.633 396.477 267.036 396.477 267.531Z" fill="black"/>
<path d="M465.602 97.0078C465.055 97.0078 464.565 97.1068 464.133 97.3047C463.706 97.5026 463.344 97.7891 463.047 98.1641C462.75 98.5339 462.523 98.9844 462.367 99.5156C462.211 100.042 462.133 100.635 462.133 101.297C462.133 102.182 462.258 102.945 462.508 103.586C462.758 104.221 463.138 104.711 463.648 105.055C464.159 105.393 464.805 105.562 465.586 105.562C466.07 105.562 466.542 105.516 467 105.422C467.458 105.328 467.932 105.201 468.422 105.039V106.633C467.958 106.815 467.49 106.948 467.016 107.031C466.542 107.115 465.995 107.156 465.375 107.156C464.208 107.156 463.24 106.914 462.469 106.43C461.703 105.945 461.13 105.263 460.75 104.383C460.375 103.503 460.188 102.471 460.188 101.289C460.188 100.424 460.307 99.6328 460.547 98.9141C460.786 98.1953 461.135 97.5755 461.594 97.0547C462.052 96.5286 462.617 96.125 463.289 95.8438C463.966 95.5573 464.74 95.4141 465.609 95.4141C466.182 95.4141 466.745 95.4792 467.297 95.6094C467.854 95.7344 468.37 95.9141 468.844 96.1484L468.188 97.6953C467.792 97.5078 467.378 97.3464 466.945 97.2109C466.513 97.0755 466.065 97.0078 465.602 97.0078ZM472.523 94.8438V97.8984C472.523 98.2161 472.513 98.526 472.492 98.8281C472.477 99.1302 472.458 99.3646 472.438 99.5312H472.539C472.721 99.2292 472.945 98.9818 473.211 98.7891C473.477 98.5911 473.773 98.4427 474.102 98.3438C474.435 98.2448 474.789 98.1953 475.164 98.1953C475.826 98.1953 476.388 98.3073 476.852 98.5312C477.315 98.75 477.669 99.0911 477.914 99.5547C478.164 100.018 478.289 100.62 478.289 101.359V107H476.453V101.703C476.453 101.031 476.315 100.529 476.039 100.195C475.763 99.8568 475.336 99.6875 474.758 99.6875C474.201 99.6875 473.758 99.8047 473.43 100.039C473.107 100.268 472.875 100.609 472.734 101.062C472.594 101.51 472.523 102.057 472.523 102.703V107H470.688V94.8438H472.523ZM484.305 98.1875C485.076 98.1875 485.737 98.3464 486.289 98.6641C486.841 98.9818 487.266 99.4323 487.562 100.016C487.859 100.599 488.008 101.297 488.008 102.109V103.094H482.234C482.255 103.932 482.479 104.578 482.906 105.031C483.339 105.484 483.943 105.711 484.719 105.711C485.271 105.711 485.766 105.659 486.203 105.555C486.646 105.445 487.102 105.286 487.57 105.078V106.57C487.138 106.773 486.698 106.922 486.25 107.016C485.802 107.109 485.266 107.156 484.641 107.156C483.792 107.156 483.044 106.992 482.398 106.664C481.758 106.331 481.255 105.836 480.891 105.18C480.531 104.523 480.352 103.708 480.352 102.734C480.352 101.766 480.516 100.943 480.844 100.266C481.172 99.5885 481.633 99.0729 482.227 98.7188C482.82 98.3646 483.513 98.1875 484.305 98.1875ZM484.305 99.5703C483.727 99.5703 483.258 99.7578 482.898 100.133C482.544 100.508 482.336 101.057 482.273 101.781H486.211C486.206 101.349 486.133 100.966 485.992 100.633C485.857 100.299 485.648 100.039 485.367 99.8516C485.091 99.6641 484.737 99.5703 484.305 99.5703ZM493.562 107.156C492.745 107.156 492.036 106.997 491.438 106.68C490.839 106.362 490.378 105.875 490.055 105.219C489.732 104.562 489.57 103.729 489.57 102.719C489.57 101.667 489.747 100.807 490.102 100.141C490.456 99.474 490.945 98.9818 491.57 98.6641C492.201 98.3464 492.922 98.1875 493.734 98.1875C494.25 98.1875 494.716 98.2396 495.133 98.3438C495.555 98.4427 495.911 98.5651 496.203 98.7109L495.656 100.18C495.339 100.049 495.013 99.9401 494.68 99.8516C494.346 99.763 494.026 99.7188 493.719 99.7188C493.214 99.7188 492.792 99.8307 492.453 100.055C492.12 100.279 491.87 100.612 491.703 101.055C491.542 101.497 491.461 102.047 491.461 102.703C491.461 103.339 491.544 103.875 491.711 104.312C491.878 104.745 492.125 105.073 492.453 105.297C492.781 105.516 493.185 105.625 493.664 105.625C494.138 105.625 494.562 105.568 494.938 105.453C495.312 105.339 495.667 105.19 496 105.008V106.602C495.672 106.789 495.32 106.927 494.945 107.016C494.57 107.109 494.109 107.156 493.562 107.156ZM499.867 94.8438V100.719C499.867 100.984 499.857 101.276 499.836 101.594C499.815 101.906 499.794 102.201 499.773 102.477H499.812C499.948 102.294 500.109 102.081 500.297 101.836C500.49 101.591 500.672 101.378 500.844 101.195L503.484 98.3516H505.594L502.133 102.07L505.82 107H503.664L500.898 103.203L499.867 104.086V107H498.031V94.8438H499.867ZM514.578 105.672C514.818 105.672 515.055 105.651 515.289 105.609C515.523 105.562 515.737 105.508 515.93 105.445V106.836C515.727 106.924 515.464 107 515.141 107.062C514.818 107.125 514.482 107.156 514.133 107.156C513.643 107.156 513.203 107.076 512.812 106.914C512.422 106.747 512.112 106.464 511.883 106.062C511.654 105.661 511.539 105.107 511.539 104.398V99.75H510.359V98.9297L511.625 98.2812L512.227 96.4297H513.383V98.3516H515.859V99.75H513.383V104.375C513.383 104.812 513.492 105.138 513.711 105.352C513.93 105.565 514.219 105.672 514.578 105.672ZM519.523 94.8438V97.8984C519.523 98.2161 519.513 98.526 519.492 98.8281C519.477 99.1302 519.458 99.3646 519.438 99.5312H519.539C519.721 99.2292 519.945 98.9818 520.211 98.7891C520.477 98.5911 520.773 98.4427 521.102 98.3438C521.435 98.2448 521.789 98.1953 522.164 98.1953C522.826 98.1953 523.388 98.3073 523.852 98.5312C524.315 98.75 524.669 99.0911 524.914 99.5547C525.164 100.018 525.289 100.62 525.289 101.359V107H523.453V101.703C523.453 101.031 523.315 100.529 523.039 100.195C522.763 99.8568 522.336 99.6875 521.758 99.6875C521.201 99.6875 520.758 99.8047 520.43 100.039C520.107 100.268 519.875 100.609 519.734 101.062C519.594 101.51 519.523 102.057 519.523 102.703V107H517.688V94.8438H519.523ZM531.305 98.1875C532.076 98.1875 532.737 98.3464 533.289 98.6641C533.841 98.9818 534.266 99.4323 534.562 100.016C534.859 100.599 535.008 101.297 535.008 102.109V103.094H529.234C529.255 103.932 529.479 104.578 529.906 105.031C530.339 105.484 530.943 105.711 531.719 105.711C532.271 105.711 532.766 105.659 533.203 105.555C533.646 105.445 534.102 105.286 534.57 105.078V106.57C534.138 106.773 533.698 106.922 533.25 107.016C532.802 107.109 532.266 107.156 531.641 107.156C530.792 107.156 530.044 106.992 529.398 106.664C528.758 106.331 528.255 105.836 527.891 105.18C527.531 104.523 527.352 103.708 527.352 102.734C527.352 101.766 527.516 100.943 527.844 100.266C528.172 99.5885 528.633 99.0729 529.227 98.7188C529.82 98.3646 530.513 98.1875 531.305 98.1875ZM531.305 99.5703C530.727 99.5703 530.258 99.7578 529.898 100.133C529.544 100.508 529.336 101.057 529.273 101.781H533.211C533.206 101.349 533.133 100.966 532.992 100.633C532.857 100.299 532.648 100.039 532.367 99.8516C532.091 99.6641 531.737 99.5703 531.305 99.5703ZM469.633 116.188C470.659 116.188 471.482 116.562 472.102 117.312C472.727 118.062 473.039 119.177 473.039 120.656C473.039 121.635 472.893 122.461 472.602 123.133C472.315 123.799 471.911 124.305 471.391 124.648C470.875 124.987 470.273 125.156 469.586 125.156C469.148 125.156 468.768 125.099 468.445 124.984C468.122 124.87 467.846 124.721 467.617 124.539C467.388 124.352 467.195 124.148 467.039 123.93H466.93C466.956 124.138 466.979 124.37 467 124.625C467.026 124.875 467.039 125.104 467.039 125.312V128.836H465.195V116.352H466.695L466.953 117.547H467.039C467.201 117.302 467.396 117.076 467.625 116.867C467.859 116.659 468.141 116.495 468.469 116.375C468.802 116.25 469.19 116.188 469.633 116.188ZM469.141 117.688C468.635 117.688 468.229 117.789 467.922 117.992C467.62 118.19 467.398 118.49 467.258 118.891C467.122 119.292 467.049 119.794 467.039 120.398V120.656C467.039 121.297 467.104 121.841 467.234 122.289C467.37 122.732 467.591 123.07 467.898 123.305C468.211 123.534 468.633 123.648 469.164 123.648C469.612 123.648 469.982 123.526 470.273 123.281C470.57 123.036 470.792 122.688 470.938 122.234C471.083 121.781 471.156 121.247 471.156 120.633C471.156 119.701 470.99 118.977 470.656 118.461C470.328 117.945 469.823 117.688 469.141 117.688ZM479.547 116.188C479.693 116.188 479.852 116.195 480.023 116.211C480.195 116.227 480.344 116.247 480.469 116.273L480.297 117.992C480.188 117.961 480.052 117.938 479.891 117.922C479.734 117.906 479.594 117.898 479.469 117.898C479.141 117.898 478.828 117.953 478.531 118.062C478.234 118.167 477.971 118.328 477.742 118.547C477.513 118.76 477.333 119.029 477.203 119.352C477.073 119.674 477.008 120.049 477.008 120.477V125H475.164V116.352H476.602L476.852 117.875H476.938C477.109 117.568 477.323 117.286 477.578 117.031C477.833 116.776 478.125 116.573 478.453 116.422C478.786 116.266 479.151 116.188 479.547 116.188ZM489.727 120.656C489.727 121.375 489.633 122.013 489.445 122.57C489.258 123.128 488.984 123.599 488.625 123.984C488.266 124.365 487.833 124.656 487.328 124.859C486.823 125.057 486.253 125.156 485.617 125.156C485.023 125.156 484.479 125.057 483.984 124.859C483.49 124.656 483.06 124.365 482.695 123.984C482.336 123.599 482.057 123.128 481.859 122.57C481.661 122.013 481.562 121.375 481.562 120.656C481.562 119.703 481.727 118.896 482.055 118.234C482.388 117.568 482.862 117.06 483.477 116.711C484.091 116.362 484.823 116.188 485.672 116.188C486.469 116.188 487.172 116.362 487.781 116.711C488.391 117.06 488.867 117.568 489.211 118.234C489.555 118.901 489.727 119.708 489.727 120.656ZM483.453 120.656C483.453 121.286 483.529 121.826 483.68 122.273C483.836 122.721 484.076 123.065 484.398 123.305C484.721 123.539 485.138 123.656 485.648 123.656C486.159 123.656 486.576 123.539 486.898 123.305C487.221 123.065 487.458 122.721 487.609 122.273C487.76 121.826 487.836 121.286 487.836 120.656C487.836 120.026 487.76 119.492 487.609 119.055C487.458 118.612 487.221 118.276 486.898 118.047C486.576 117.812 486.156 117.695 485.641 117.695C484.88 117.695 484.326 117.951 483.977 118.461C483.628 118.971 483.453 119.703 483.453 120.656ZM494.305 128.844C493.133 128.844 492.234 128.633 491.609 128.211C490.984 127.789 490.672 127.198 490.672 126.438C490.672 125.906 490.839 125.456 491.172 125.086C491.505 124.721 491.982 124.469 492.602 124.328C492.367 124.224 492.164 124.062 491.992 123.844C491.826 123.62 491.742 123.372 491.742 123.102C491.742 122.779 491.833 122.503 492.016 122.273C492.198 122.044 492.471 121.823 492.836 121.609C492.383 121.417 492.018 121.104 491.742 120.672C491.471 120.234 491.336 119.721 491.336 119.133C491.336 118.508 491.469 117.977 491.734 117.539C492 117.096 492.388 116.76 492.898 116.531C493.409 116.297 494.026 116.18 494.75 116.18C494.906 116.18 495.076 116.19 495.258 116.211C495.445 116.227 495.617 116.247 495.773 116.273C495.935 116.294 496.057 116.318 496.141 116.344H499.133V117.367L497.664 117.641C497.805 117.839 497.917 118.065 498 118.32C498.083 118.57 498.125 118.844 498.125 119.141C498.125 120.036 497.815 120.742 497.195 121.258C496.581 121.768 495.732 122.023 494.648 122.023C494.388 122.013 494.135 121.992 493.891 121.961C493.703 122.076 493.56 122.203 493.461 122.344C493.362 122.479 493.312 122.633 493.312 122.805C493.312 122.945 493.362 123.06 493.461 123.148C493.56 123.232 493.706 123.294 493.898 123.336C494.096 123.378 494.336 123.398 494.617 123.398H496.109C497.057 123.398 497.781 123.599 498.281 124C498.781 124.401 499.031 124.99 499.031 125.766C499.031 126.75 498.625 127.508 497.812 128.039C497 128.576 495.831 128.844 494.305 128.844ZM494.375 127.555C495.016 127.555 495.555 127.492 495.992 127.367C496.43 127.242 496.76 127.062 496.984 126.828C497.208 126.599 497.32 126.326 497.32 126.008C497.32 125.727 497.25 125.51 497.109 125.359C496.969 125.208 496.758 125.104 496.477 125.047C496.195 124.99 495.846 124.961 495.43 124.961H494.07C493.732 124.961 493.432 125.013 493.172 125.117C492.911 125.227 492.708 125.383 492.562 125.586C492.422 125.789 492.352 126.034 492.352 126.32C492.352 126.716 492.526 127.021 492.875 127.234C493.229 127.448 493.729 127.555 494.375 127.555ZM494.734 120.82C495.271 120.82 495.669 120.674 495.93 120.383C496.19 120.086 496.32 119.669 496.32 119.133C496.32 118.549 496.185 118.112 495.914 117.82C495.648 117.529 495.253 117.383 494.727 117.383C494.211 117.383 493.818 117.531 493.547 117.828C493.281 118.125 493.148 118.565 493.148 119.148C493.148 119.674 493.281 120.086 493.547 120.383C493.818 120.674 494.214 120.82 494.734 120.82ZM505.094 116.188C505.24 116.188 505.398 116.195 505.57 116.211C505.742 116.227 505.891 116.247 506.016 116.273L505.844 117.992C505.734 117.961 505.599 117.938 505.438 117.922C505.281 117.906 505.141 117.898 505.016 117.898C504.688 117.898 504.375 117.953 504.078 118.062C503.781 118.167 503.518 118.328 503.289 118.547C503.06 118.76 502.88 119.029 502.75 119.352C502.62 119.674 502.555 120.049 502.555 120.477V125H500.711V116.352H502.148L502.398 117.875H502.484C502.656 117.568 502.87 117.286 503.125 117.031C503.38 116.776 503.672 116.573 504 116.422C504.333 116.266 504.698 116.188 505.094 116.188ZM511.062 116.188C511.833 116.188 512.495 116.346 513.047 116.664C513.599 116.982 514.023 117.432 514.32 118.016C514.617 118.599 514.766 119.297 514.766 120.109V121.094H508.992C509.013 121.932 509.237 122.578 509.664 123.031C510.096 123.484 510.701 123.711 511.477 123.711C512.029 123.711 512.523 123.659 512.961 123.555C513.404 123.445 513.859 123.286 514.328 123.078V124.57C513.896 124.773 513.456 124.922 513.008 125.016C512.56 125.109 512.023 125.156 511.398 125.156C510.549 125.156 509.802 124.992 509.156 124.664C508.516 124.331 508.013 123.836 507.648 123.18C507.289 122.523 507.109 121.708 507.109 120.734C507.109 119.766 507.273 118.943 507.602 118.266C507.93 117.589 508.391 117.073 508.984 116.719C509.578 116.365 510.271 116.188 511.062 116.188ZM511.062 117.57C510.484 117.57 510.016 117.758 509.656 118.133C509.302 118.508 509.094 119.057 509.031 119.781H512.969C512.964 119.349 512.891 118.966 512.75 118.633C512.615 118.299 512.406 118.039 512.125 117.852C511.849 117.664 511.495 117.57 511.062 117.57ZM522.648 122.531C522.648 123.099 522.51 123.578 522.234 123.969C521.958 124.359 521.555 124.656 521.023 124.859C520.497 125.057 519.852 125.156 519.086 125.156C518.482 125.156 517.961 125.112 517.523 125.023C517.091 124.94 516.682 124.81 516.297 124.633V123.047C516.708 123.24 517.169 123.406 517.68 123.547C518.195 123.688 518.682 123.758 519.141 123.758C519.745 123.758 520.18 123.664 520.445 123.477C520.711 123.284 520.844 123.029 520.844 122.711C520.844 122.523 520.789 122.357 520.68 122.211C520.576 122.06 520.378 121.906 520.086 121.75C519.799 121.589 519.378 121.396 518.82 121.172C518.273 120.953 517.812 120.734 517.438 120.516C517.062 120.297 516.779 120.034 516.586 119.727C516.393 119.414 516.297 119.016 516.297 118.531C516.297 117.766 516.599 117.185 517.203 116.789C517.812 116.388 518.617 116.188 519.617 116.188C520.148 116.188 520.648 116.242 521.117 116.352C521.591 116.456 522.055 116.609 522.508 116.812L521.93 118.195C521.539 118.023 521.146 117.883 520.75 117.773C520.359 117.659 519.961 117.602 519.555 117.602C519.081 117.602 518.719 117.674 518.469 117.82C518.224 117.966 518.102 118.174 518.102 118.445C518.102 118.648 518.161 118.82 518.281 118.961C518.401 119.102 518.607 119.242 518.898 119.383C519.195 119.523 519.607 119.698 520.133 119.906C520.648 120.104 521.094 120.312 521.469 120.531C521.849 120.745 522.141 121.008 522.344 121.32C522.547 121.633 522.648 122.036 522.648 122.531ZM530.445 122.531C530.445 123.099 530.307 123.578 530.031 123.969C529.755 124.359 529.352 124.656 528.82 124.859C528.294 125.057 527.648 125.156 526.883 125.156C526.279 125.156 525.758 125.112 525.32 125.023C524.888 124.94 524.479 124.81 524.094 124.633V123.047C524.505 123.24 524.966 123.406 525.477 123.547C525.992 123.688 526.479 123.758 526.938 123.758C527.542 123.758 527.977 123.664 528.242 123.477C528.508 123.284 528.641 123.029 528.641 122.711C528.641 122.523 528.586 122.357 528.477 122.211C528.372 122.06 528.174 121.906 527.883 121.75C527.596 121.589 527.174 121.396 526.617 121.172C526.07 120.953 525.609 120.734 525.234 120.516C524.859 120.297 524.576 120.034 524.383 119.727C524.19 119.414 524.094 119.016 524.094 118.531C524.094 117.766 524.396 117.185 525 116.789C525.609 116.388 526.414 116.188 527.414 116.188C527.945 116.188 528.445 116.242 528.914 116.352C529.388 116.456 529.852 116.609 530.305 116.812L529.727 118.195C529.336 118.023 528.943 117.883 528.547 117.773C528.156 117.659 527.758 117.602 527.352 117.602C526.878 117.602 526.516 117.674 526.266 117.82C526.021 117.966 525.898 118.174 525.898 118.445C525.898 118.648 525.958 118.82 526.078 118.961C526.198 119.102 526.404 119.242 526.695 119.383C526.992 119.523 527.404 119.698 527.93 119.906C528.445 120.104 528.891 120.312 529.266 120.531C529.646 120.745 529.938 121.008 530.141 121.32C530.344 121.633 530.445 122.036 530.445 122.531Z" fill="black"/>
<path d="M601 257.797H605.266V263.531C604.667 263.729 604.047 263.883 603.406 263.992C602.766 264.102 602.047 264.156 601.25 264.156C600.089 264.156 599.104 263.927 598.297 263.469C597.495 263.005 596.885 262.336 596.469 261.461C596.052 260.581 595.844 259.521 595.844 258.281C595.844 257.089 596.076 256.055 596.539 255.18C597.003 254.299 597.677 253.62 598.562 253.141C599.448 252.656 600.521 252.414 601.781 252.414C602.401 252.414 603 252.477 603.578 252.602C604.161 252.721 604.695 252.888 605.18 253.102L604.523 254.648C604.138 254.466 603.706 254.312 603.227 254.188C602.747 254.062 602.25 254 601.734 254C600.917 254 600.211 254.177 599.617 254.531C599.029 254.885 598.576 255.385 598.258 256.031C597.94 256.672 597.781 257.43 597.781 258.305C597.781 259.154 597.909 259.898 598.164 260.539C598.419 261.18 598.818 261.68 599.359 262.039C599.906 262.393 600.612 262.57 601.477 262.57C601.909 262.57 602.276 262.547 602.578 262.5C602.88 262.453 603.159 262.401 603.414 262.344V259.398H601V257.797ZM611.258 255.188C612.029 255.188 612.69 255.346 613.242 255.664C613.794 255.982 614.219 256.432 614.516 257.016C614.812 257.599 614.961 258.297 614.961 259.109V260.094H609.188C609.208 260.932 609.432 261.578 609.859 262.031C610.292 262.484 610.896 262.711 611.672 262.711C612.224 262.711 612.719 262.659 613.156 262.555C613.599 262.445 614.055 262.286 614.523 262.078V263.57C614.091 263.773 613.651 263.922 613.203 264.016C612.755 264.109 612.219 264.156 611.594 264.156C610.745 264.156 609.997 263.992 609.352 263.664C608.711 263.331 608.208 262.836 607.844 262.18C607.484 261.523 607.305 260.708 607.305 259.734C607.305 258.766 607.469 257.943 607.797 257.266C608.125 256.589 608.586 256.073 609.18 255.719C609.773 255.365 610.466 255.188 611.258 255.188ZM611.258 256.57C610.68 256.57 610.211 256.758 609.852 257.133C609.497 257.508 609.289 258.057 609.227 258.781H613.164C613.159 258.349 613.086 257.966 612.945 257.633C612.81 257.299 612.602 257.039 612.32 256.852C612.044 256.664 611.69 256.57 611.258 256.57ZM620.25 262.672C620.49 262.672 620.727 262.651 620.961 262.609C621.195 262.562 621.409 262.508 621.602 262.445V263.836C621.398 263.924 621.135 264 620.812 264.062C620.49 264.125 620.154 264.156 619.805 264.156C619.315 264.156 618.875 264.076 618.484 263.914C618.094 263.747 617.784 263.464 617.555 263.062C617.326 262.661 617.211 262.107 617.211 261.398V256.75H616.031V255.93L617.297 255.281L617.898 253.43H619.055V255.352H621.531V256.75H619.055V261.375C619.055 261.812 619.164 262.138 619.383 262.352C619.602 262.565 619.891 262.672 620.25 262.672ZM633.328 261.531C633.328 262.099 633.19 262.578 632.914 262.969C632.638 263.359 632.234 263.656 631.703 263.859C631.177 264.057 630.531 264.156 629.766 264.156C629.161 264.156 628.641 264.112 628.203 264.023C627.771 263.94 627.362 263.81 626.977 263.633V262.047C627.388 262.24 627.849 262.406 628.359 262.547C628.875 262.688 629.362 262.758 629.82 262.758C630.424 262.758 630.859 262.664 631.125 262.477C631.391 262.284 631.523 262.029 631.523 261.711C631.523 261.523 631.469 261.357 631.359 261.211C631.255 261.06 631.057 260.906 630.766 260.75C630.479 260.589 630.057 260.396 629.5 260.172C628.953 259.953 628.492 259.734 628.117 259.516C627.742 259.297 627.458 259.034 627.266 258.727C627.073 258.414 626.977 258.016 626.977 257.531C626.977 256.766 627.279 256.185 627.883 255.789C628.492 255.388 629.297 255.188 630.297 255.188C630.828 255.188 631.328 255.242 631.797 255.352C632.271 255.456 632.734 255.609 633.188 255.812L632.609 257.195C632.219 257.023 631.826 256.883 631.43 256.773C631.039 256.659 630.641 256.602 630.234 256.602C629.76 256.602 629.398 256.674 629.148 256.82C628.904 256.966 628.781 257.174 628.781 257.445C628.781 257.648 628.841 257.82 628.961 257.961C629.081 258.102 629.286 258.242 629.578 258.383C629.875 258.523 630.286 258.698 630.812 258.906C631.328 259.104 631.773 259.312 632.148 259.531C632.529 259.745 632.82 260.008 633.023 260.32C633.227 260.633 633.328 261.036 633.328 261.531ZM638.758 255.188C639.529 255.188 640.19 255.346 640.742 255.664C641.294 255.982 641.719 256.432 642.016 257.016C642.312 257.599 642.461 258.297 642.461 259.109V260.094H636.688C636.708 260.932 636.932 261.578 637.359 262.031C637.792 262.484 638.396 262.711 639.172 262.711C639.724 262.711 640.219 262.659 640.656 262.555C641.099 262.445 641.555 262.286 642.023 262.078V263.57C641.591 263.773 641.151 263.922 640.703 264.016C640.255 264.109 639.719 264.156 639.094 264.156C638.245 264.156 637.497 263.992 636.852 263.664C636.211 263.331 635.708 262.836 635.344 262.18C634.984 261.523 634.805 260.708 634.805 259.734C634.805 258.766 634.969 257.943 635.297 257.266C635.625 256.589 636.086 256.073 636.68 255.719C637.273 255.365 637.966 255.188 638.758 255.188ZM638.758 256.57C638.18 256.57 637.711 256.758 637.352 257.133C636.997 257.508 636.789 258.057 636.727 258.781H640.664C640.659 258.349 640.586 257.966 640.445 257.633C640.31 257.299 640.102 257.039 639.82 256.852C639.544 256.664 639.19 256.57 638.758 256.57ZM648.914 255.188C649.06 255.188 649.219 255.195 649.391 255.211C649.562 255.227 649.711 255.247 649.836 255.273L649.664 256.992C649.555 256.961 649.419 256.938 649.258 256.922C649.102 256.906 648.961 256.898 648.836 256.898C648.508 256.898 648.195 256.953 647.898 257.062C647.602 257.167 647.339 257.328 647.109 257.547C646.88 257.76 646.701 258.029 646.57 258.352C646.44 258.674 646.375 259.049 646.375 259.477V264H644.531V255.352H645.969L646.219 256.875H646.305C646.477 256.568 646.69 256.286 646.945 256.031C647.201 255.776 647.492 255.573 647.82 255.422C648.154 255.266 648.518 255.188 648.914 255.188ZM653.414 264L650.125 255.352H652.07L653.852 260.43C653.966 260.753 654.07 261.102 654.164 261.477C654.258 261.852 654.323 262.167 654.359 262.422H654.422C654.458 262.156 654.529 261.839 654.633 261.469C654.737 261.094 654.844 260.747 654.953 260.43L656.734 255.352H658.672L655.383 264H653.414ZM661.82 255.352V264H659.984V255.352H661.82ZM660.914 252.039C661.195 252.039 661.438 252.115 661.641 252.266C661.849 252.417 661.953 252.677 661.953 253.047C661.953 253.411 661.849 253.672 661.641 253.828C661.438 253.979 661.195 254.055 660.914 254.055C660.622 254.055 660.375 253.979 660.172 253.828C659.974 253.672 659.875 253.411 659.875 253.047C659.875 252.677 659.974 252.417 660.172 252.266C660.375 252.115 660.622 252.039 660.914 252.039ZM667.938 264.156C667.12 264.156 666.411 263.997 665.812 263.68C665.214 263.362 664.753 262.875 664.43 262.219C664.107 261.562 663.945 260.729 663.945 259.719C663.945 258.667 664.122 257.807 664.477 257.141C664.831 256.474 665.32 255.982 665.945 255.664C666.576 255.346 667.297 255.188 668.109 255.188C668.625 255.188 669.091 255.24 669.508 255.344C669.93 255.443 670.286 255.565 670.578 255.711L670.031 257.18C669.714 257.049 669.388 256.94 669.055 256.852C668.721 256.763 668.401 256.719 668.094 256.719C667.589 256.719 667.167 256.831 666.828 257.055C666.495 257.279 666.245 257.612 666.078 258.055C665.917 258.497 665.836 259.047 665.836 259.703C665.836 260.339 665.919 260.875 666.086 261.312C666.253 261.745 666.5 262.073 666.828 262.297C667.156 262.516 667.56 262.625 668.039 262.625C668.513 262.625 668.938 262.568 669.312 262.453C669.688 262.339 670.042 262.19 670.375 262.008V263.602C670.047 263.789 669.695 263.927 669.32 264.016C668.945 264.109 668.484 264.156 667.938 264.156ZM675.852 255.188C676.622 255.188 677.284 255.346 677.836 255.664C678.388 255.982 678.812 256.432 679.109 257.016C679.406 257.599 679.555 258.297 679.555 259.109V260.094H673.781C673.802 260.932 674.026 261.578 674.453 262.031C674.885 262.484 675.49 262.711 676.266 262.711C676.818 262.711 677.312 262.659 677.75 262.555C678.193 262.445 678.648 262.286 679.117 262.078V263.57C678.685 263.773 678.245 263.922 677.797 264.016C677.349 264.109 676.812 264.156 676.188 264.156C675.339 264.156 674.591 263.992 673.945 263.664C673.305 263.331 672.802 262.836 672.438 262.18C672.078 261.523 671.898 260.708 671.898 259.734C671.898 258.766 672.062 257.943 672.391 257.266C672.719 256.589 673.18 256.073 673.773 255.719C674.367 255.365 675.06 255.188 675.852 255.188ZM675.852 256.57C675.273 256.57 674.805 256.758 674.445 257.133C674.091 257.508 673.883 258.057 673.82 258.781H677.758C677.753 258.349 677.68 257.966 677.539 257.633C677.404 257.299 677.195 257.039 676.914 256.852C676.638 256.664 676.284 256.57 675.852 256.57ZM687.438 261.531C687.438 262.099 687.299 262.578 687.023 262.969C686.747 263.359 686.344 263.656 685.812 263.859C685.286 264.057 684.641 264.156 683.875 264.156C683.271 264.156 682.75 264.112 682.312 264.023C681.88 263.94 681.471 263.81 681.086 263.633V262.047C681.497 262.24 681.958 262.406 682.469 262.547C682.984 262.688 683.471 262.758 683.93 262.758C684.534 262.758 684.969 262.664 685.234 262.477C685.5 262.284 685.633 262.029 685.633 261.711C685.633 261.523 685.578 261.357 685.469 261.211C685.365 261.06 685.167 260.906 684.875 260.75C684.589 260.589 684.167 260.396 683.609 260.172C683.062 259.953 682.602 259.734 682.227 259.516C681.852 259.297 681.568 259.034 681.375 258.727C681.182 258.414 681.086 258.016 681.086 257.531C681.086 256.766 681.388 256.185 681.992 255.789C682.602 255.388 683.406 255.188 684.406 255.188C684.938 255.188 685.438 255.242 685.906 255.352C686.38 255.456 686.844 255.609 687.297 255.812L686.719 257.195C686.328 257.023 685.935 256.883 685.539 256.773C685.148 256.659 684.75 256.602 684.344 256.602C683.87 256.602 683.508 256.674 683.258 256.82C683.013 256.966 682.891 257.174 682.891 257.445C682.891 257.648 682.951 257.82 683.07 257.961C683.19 258.102 683.396 258.242 683.688 258.383C683.984 258.523 684.396 258.698 684.922 258.906C685.438 259.104 685.883 259.312 686.258 259.531C686.638 259.745 686.93 260.008 687.133 260.32C687.336 260.633 687.438 261.036 687.438 261.531Z" fill="black"/>
<path d="M213.266 66.6844C213.342 66.6705 213.419 66.6716 213.495 66.6878C213.57 66.7039 213.641 66.7347 213.704 66.7784C213.768 66.8221 213.822 66.8779 213.864 66.9425C213.905 67.0071 213.934 67.0793 213.948 67.155C213.976 67.3078 213.942 67.4655 213.854 67.5934C213.766 67.7213 213.63 67.8089 213.477 67.837C210.165 68.4442 207.762 71.3303 207.762 74.6995C207.762 78.086 210.187 80.9163 213.392 81.5455C213.399 81.5466 213.405 81.547 213.411 81.5481C213.849 81.633 214.293 81.676 214.739 81.6765C218.586 81.6765 221.716 78.5466 221.716 74.6995C221.716 71.2864 219.258 68.4341 216.001 67.837C215.848 67.8089 215.712 67.7213 215.624 67.5934C215.536 67.4655 215.502 67.3078 215.53 67.155C215.588 66.8366 215.894 66.6258 216.212 66.6844C218.079 67.0268 219.699 67.9908 220.875 69.338L224.518 67.927V65.8936C223.198 64.8829 222.288 63.3639 222.081 61.6313C220.512 61.5617 219.344 60.3063 219.344 58.8136C219.343 58.1279 219.594 57.4659 220.049 56.953V54.3814C220.049 49.7598 223.809 46 228.43 46C233.052 46 236.812 49.7598 236.812 54.3813V57.0195C237.269 57.5245 237.517 58.15 237.517 58.8135C237.517 60.3045 236.351 61.5615 234.78 61.6312C234.574 63.3747 233.654 64.9568 232.205 65.9917V67.927L240.439 71.1191C240.442 71.1206 240.446 71.122 240.45 71.1235C240.595 71.1831 244 72.6288 244 76.609V84.6727C244 85.4045 243.405 86 242.673 86H214.035C213.307 86 212.714 85.4075 212.714 84.6791V82.5939C209.197 81.6913 206.59 78.4942 206.59 74.6996C206.59 70.7645 209.398 67.3937 213.266 66.6844ZM222.804 69.8474L224.915 74.0778C224.944 74.0575 225.473 73.6813 227.513 72.2327L224.918 69.0289L222.804 69.8474ZM226.85 74.1413L227.453 75.0497H229.265L229.868 74.1413L228.359 73.0695L226.85 74.1413ZM231.033 68.1152V66.6527C230.241 66.9934 229.302 67.1922 228.347 67.1922C227.428 67.1922 226.517 66.9908 225.69 66.6048V68.1208L228.359 71.4155L231.033 68.1152ZM221.082 60.0515C221.349 60.2806 221.676 60.4171 222.035 60.4527V57.1748C220.534 57.3202 220.01 59.1293 221.082 60.0515ZM234.826 60.4527C235.727 60.3634 236.345 59.642 236.345 58.8136C236.345 57.983 235.624 57.3323 234.826 57.2015V60.4527ZM234.807 56.0173C235.08 56.0423 235.405 56.1229 235.64 56.2145V54.3813C235.64 50.4061 232.406 47.172 228.431 47.172C224.455 47.172 221.221 50.406 221.221 54.3813V56.1631C221.483 56.0702 221.757 56.0148 222.035 55.9988C222.035 55.2945 221.949 55.4949 223.991 53.3046C224.154 53.1295 224.345 52.8725 224.75 52.7874C224.894 52.7572 225.042 52.7556 225.186 52.7829C225.331 52.8101 225.468 52.8656 225.591 52.9462C227.894 54.4503 230.783 55.2947 233.559 55.1128C234.237 55.068 234.702 55.4537 234.807 56.0173ZM233.654 60.8795V56.2813C230.672 56.481 227.526 55.5984 224.989 53.9524C223.93 55.0902 223.36 55.6806 223.206 55.8787C223.206 61.7237 223.205 60.6837 223.21 61.008C223.278 63.7703 225.543 66.0202 228.347 66.0202C231.468 66.0203 233.654 63.6145 233.654 60.8795ZM231.804 69.0304L229.208 72.2348L231.803 74.078L233.914 69.8476L231.804 69.0304ZM237.404 84.8281V77.8581C237.404 77.5345 237.666 77.2722 237.989 77.2722C238.313 77.2722 238.575 77.5345 238.575 77.8581V84.8281H242.673C242.714 84.8281 242.753 84.8117 242.782 84.7825C242.812 84.7534 242.828 84.7139 242.828 84.6727V76.6091C242.828 73.4566 240.165 72.2762 240.008 72.2091L235.012 70.2723L232.814 74.6767L232.814 74.6768C232.743 74.8189 232.643 74.944 232.519 75.0434C232.395 75.1428 232.251 75.2142 232.097 75.2526C231.526 75.3954 231.186 75.077 230.824 74.8203L230.196 75.7667L231.729 84.8281H237.404ZM219.31 84.828H224.989L225.515 81.7205C225.527 81.644 225.554 81.5707 225.595 81.5049C225.636 81.439 225.689 81.3818 225.752 81.3367C225.815 81.2916 225.886 81.2593 225.962 81.2419C226.037 81.2244 226.115 81.2221 226.191 81.235C226.268 81.2479 226.341 81.2758 226.406 81.3171C226.472 81.3585 226.528 81.4123 226.573 81.4756C226.617 81.539 226.649 81.6105 226.666 81.6861C226.682 81.7617 226.684 81.8398 226.67 81.916L226.177 84.828H230.541L229.084 76.2216H227.634L227.133 79.1814C227.12 79.2573 227.093 79.3299 227.052 79.3951C227.011 79.4603 226.958 79.5168 226.895 79.5614C226.832 79.606 226.761 79.6378 226.686 79.6549C226.611 79.6721 226.534 79.6743 226.458 79.6614C226.304 79.6355 226.168 79.5497 226.078 79.4231C225.988 79.2964 225.952 79.1392 225.978 78.9859L226.523 75.7667L225.894 74.8203L225.525 75.0823C224.974 75.4734 224.205 75.2802 223.904 74.6769H223.904L221.707 70.2727L221.607 70.3114C222.444 71.6219 222.888 73.1446 222.888 74.6997C222.888 77.5001 221.468 79.9749 219.31 81.4423L219.31 84.828ZM213.886 84.6791C213.886 84.7186 213.902 84.7565 213.93 84.7844C213.957 84.8124 213.995 84.8281 214.035 84.8281H218.138V82.1048C217.103 82.5819 215.951 82.8487 214.739 82.8487C214.451 82.8487 214.166 82.8334 213.886 82.8041L213.886 84.6791Z" fill="#4D4D4D"/>
<path d="M211.965 72.968C212.073 72.8567 212.222 72.7931 212.377 72.7911C212.532 72.7891 212.682 72.8489 212.794 72.9574L215.097 75.2028L216.062 74.2569C216.173 74.1481 216.323 74.0879 216.478 74.0894C216.634 74.091 216.782 74.1542 216.891 74.2652C217 74.3762 217.06 74.5259 217.059 74.6813C217.057 74.8367 216.994 74.9851 216.883 75.0939L215.509 76.4406C215.399 76.5481 215.252 76.6083 215.098 76.6081C214.946 76.6083 214.799 76.5486 214.689 76.4417L211.976 73.7966C211.921 73.7429 211.877 73.6789 211.846 73.6082C211.816 73.5374 211.8 73.4615 211.799 73.3845C211.798 73.3076 211.812 73.2312 211.84 73.1597C211.869 73.0883 211.911 73.0231 211.965 72.968Z" fill="#4D4D4D"/>
<path d="M214.74 68.6118C218.097 68.6118 220.828 71.3428 220.828 74.6997C220.828 78.0566 218.097 80.7876 214.74 80.7876C211.383 80.7876 208.652 78.0566 208.652 74.6997C208.652 71.3428 211.383 68.6118 214.74 68.6118ZM214.74 79.6156C217.451 79.6156 219.656 77.4103 219.656 74.6996C219.656 71.989 217.451 69.7837 214.74 69.7837C212.03 69.7837 209.824 71.989 209.824 74.6996C209.824 77.4103 212.03 79.6156 214.74 79.6156Z" fill="#4D4D4D"/>
<path d="M662.027 226.486C661.631 225.826 660.008 223.864 655.732 226.354L648.22 230.73C647.86 230.939 647.494 231.09 647.113 231.183C647.25 230.954 647.358 230.698 647.434 230.416C647.821 228.972 646.963 227.465 645.481 226.984C645.452 226.975 645.422 226.967 645.391 226.962C643.234 226.573 641.104 225.803 639.392 225.184C638.797 224.969 638.235 224.766 637.757 224.611C635.826 223.984 634.083 224.759 632.632 225.599L627.061 228.824L626.46 227.763C626.225 227.347 625.841 227.048 625.379 226.92C624.916 226.792 624.433 226.85 624.017 227.086L621.909 228.279C621.049 228.766 620.745 229.862 621.232 230.722L627.429 241.671C627.664 242.087 628.048 242.386 628.511 242.514C628.67 242.559 628.833 242.58 628.994 242.58C629.299 242.58 629.6 242.502 629.872 242.348L631.98 241.155C632.84 240.668 633.144 239.572 632.657 238.712L632.112 237.748L633.361 237.027L642.975 239.603C643.52 239.749 644.055 239.822 644.579 239.822C645.623 239.822 646.621 239.532 647.561 238.954L661.193 230.559C662.445 229.789 662.842 227.847 662.027 226.486ZM631.303 239.96L629.196 241.153C628.998 241.265 628.736 241.192 628.624 240.994L622.428 230.045C622.316 229.848 622.388 229.586 622.586 229.474L624.694 228.281C624.756 228.246 624.826 228.227 624.897 228.227C624.935 228.227 624.974 228.233 625.012 228.243C625.065 228.258 625.115 228.282 625.158 228.316C625.202 228.35 625.238 228.392 625.265 228.439L631.462 239.388C631.574 239.586 631.501 239.848 631.303 239.96ZM660.473 229.39L646.84 237.784C645.764 238.447 644.583 238.612 643.33 238.276L633.442 235.627C633.355 235.603 633.264 235.597 633.175 235.609C633.085 235.621 632.999 235.65 632.921 235.695L631.435 236.553L627.738 230.02L633.321 226.787C634.569 226.064 635.92 225.458 637.334 225.917C637.79 226.065 638.316 226.255 638.926 226.476C640.673 227.107 642.844 227.892 645.098 228.305C645.872 228.576 646.305 229.323 646.107 230.06C645.848 231.029 645.039 231.15 644.395 231.077C643.289 230.849 642.238 230.549 641.126 230.231C640.599 230.081 640.053 229.925 639.492 229.775C639.405 229.751 639.314 229.745 639.225 229.757C639.135 229.769 639.049 229.798 638.971 229.843C638.893 229.888 638.825 229.949 638.77 230.02C638.715 230.092 638.675 230.173 638.651 230.26C638.628 230.348 638.622 230.438 638.634 230.528C638.645 230.617 638.675 230.703 638.72 230.782C638.765 230.86 638.825 230.928 638.896 230.983C638.968 231.038 639.05 231.078 639.137 231.102C639.687 231.249 640.227 231.403 640.749 231.552C641.896 231.88 642.98 232.189 644.147 232.428C644.151 232.429 645.108 232.585 645.108 232.585C646.51 232.809 647.754 232.59 648.911 231.917L656.423 227.541C658.575 226.288 660.229 226.158 660.849 227.192C661.275 227.903 661.085 229.013 660.473 229.39ZM625.379 230.526C625.408 230.724 625.357 230.924 625.238 231.085C625.119 231.245 624.941 231.351 624.743 231.38C624.546 231.408 624.345 231.358 624.185 231.238C624.025 231.119 623.918 230.941 623.89 230.744C623.875 230.646 623.88 230.546 623.905 230.45C623.929 230.355 623.972 230.264 624.031 230.185C624.09 230.106 624.164 230.039 624.249 229.989C624.334 229.938 624.428 229.904 624.525 229.89C624.623 229.876 624.723 229.881 624.819 229.905C624.915 229.929 625.005 229.972 625.084 230.031C625.163 230.09 625.23 230.164 625.281 230.249C625.331 230.334 625.365 230.428 625.379 230.526ZM635.624 215.794L637.404 216.479C637.662 217.429 638.04 218.342 638.53 219.196L637.756 220.94C637.699 221.067 637.683 221.208 637.708 221.344C637.733 221.481 637.8 221.606 637.898 221.704L640.336 224.143C640.435 224.241 640.56 224.307 640.697 224.332C640.833 224.358 640.974 224.341 641.101 224.285L642.846 223.51C643.699 224 644.612 224.378 645.562 224.636L646.247 226.417C646.297 226.546 646.385 226.657 646.499 226.736C646.614 226.815 646.749 226.857 646.888 226.857H650.337C650.476 226.857 650.611 226.815 650.726 226.736C650.84 226.657 650.928 226.546 650.978 226.417L651.663 224.637C652.613 224.379 653.526 224 654.38 223.51L656.124 224.285C656.251 224.341 656.392 224.358 656.528 224.332C656.665 224.307 656.79 224.241 656.888 224.143L659.327 221.704C659.425 221.606 659.491 221.481 659.517 221.344C659.542 221.208 659.525 221.067 659.469 220.94L658.694 219.195C659.184 218.341 659.562 217.429 659.82 216.479L661.601 215.794C661.73 215.744 661.842 215.656 661.92 215.541C661.999 215.427 662.041 215.291 662.041 215.153V211.704C662.041 211.565 661.999 211.429 661.92 211.315C661.842 211.201 661.73 211.113 661.601 211.063L659.821 210.378C659.563 209.428 659.184 208.515 658.694 207.661L659.469 205.917C659.525 205.79 659.542 205.649 659.517 205.512C659.491 205.376 659.425 205.25 659.327 205.152L656.888 202.714C656.79 202.616 656.665 202.55 656.528 202.524C656.392 202.499 656.251 202.515 656.124 202.572L654.379 203.347C653.526 202.857 652.613 202.478 651.663 202.22L650.978 200.44C650.928 200.311 650.84 200.199 650.725 200.121C650.611 200.042 650.476 200 650.337 200H646.888C646.749 200 646.614 200.042 646.499 200.121C646.385 200.199 646.297 200.311 646.247 200.44L645.562 202.22C644.612 202.478 643.699 202.857 642.846 203.347L641.101 202.572C640.974 202.515 640.833 202.499 640.697 202.524C640.56 202.549 640.435 202.616 640.336 202.714L637.898 205.152C637.8 205.25 637.734 205.376 637.708 205.512C637.683 205.649 637.699 205.79 637.756 205.917L638.531 207.661C638.041 208.515 637.662 209.428 637.404 210.378L635.624 211.063C635.495 211.113 635.383 211.201 635.305 211.315C635.226 211.43 635.184 211.565 635.184 211.704V215.153C635.184 215.292 635.226 215.427 635.305 215.542C635.383 215.656 635.495 215.744 635.624 215.794ZM636.558 212.176L638.229 211.532C638.333 211.492 638.426 211.427 638.499 211.343C638.573 211.259 638.624 211.159 638.65 211.05C638.901 209.996 639.319 208.989 639.887 208.067C639.945 207.972 639.98 207.864 639.987 207.753C639.995 207.642 639.975 207.53 639.93 207.428L639.202 205.79L640.974 204.018L642.612 204.746C642.714 204.791 642.826 204.811 642.937 204.804C643.048 204.796 643.156 204.762 643.251 204.703C644.173 204.135 645.18 203.717 646.234 203.466C646.343 203.441 646.443 203.389 646.527 203.315C646.611 203.242 646.676 203.149 646.716 203.045L647.36 201.374H649.865L650.509 203.045C650.549 203.149 650.613 203.242 650.697 203.315C650.781 203.389 650.882 203.441 650.99 203.466C652.044 203.717 653.051 204.135 653.974 204.703C654.069 204.762 654.176 204.796 654.288 204.804C654.399 204.811 654.51 204.791 654.612 204.746L656.251 204.018L658.023 205.79L657.295 207.428C657.25 207.53 657.23 207.641 657.238 207.753C657.245 207.864 657.28 207.972 657.338 208.067C657.907 208.989 658.324 209.996 658.575 211.05C658.601 211.159 658.653 211.26 658.726 211.344C658.8 211.427 658.892 211.492 658.997 211.532L660.667 212.176V214.681L658.996 215.325C658.892 215.365 658.799 215.43 658.726 215.513C658.652 215.597 658.6 215.698 658.575 215.806C658.324 216.86 657.906 217.867 657.338 218.79C657.279 218.885 657.245 218.992 657.237 219.104C657.23 219.215 657.25 219.326 657.295 219.428L658.023 221.067L656.251 222.838L654.613 222.111C654.511 222.066 654.4 222.046 654.288 222.053C654.177 222.061 654.069 222.095 653.974 222.154C653.052 222.723 652.045 223.14 650.99 223.391C650.882 223.417 650.781 223.469 650.697 223.542C650.613 223.615 650.549 223.708 650.509 223.812L649.865 225.483H647.36L646.716 223.812C646.676 223.708 646.611 223.615 646.527 223.541C646.443 223.468 646.343 223.416 646.234 223.39C645.18 223.14 644.173 222.722 643.251 222.154C643.156 222.095 643.048 222.061 642.937 222.053C642.826 222.046 642.714 222.065 642.612 222.111L640.974 222.838L639.202 221.067L639.93 219.429C639.975 219.327 639.995 219.216 639.987 219.104C639.98 218.993 639.945 218.885 639.887 218.79C639.318 217.868 638.9 216.861 638.65 215.806C638.624 215.698 638.572 215.597 638.499 215.513C638.425 215.429 638.332 215.365 638.228 215.324L636.557 214.681L636.558 212.176ZM648.612 220.339C652.423 220.339 655.523 217.239 655.523 213.428C655.523 209.618 652.423 206.518 648.612 206.518C644.802 206.518 641.702 209.618 641.702 213.428C641.702 217.239 644.802 220.339 648.612 220.339ZM648.612 207.891C651.666 207.891 654.15 210.375 654.15 213.428C654.15 216.482 651.666 218.965 648.612 218.965C645.559 218.965 643.075 216.482 643.075 213.428C643.075 210.375 645.559 207.891 648.612 207.891Z" fill="#4D4D4D"/>
<defs>
<linearGradient id="paint0_linear_695_124" x1="24" y1="234" x2="164" y2="234" gradientUnits="userSpaceOnUse">
<stop stop-color="#F6B92D"/>
<stop offset="1" stop-color="#FF9F0D"/>
</linearGradient>
<linearGradient id="paint1_linear_695_124" x1="580.26" y1="178.26" x2="703.74" y2="301.74" gradientUnits="userSpaceOnUse">
<stop stop-color="#655CC9"/>
<stop offset="0.983" stop-color="#5146AE"/>
</linearGradient>
<linearGradient id="paint2_linear_695_124" x1="156" y1="84" x2="296" y2="84" gradientUnits="userSpaceOnUse">
<stop stop-color="#0BC6AB"/>
<stop offset="1" stop-color="#0AB399"/>
</linearGradient>
<linearGradient id="paint3_linear_695_124" x1="427" y1="81" x2="567" y2="81" gradientUnits="userSpaceOnUse">
<stop stop-color="#CB369A"/>
<stop offset="0.983" stop-color="#E649A4"/>
</linearGradient>
<linearGradient id="paint4_linear_695_124" x1="93.504" y1="147.448" x2="94.372" y2="299.72" gradientUnits="userSpaceOnUse">
<stop stop-color="white"/>
<stop offset="1" stop-color="#CCCCCC"/>
</linearGradient>
<linearGradient id="paint5_linear_695_124" x1="370.504" y1="153.448" x2="371.372" y2="305.72" gradientUnits="userSpaceOnUse">
<stop stop-color="white"/>
<stop offset="1" stop-color="#CCCCCC"/>
</linearGradient>
<linearGradient id="paint6_linear_695_124" x1="641.504" y1="153.448" x2="642.372" y2="305.72" gradientUnits="userSpaceOnUse">
<stop stop-color="white"/>
<stop offset="1" stop-color="#CCCCCC"/>
</linearGradient>
<linearGradient id="paint7_linear_695_124" x1="225.504" y1="-2.552" x2="226.372" y2="149.72" gradientUnits="userSpaceOnUse">
<stop stop-color="white"/>
<stop offset="1" stop-color="#CCCCCC"/>
</linearGradient>
<linearGradient id="paint8_linear_695_124" x1="496.504" y1="-5.552" x2="497.372" y2="146.72" gradientUnits="userSpaceOnUse">
<stop stop-color="white"/>
<stop offset="1" stop-color="#CCCCCC"/>
</linearGradient>
</defs>
</svg>
