<svg width="28" height="30" viewBox="0 0 28 30" fill="none" xmlns="http://www.w3.org/2000/svg">
<path d="M6.11065 7C6.24567 7 6.37516 6.94732 6.47063 6.85355C6.56611 6.75979 6.61974 6.63261 6.61974 6.5V2.5C6.62015 2.1023 6.78119 1.721 7.06752 1.43978C7.35385 1.15856 7.74208 1.0004 8.14701 1H10.947C11.082 1 11.2115 0.947322 11.307 0.853553C11.4025 0.759785 11.4561 0.632608 11.4561 0.5C11.4561 0.367392 11.4025 0.240215 11.307 0.146447C11.2115 0.0526784 11.082 0 10.947 0H8.14701C7.47217 0.000793929 6.82519 0.264441 6.348 0.73311C5.87081 1.20178 5.60237 1.8372 5.60156 2.5V6.5C5.60156 6.63261 5.6552 6.75979 5.75067 6.85355C5.84614 6.94732 5.97563 7 6.11065 7ZM16.4768 22C16.4768 21.8674 16.4231 21.7402 16.3276 21.6464C16.2322 21.5527 16.1027 21.5 15.9677 21.5H8.65611V20.511C8.65611 20.3784 8.60247 20.2512 8.507 20.1574C8.41152 20.0637 8.28203 20.011 8.14701 20.011C8.012 20.011 7.88251 20.0637 7.78703 20.1574C7.69156 20.2512 7.63792 20.3784 7.63792 20.511V22C7.63792 22.1326 7.69156 22.2598 7.78703 22.3536C7.88251 22.4473 8.012 22.5 8.14701 22.5H15.9677C16.1027 22.5 16.2322 22.4473 16.3276 22.3536C16.4231 22.2598 16.4768 22.1326 16.4768 22Z" fill="white"/>
<path d="M26.3597 14.682L22.9091 11.293V2.5C22.9083 1.8372 22.6398 1.20178 22.1626 0.73311C21.6854 0.264441 21.0385 0.000793929 20.3636 0H13.4909C13.3559 0 13.2264 0.0526784 13.1309 0.146447C13.0354 0.240215 12.9818 0.367392 12.9818 0.5C12.9818 0.632608 13.0354 0.759785 13.1309 0.853553C13.2264 0.947322 13.3559 1 13.4909 1H20.3636C20.7686 1.0004 21.1568 1.15856 21.4431 1.43978C21.7295 1.721 21.8905 2.1023 21.8909 2.5V16.5C21.8909 16.6326 21.9445 16.7598 22.04 16.8536C22.1355 16.9473 22.265 17 22.4 17C22.535 17 22.6645 16.9473 22.76 16.8536C22.8554 16.7598 22.9091 16.6326 22.9091 16.5V12.707L25.6398 15.389C26.0666 15.8059 26.405 16.3018 26.6353 16.848C26.8657 17.3942 26.9834 17.9798 26.9818 18.571V29H16.8V25.068C16.8008 24.3872 17.0765 23.7344 17.5667 23.253C18.0569 22.7716 18.7215 22.5008 19.4147 22.5C19.5154 22.5 19.6138 22.4706 19.6975 22.4157C19.7812 22.3608 19.8464 22.2827 19.8849 22.1913C19.9234 22.1 19.9335 21.9995 19.9139 21.9025C19.8942 21.8055 19.8458 21.7164 19.7746 21.6465L15.4911 17.4395C15.1569 17.1113 14.9692 16.6662 14.9692 16.202C14.9692 15.7378 15.1569 15.2927 15.4911 14.9645C15.8253 14.6363 16.2785 14.4519 16.7511 14.4519C17.2237 14.4519 17.6769 14.6363 18.0111 14.9645L23.8198 20.6695C23.9159 20.7606 24.0445 20.811 24.1779 20.8098C24.3114 20.8087 24.4391 20.7561 24.5335 20.6634C24.6279 20.5707 24.6814 20.4453 24.6826 20.3142C24.6837 20.1831 24.6324 20.0568 24.5397 19.9625L20.8727 16.361V2.5C20.8727 2.36739 20.8191 2.24021 20.7236 2.14645C20.6281 2.05268 20.4986 2 20.3636 2H17.8182C17.6831 2 17.5537 2.05268 17.4582 2.14645C17.3627 2.24021 17.3091 2.36739 17.3091 2.5C17.3089 2.63257 17.2553 2.75967 17.1598 2.85341C17.0644 2.94715 16.935 2.99987 16.8 3H11.7091C11.5741 2.99987 11.4447 2.94715 11.3492 2.85341C11.2538 2.75967 11.2001 2.63257 11.2 2.5C11.2 2.36739 11.1464 2.24021 11.0509 2.14645C10.9554 2.05268 10.8259 2 10.6909 2H8.14545C8.01043 2 7.88094 2.05268 7.78547 2.14645C7.68999 2.24021 7.63636 2.36739 7.63636 2.5V7.5H1.52727C1.12234 7.5004 0.734105 7.65856 0.447774 7.93978C0.161443 8.221 0.000404327 8.6023 0 9V18C0.000404327 18.3977 0.161443 18.779 0.447774 19.0602C0.734105 19.3414 1.12234 19.4996 1.52727 19.5H5.6V24C5.6008 24.6628 5.86924 25.2982 6.34643 25.7669C6.82362 26.2356 7.4706 26.4992 8.14545 26.5H15.7818V29.5C15.7818 29.6326 15.8354 29.7598 15.9309 29.8536C16.0264 29.9473 16.1559 30 16.2909 30H27.4909C27.6259 30 27.7554 29.9473 27.8509 29.8536C27.9463 29.7598 28 29.6326 28 29.5V18.571C28.002 17.8484 27.8581 17.1327 27.5765 16.4651C27.2949 15.7976 26.8814 15.1915 26.3597 14.682ZM1.52727 8.5H17.8182V9.5H1.01818V9C1.01832 8.86743 1.072 8.74033 1.16744 8.64659C1.26288 8.55285 1.39229 8.50013 1.52727 8.5ZM14.2545 25.5H8.14545C7.74052 25.4996 7.35228 25.3414 7.06595 25.0602C6.77962 24.779 6.61858 24.3977 6.61818 24V19.5H14.2759C14.4109 19.5 14.5404 19.4473 14.6359 19.3536C14.7314 19.2598 14.785 19.1326 14.785 19C14.785 18.8674 14.7314 18.7402 14.6359 18.6464C14.5404 18.5527 14.4109 18.5 14.2759 18.5H1.52727C1.39229 18.4999 1.26288 18.4471 1.16744 18.3534C1.072 18.2597 1.01832 18.1326 1.01818 18V13.5H14.785C14.92 13.5 15.0495 13.4473 15.145 13.3536C15.2405 13.2598 15.2941 13.1326 15.2941 13C15.2941 12.8674 15.2405 12.7402 15.145 12.6464C15.0495 12.5527 14.92 12.5 14.785 12.5H1.01818V10.5H17.8182V13C17.8182 13.1326 17.8718 13.2598 17.9673 13.3536C18.0627 13.4473 18.1922 13.5 18.3273 13.5C18.4623 13.5 18.5918 13.4473 18.6872 13.3536C18.7827 13.2598 18.8363 13.1326 18.8363 13V6.5C18.8363 6.36739 18.7827 6.24021 18.6872 6.14645C18.5918 6.05268 18.4623 6 18.3273 6C18.1922 6 18.0627 6.05268 17.9673 6.14645C17.8718 6.24021 17.8182 6.36739 17.8182 6.5V7.5H8.65454V3H10.2689C10.3745 3.29229 10.5696 3.54533 10.8275 3.72437C11.0853 3.90341 11.3933 3.99969 11.7091 4H16.8C17.1158 3.99969 17.4237 3.90341 17.6816 3.72437C17.9395 3.54533 18.1346 3.29229 18.2402 3H19.8545V15.361L18.731 14.2575C18.2047 13.7475 17.4944 13.4626 16.755 13.465C16.0156 13.4675 15.3073 13.757 14.7845 14.2705C14.2617 14.784 13.9669 15.4797 13.9644 16.2058C13.9619 16.932 14.252 17.6296 14.7713 18.1465L18.3461 21.6575C17.6041 21.8829 16.955 22.3355 16.4937 22.9491C16.0323 23.5627 15.7829 24.3052 15.7818 25.068V25.5H14.2545Z" fill="white"/>
<path d="M5.0897 14.5H2.54425C2.40923 14.5 2.27974 14.5527 2.18427 14.6464C2.08879 14.7402 2.03516 14.8674 2.03516 15V17C2.03516 17.1326 2.08879 17.2598 2.18427 17.3536C2.27974 17.4473 2.40923 17.5 2.54425 17.5H5.0897C5.22472 17.5 5.35421 17.4473 5.44968 17.3536C5.54515 17.2598 5.59879 17.1326 5.59879 17V15C5.59879 14.8674 5.54515 14.7402 5.44968 14.6464C5.35421 14.5527 5.22472 14.5 5.0897 14.5ZM4.58061 16.5H3.05334V15.5H4.58061V16.5ZM15.7806 24C15.7806 23.7033 15.691 23.4133 15.5232 23.1666C15.3554 22.92 15.1169 22.7277 14.8378 22.6142C14.5587 22.5007 14.2516 22.4709 13.9554 22.5288C13.6591 22.5867 13.387 22.7296 13.1734 22.9393C12.9598 23.1491 12.8143 23.4164 12.7554 23.7074C12.6965 23.9983 12.7267 24.2999 12.8423 24.574C12.9579 24.8481 13.1537 25.0824 13.4048 25.2472C13.656 25.412 13.9513 25.5 14.2533 25.5C14.6583 25.4996 15.0465 25.3414 15.3328 25.0602C15.6192 24.779 15.7802 24.3977 15.7806 24ZM14.2533 24.5C14.1526 24.5 14.0542 24.4707 13.9705 24.4157C13.8868 24.3608 13.8215 24.2827 13.783 24.1913C13.7445 24.1 13.7344 23.9994 13.754 23.9025C13.7737 23.8055 13.8221 23.7164 13.8933 23.6464C13.9645 23.5765 14.0553 23.5289 14.154 23.5096C14.2528 23.4903 14.3551 23.5002 14.4481 23.5381C14.5412 23.5759 14.6207 23.64 14.6766 23.7222C14.7326 23.8044 14.7624 23.9011 14.7624 24C14.7623 24.1326 14.7086 24.2597 14.6132 24.3534C14.5177 24.4471 14.3883 24.4999 14.2533 24.5Z" fill="white"/>
</svg>
