<svg width="30" height="30" viewBox="0 0 30 30" fill="none" xmlns="http://www.w3.org/2000/svg">
<path d="M28.2422 14.4215H22.1161V12.6408C22.1161 10.049 20.1265 7.91402 17.5946 7.68064C17.5887 7.67895 17.5826 7.67771 17.5765 7.67625C18.1249 7.06389 18.4592 6.256 18.4592 5.37123V0.585938C18.4592 0.262324 18.1969 0 17.8733 0H14.3142C12.7849 0 11.5408 1.24412 11.5408 2.77336V5.37123C11.5408 6.256 11.8751 7.06389 12.4235 7.67625C12.4174 7.67771 12.4113 7.679 12.4054 7.68064C9.87346 7.91402 7.88391 10.049 7.88391 12.6408V14.4215H1.75781C0.788555 14.4215 0 15.2101 0 16.1793V28.2422C0 29.2114 0.788555 30 1.75781 30H17.7539C18.0775 30 18.3398 29.7376 18.3398 29.4141C18.3398 29.0905 18.0775 28.8281 17.7539 28.8281H1.75781C1.43473 28.8281 1.17188 28.5653 1.17188 28.2422V16.1793C1.17188 15.8562 1.43473 15.5934 1.75781 15.5934H28.2422C28.5653 15.5934 28.8281 15.8562 28.8281 16.1793V28.2422C28.8281 28.5653 28.5653 28.8281 28.2422 28.8281H22.8809C22.5572 28.8281 22.2949 29.0905 22.2949 29.4141C22.2949 29.7376 22.5572 30 22.8809 30H28.2422C29.2114 30 30 29.2114 30 28.2422V16.1793C30 15.2101 29.2114 14.4215 28.2422 14.4215ZM15.0001 7.65861C13.7388 7.65861 12.7127 6.63252 12.7127 5.37129V4.59686H16.2145C16.5894 4.5973 16.9584 4.50325 17.2874 4.3234V5.37129C17.2874 6.63252 16.2613 7.65861 15.0001 7.65861ZM16.0214 8.83043L15 9.85184L13.9786 8.83043H16.0214ZM12.7126 2.77336C12.7126 1.89029 13.4311 1.17188 14.3142 1.17188H17.2873V2.35219C17.2873 2.94375 16.806 3.42504 16.2145 3.42504H12.7126V2.77336ZM20.9442 14.4141H9.05578V12.6408C9.05578 10.7127 10.4956 9.11555 12.3564 8.86553L14.5857 11.0948C14.7001 11.2093 14.8501 11.2665 15 11.2665C15.1499 11.2665 15.2999 11.2093 15.4143 11.0948L17.6436 8.86553C19.5044 9.11555 20.9442 10.7127 20.9442 12.6408V14.4141Z" fill="white"/>
<path d="M20.8049 29C20.6959 28.891 20.5447 28.8283 20.3906 28.8283C20.2365 28.8283 20.0854 28.891 19.9764 29C19.8674 29.109 19.8047 29.2602 19.8047 29.4143C19.8047 29.5684 19.8674 29.7196 19.9764 29.8285C20.0854 29.9375 20.2365 30.0002 20.3906 30.0002C20.5447 30.0002 20.6959 29.9375 20.8049 29.8285C20.9139 29.7196 20.9766 29.5684 20.9766 29.4143C20.9766 29.2602 20.9139 29.109 20.8049 29ZM17.4609 17.6919H12.5391C11.8929 17.6919 11.3672 18.2176 11.3672 18.8638V19.7659C11.3672 20.0894 11.6295 20.3518 11.9531 20.3518C12.2767 20.3518 12.5391 20.0894 12.5391 19.7659V18.8638H17.4609V25.6606H12.5391V24.1994C12.5391 23.8759 12.2767 23.6135 11.9531 23.6135C11.6295 23.6135 11.3672 23.8759 11.3672 24.1994V25.6606C11.3672 26.3068 11.8929 26.8325 12.5391 26.8325H17.4609C18.1071 26.8325 18.6328 26.3068 18.6328 25.6606V18.8638C18.6328 18.2175 18.1071 17.6919 17.4609 17.6919Z" fill="white"/>
<path d="M12.3674 21.6201C12.2584 21.5106 12.1072 21.4485 11.9531 21.4485C11.799 21.4485 11.6479 21.5106 11.5389 21.6201C11.4299 21.7291 11.3672 21.8803 11.3672 22.0344C11.3672 22.1885 11.4299 22.3397 11.5389 22.4487C11.6479 22.5576 11.799 22.6203 11.9531 22.6203C12.1072 22.6203 12.2584 22.5576 12.3674 22.4487C12.4764 22.3397 12.5391 22.1885 12.5391 22.0344C12.5391 21.8797 12.4764 21.7291 12.3674 21.6201ZM26.4844 17.6919H21.5625C20.9163 17.6919 20.3906 18.2176 20.3906 18.8638V25.6606C20.3906 26.3068 20.9163 26.8325 21.5625 26.8325H26.4844C27.1305 26.8325 27.6562 26.3068 27.6562 25.6606V18.8638C27.6562 18.2176 27.1305 17.6919 26.4844 17.6919ZM26.4844 25.6606H21.5625V18.8638H26.4844L26.4851 25.6606L26.4844 25.6606ZM6.97266 22.8463H4.98047C4.65686 22.8463 4.39453 23.1087 4.39453 23.4322C4.39453 23.7558 4.65686 24.0181 4.98047 24.0181H6.97266C7.29627 24.0181 7.55859 23.7558 7.55859 23.4322C7.55859 23.1087 7.29627 22.8463 6.97266 22.8463ZM6.97266 20.5062H4.98047C4.65686 20.5062 4.39453 20.7686 4.39453 21.0921C4.39453 21.4157 4.65686 21.6781 4.98047 21.6781H6.97266C7.29627 21.6781 7.55859 21.4157 7.55859 21.0921C7.55859 20.7686 7.29627 20.5062 6.97266 20.5062ZM16.0035 22.8463H14.0113C13.6877 22.8463 13.4254 23.1087 13.4254 23.4322C13.4254 23.7558 13.6877 24.0181 14.0113 24.0181H16.0035C16.3271 24.0181 16.5895 23.7558 16.5895 23.4322C16.5895 23.1087 16.3271 22.8463 16.0035 22.8463ZM16.0035 20.5062H14.0113C13.6877 20.5062 13.4254 20.7686 13.4254 21.0921C13.4254 21.4157 13.6877 21.6781 14.0113 21.6781H16.0035C16.3271 21.6781 16.5895 21.4157 16.5895 21.0921C16.5895 20.7686 16.3271 20.5062 16.0035 20.5062Z" fill="white"/>
<path d="M25.0344 22.8463H23.0422C22.7186 22.8463 22.4563 23.1087 22.4563 23.4322C22.4563 23.7558 22.7186 24.0181 23.0422 24.0181H25.0344C25.358 24.0181 25.6204 23.7558 25.6204 23.4322C25.6204 23.1087 25.358 22.8463 25.0344 22.8463ZM25.0344 20.5062H23.0422C22.7186 20.5062 22.4563 20.7686 22.4563 21.0921C22.4563 21.4157 22.7186 21.6781 23.0422 21.6781H25.0344C25.358 21.6781 25.6204 21.4157 25.6204 21.0921C25.6204 20.7686 25.358 20.5062 25.0344 20.5062ZM8.4375 17.6919H3.51563C2.86945 17.6919 2.34375 18.2176 2.34375 18.8638V25.6606C2.34375 26.3068 2.86945 26.8325 3.51563 26.8325H8.4375C9.08367 26.8325 9.60938 26.3068 9.60938 25.6606V18.8638C9.60938 18.2176 9.08367 17.6919 8.4375 17.6919ZM8.4375 25.6606H3.51563V18.8638H8.4375L8.43826 25.6606L8.4375 25.6606Z" fill="white"/>
</svg>
